M48
INCH
T73C0.020
T72C0.032
T71C0.038
T70C0.120
T69C0.110
T68C0.125
T67C0.040
T66C0.130
T65C0.060
T64C0.028
T63C0.031
T62C0.035
T61C0.029
%
T73
X015600Y046700
X017500Y044300
X026000Y067800
X026000Y051100
X026000Y050500
X027000Y068200
X027100Y051700
X027300Y055900
X027400Y050500
X028000Y068600
X028000Y051100
X028400Y055900
X028600Y051700
X029000Y069000
X029100Y047500
X030000Y069400
X030000Y059400
X030100Y036100
X030100Y034700
X031000Y069600
X031500Y052200
X031500Y036500
X031500Y034400
X032100Y041900
X032300Y056900
X032500Y050300
X033800Y065500
X034500Y050500
X034500Y048400
X034900Y041900
X035000Y053900
X036000Y053300
X037000Y052700
X038000Y052100
X039900Y038200
X041000Y072200
X041000Y037700
X041100Y048400
X041500Y067400
X041900Y042200
X042000Y072000
X042400Y053900
X042400Y053300
X042400Y052700
X042400Y052100
X044000Y051800
X044100Y037700
X044500Y055300
X044500Y051300
X044900Y038200
X045000Y050900
X045500Y045200
X049500Y045900
X049500Y045200
X049500Y042100
X049500Y041200
X049500Y040400
X050800Y041200
X050800Y040400
X051200Y045000
X051200Y044300
X054300Y040800
T64
X017000Y057700
X017000Y054700
X017000Y049700
X017000Y046700
X017000Y042700
X017000Y039700
X018000Y057700
X018000Y054700
X018000Y049700
X018000Y046700
X018000Y042700
X018000Y039700
X019000Y057700
X019000Y054700
X019000Y049700
X019000Y046700
X019000Y042700
X019000Y039700
X020000Y057700
X020000Y054700
X020000Y049700
X020000Y046700
X020000Y042700
X020000Y039700
X021000Y057700
X021000Y054700
X021000Y049700
X021000Y046700
X021000Y042700
X021000Y039700
X022000Y057700
X022000Y054700
X022000Y049700
X022000Y046700
X022000Y042700
X022000Y039700
X023000Y057700
X023000Y054700
X023000Y049700
X023000Y046700
X023000Y042700
X023000Y039700
X024000Y042700
X024000Y039700
X025000Y070700
X025000Y066700
X026000Y070700
X026000Y066700
X027000Y070700
X027000Y066700
X028000Y070700
X028000Y066700
X028000Y060700
X028000Y054700
X028000Y049700
X028000Y046700
X029000Y070700
X029000Y066700
X029000Y060700
X029000Y054700
X029000Y049700
X029000Y046700
X030000Y070700
X030000Y066700
X030000Y060700
X030000Y054700
X030000Y049700
X030000Y046700
X031000Y070700
X031000Y066700
X031000Y060700
X031000Y054700
X031000Y049700
X031000Y046700
X032000Y070700
X032000Y066700
X032000Y060700
X032000Y054700
X032000Y049700
X032000Y046700
X033000Y070700
X033000Y066700
X033000Y060700
X033000Y054700
X033000Y049700
X033000Y046700
X034000Y070700
X034000Y066700
X034000Y060700
X034000Y054700
X034000Y049700
X034000Y046700
X035000Y070700
X035000Y066700
X035000Y060700
X035000Y054700
X035000Y049700
X035000Y046700
X036000Y060700
X036000Y054700
X037000Y060700
X037000Y054700
X038000Y060700
X038000Y054700
X039000Y060700
X039000Y054700
X040000Y070700
X040000Y066700
X040000Y060700
X040000Y054700
X040000Y049700
X040000Y046700
X041000Y070700
X041000Y066700
X041000Y060700
X041000Y054700
X041000Y049700
X041000Y046700
X042000Y070700
X042000Y066700
X042000Y060700
X042000Y054700
X042000Y049700
X042000Y046700
X043000Y070700
X043000Y066700
X043000Y060700
X043000Y054700
X043000Y049700
X043000Y046700
X044000Y070700
X044000Y066700
X044000Y060700
X044000Y054700
X044000Y049700
X044000Y046700
X045000Y070700
X045000Y066700
X045000Y060700
X045000Y054700
X045000Y049700
X045000Y046700
X046000Y070700
X046000Y066700
X046000Y060700
X046000Y054700
X046000Y049700
X046000Y046700
X047000Y070700
X047000Y066700
X047000Y060700
X047000Y054700
X047000Y049700
X047000Y046700
X048000Y070700
X048000Y066700
X049000Y070700
X049000Y066700
X050000Y070700
X050000Y066700
X052000Y049700
X052000Y046700
X052000Y042700
X052000Y039700
X053000Y049700
X053000Y046700
X053000Y042700
X053000Y039700
X054000Y049700
X054000Y046700
X054000Y042700
X054000Y039700
X055000Y049700
X055000Y046700
X055000Y042700
X055000Y039700
X056000Y049700
X056000Y046700
X056000Y042700
X056000Y039700
X057000Y049700
X057000Y046700
X057000Y042700
X057000Y039700
X058000Y049700
X058000Y046700
X058000Y042700
X058000Y039700
T61
X016200Y052400
X016200Y038200
X016200Y035200
X019200Y052400
X020000Y038200
X020000Y035200
X020700Y052400
X022000Y038200
X022000Y035200
X023700Y052400
X025700Y038200
X025700Y035200
X037200Y045400
X038200Y045400
T63
X034000Y042700
X034000Y036700
X035000Y042700
X035000Y036700
X036000Y042700
X036000Y036700
X037000Y042700
X037000Y036700
X038000Y042700
X038000Y036700
X039000Y042700
X039000Y036700
X040000Y042700
X040000Y036700
X041000Y042700
X041000Y036700
T72
X019380Y060500
X021300Y060500
T62
X015400Y041700
X015400Y039700
X017000Y058800
X017000Y050900
X018000Y038700
X018000Y034700
X018400Y065600
X018400Y063600
X018400Y062500
X019000Y058800
X019000Y050900
X022400Y065600
X022400Y063600
X022400Y062500
X023900Y038700
X023900Y034700
X025000Y072600
X026700Y060700
X026700Y058700
X027000Y072600
X028000Y045400
X030000Y072900
X030000Y065700
X030000Y061700
X030000Y045400
X031000Y065700
X031000Y061700
X032000Y065700
X032000Y061700
X035500Y044000
X039500Y044000
X040000Y072900
X040000Y045600
X042000Y072900
X042000Y045600
X044000Y065700
X044000Y061700
X045000Y065700
X045000Y061700
X046000Y065700
X046000Y061700
X047000Y065700
X047000Y061700
X049200Y054000
X052000Y051000
X052000Y044100
X052100Y066600
X052100Y053700
X052100Y052700
X052106Y064900
X052111Y055900
X052894Y064900
X053489Y055900
X054000Y051000
X054000Y044100
X054100Y066600
X054100Y053700
T71
X051000Y037000
X051000Y036000
X052000Y037000
X052000Y036000
X053000Y037000
X053000Y036000
X054000Y037000
X054000Y036000
X055000Y037000
X055000Y036000
X056000Y037000
X056000Y036000
X057000Y037000
X057000Y036000
X058000Y037000
X058000Y036000
T67
X056850Y068000
X060350Y068000
T65
X052100Y061700
X052100Y060700
X052100Y059700
T69
X056800Y071000
X058700Y072200
T70
X012000Y068000
X012000Y040000
X012000Y029000
X012000Y019000
X063000Y068000
X063000Y040000
X063000Y029000
X063000Y019000
T68
X058700Y069800
T66
X058800Y060700
M30
