G04 start of page 10 for group -4078 idx -4078 *
G04 Title: (unknown), bottomsilk *
G04 Creator: pcb 20140316 *
G04 CreationDate: Fri 21 Oct 2016 04:41:03 PM GMT UTC *
G04 For: atommann *
G04 Format: Gerber/RS-274X *
G04 PCB-Dimensions (mil): 8000.00 8000.00 *
G04 PCB-Coordinate-Origin: lower left *
%MOIN*%
%FSLAX25Y25*%
%LNBOTTOMSILK*%
%ADD104C,0.0100*%
%ADD103C,0.0001*%
G54D103*G36*
X433000Y413000D02*X435577D01*
X435660Y412968D01*
X435707Y412892D01*
X435756Y412653D01*
X435800Y412431D01*
X436191Y410299D01*
X436238Y410211D01*
X436321Y410153D01*
X436424Y410109D01*
X437214Y409838D01*
X437964Y409480D01*
X437970D01*
X438057Y409442D01*
X438154Y409428D01*
X438252Y409459D01*
X440025Y410678D01*
X440216Y410803D01*
X440417Y410939D01*
X440503Y410964D01*
X440585Y410928D01*
X440916Y410598D01*
X441420Y410098D01*
X441578Y409935D01*
X442077Y409437D01*
X442239Y409280D01*
X442407Y409106D01*
X442446Y409021D01*
X442424Y408932D01*
X442288Y408731D01*
X442159Y408541D01*
X440970Y406805D01*
X440938Y406713D01*
X440953Y406616D01*
X440998Y406517D01*
X441681Y404911D01*
X441718Y404820D01*
X441781Y404742D01*
X441871Y404695D01*
X443910Y404314D01*
X444134Y404271D01*
X444377Y404228D01*
X444452Y404181D01*
X444481Y404098D01*
Y401521D01*
X444452Y401432D01*
X444377Y401385D01*
X444134Y401342D01*
X443910Y401299D01*
X441931Y400930D01*
X441843Y400882D01*
X441789Y400799D01*
X441761Y400739D01*
Y400728D01*
X441046Y398955D01*
X441041Y398943D01*
X441024Y398900D01*
X441007Y398799D01*
X441035Y398705D01*
X442164Y397073D01*
X442288Y396882D01*
X442429Y396681D01*
X442448Y396595D01*
X442407Y396513D01*
X442239Y396334D01*
X442077Y396177D01*
X440759Y394859D01*
X440585Y394691D01*
X440503Y394650D01*
X440417Y394668D01*
X440216Y394810D01*
X440025Y394934D01*
X438431Y396031D01*
X438332Y396060D01*
X438235Y396041D01*
X437904Y395857D01*
X437710Y395748D01*
X437363Y395570D01*
X437278Y395564D01*
X437216Y395624D01*
X437070Y395981D01*
X436982Y396188D01*
X435599Y399546D01*
X435511Y399752D01*
X435414Y399985D01*
X435410Y400080D01*
X435463Y400153D01*
X435686Y400284D01*
X435827Y400392D01*
X436363Y400838D01*
X436778Y401402D01*
X437045Y402061D01*
X437139Y402791D01*
X437081Y403366D01*
X436916Y403900D01*
X436653Y404385D01*
X436304Y404807D01*
X435884Y405156D01*
X435400Y405420D01*
X434866Y405585D01*
X434292Y405643D01*
X433717Y405585D01*
X433182Y405420D01*
X432699Y405156D01*
X432277Y404807D01*
X431929Y404385D01*
X431667Y403900D01*
X431502Y403366D01*
X431443Y402791D01*
X431536Y402061D01*
X431803Y401402D01*
X432217Y400838D01*
X432756Y400392D01*
X432892Y400284D01*
X433114Y400153D01*
X433168Y400080D01*
X433163Y399985D01*
X433066Y399752D01*
X432978Y399546D01*
X431595Y396188D01*
X431509Y395981D01*
X431361Y395624D01*
X431300Y395564D01*
X431216Y395570D01*
X430874Y395748D01*
X430673Y395857D01*
X430342Y396041D01*
X430243Y396060D01*
X430146Y396031D01*
X428552Y394934D01*
X428367Y394810D01*
X428161Y394668D01*
X428074Y394650D01*
X427992Y394691D01*
X427818Y394859D01*
X427661Y395021D01*
X427163Y395520D01*
X427000Y395678D01*
X426500Y396177D01*
X426338Y396334D01*
X426170Y396513D01*
X426131Y396595D01*
X426153Y396681D01*
X426289Y396882D01*
X426420Y397073D01*
X427542Y398705D01*
X427570Y398799D01*
X427553Y398900D01*
X427531Y398960D01*
X426821Y400734D01*
X426788Y400799D01*
X426734Y400882D01*
X426648Y400930D01*
X424667Y401299D01*
X424445Y401342D01*
X424206Y401385D01*
X424127Y401435D01*
X424098Y401521D01*
Y404098D01*
X424127Y404181D01*
X424206Y404228D01*
X424445Y404277D01*
X424667Y404314D01*
X426707Y404695D01*
X426796Y404742D01*
X426859Y404825D01*
X426896Y404911D01*
X427585Y406517D01*
X427624Y406616D01*
X427641Y406713D01*
X427613Y406805D01*
X426420Y408546D01*
X426289Y408731D01*
X426153Y408932D01*
X426131Y409021D01*
X426170Y409106D01*
X426338Y409280D01*
X426500Y409437D01*
X427992Y410928D01*
X428074Y410964D01*
X428161Y410945D01*
X428367Y410809D01*
X428552Y410678D01*
X430325Y409459D01*
X430423Y409430D01*
X430521Y409448D01*
X430607Y409480D01*
X430618Y409485D01*
X431364Y409839D01*
X432154Y410114D01*
X432257Y410153D01*
X432341Y410211D01*
X432386Y410299D01*
X432784Y412431D01*
X432821Y412653D01*
X432870Y412892D01*
X432917Y412968D01*
X433000Y413000D01*
G37*
G54D104*X650000Y340000D02*X100000D01*
X417120Y408800D02*X419280D01*
X420000Y409520D02*X419280Y408800D01*
X420000Y409520D02*Y413840D01*
X419280Y414560D01*
X417120D02*X419280D01*
X415392Y409520D02*Y413840D01*
X414672Y414560D01*
X413232D02*X414672D01*
X413232D02*X412512Y413840D01*
Y409520D02*Y413840D01*
X413232Y408800D02*X412512Y409520D01*
X413232Y408800D02*X414672D01*
X415392Y409520D02*X414672Y408800D01*
X407904Y414560D02*X407184Y413840D01*
X407904Y414560D02*X410064D01*
X410784Y413840D02*X410064Y414560D01*
X410784Y412400D02*Y413840D01*
Y412400D02*X410064Y411680D01*
X407904D02*X410064D01*
X407904D02*X407184Y410960D01*
Y409520D02*Y410960D01*
X407904Y408800D02*X407184Y409520D01*
X407904Y408800D02*X410064D01*
X410784Y409520D02*X410064Y408800D01*
X405456D02*Y414560D01*
X403296Y412400D01*
X401136Y414560D01*
Y408800D02*Y414560D01*
X399408Y408800D02*Y413840D01*
X398688Y414560D01*
X396528D02*X398688D01*
X396528D02*X395808Y413840D01*
Y408800D02*Y413840D01*
Y411680D02*X399408D01*
X391200Y408800D02*X393360D01*
X394080Y409520D02*X393360Y408800D01*
X394080Y409520D02*Y413840D01*
X393360Y414560D01*
X391200D02*X393360D01*
X384720Y411680D02*X386880D01*
X384000Y408800D02*X386880D01*
Y414560D01*
X384000D02*X386880D01*
X382272Y408800D02*Y414560D01*
X379392Y408800D02*X382272D01*
X377664D02*Y414560D01*
X374784D02*X377664D01*
X375504Y411680D02*X377664D01*
X370464Y408800D02*Y414560D01*
Y409520D02*X369744Y408800D01*
X368304D02*X369744D01*
X368304D02*X367584Y409520D01*
Y410960D01*
X368304Y411680D02*X367584Y410960D01*
X368304Y411680D02*X369744D01*
X370464Y410960D02*X369744Y411680D01*
X365856Y409520D02*Y411680D01*
Y409520D02*X365136Y408800D01*
X362976Y407360D02*Y411680D01*
X363696Y406640D02*X362976Y407360D01*
X363696Y406640D02*X365136D01*
X365856Y407360D02*X365136Y406640D01*
X363696Y408800D02*X365136D01*
X363696D02*X362976Y409520D01*
X356496Y414560D02*X358656D01*
X356496Y409520D02*Y414560D01*
X357216Y408800D02*X356496Y409520D01*
X357216Y408800D02*X357936D01*
X358656Y409520D02*X357936Y408800D01*
X354768Y409520D02*Y410960D01*
X354048Y411680D01*
X352608D02*X354048D01*
X352608D02*X351888Y410960D01*
Y409520D02*Y410960D01*
X352608Y408800D02*X351888Y409520D01*
X352608Y408800D02*X354048D01*
X354768Y409520D02*X354048Y408800D01*
X347280D02*X349440D01*
X347280D02*X346560Y409520D01*
X347280Y410240D02*X346560Y409520D01*
X347280Y410240D02*X349440D01*
X350160Y410960D02*X349440Y410240D01*
X350160Y410960D02*X349440Y411680D01*
X347280D02*X349440D01*
X347280D02*X346560Y410960D01*
X350160Y409520D02*X349440Y408800D01*
X341952D02*X344112D01*
X344832Y409520D02*X344112Y408800D01*
X344832Y409520D02*Y410960D01*
X344112Y411680D01*
X342672D02*X344112D01*
X342672D02*X341952Y410960D01*
Y410240D02*X344832D01*
X341952D02*Y410960D01*
X339504Y406640D02*Y410960D01*
X340224Y411680D02*X339504Y410960D01*
X338784Y411680D01*
X337344D02*X338784D01*
X337344D02*X336624Y410960D01*
Y409520D02*Y410960D01*
X337344Y408800D02*X336624Y409520D01*
X337344Y408800D02*X338784D01*
X339504Y409520D02*X338784Y408800D01*
X334896D02*Y414560D01*
Y410960D02*X334176Y411680D01*
X332736D02*X334176D01*
X332736D02*X332016Y410960D01*
Y408800D02*Y410960D01*
X327696Y408800D02*Y414560D01*
Y408800D02*X325536Y410960D01*
X323376Y408800D01*
Y414560D01*
X318768Y408800D02*X320928D01*
X321648Y409520D02*X320928Y408800D01*
X321648Y409520D02*Y410960D01*
X320928Y411680D01*
X319488D02*X320928D01*
X319488D02*X318768Y410960D01*
Y410240D02*X321648D01*
X318768D02*Y410960D01*
X317040Y412400D02*Y413120D01*
Y408800D02*Y410960D01*
X312720Y408800D02*X314880D01*
X312720D02*X312000Y409520D01*
X312720Y410240D02*X312000Y409520D01*
X312720Y410240D02*X314880D01*
X315600Y410960D02*X314880Y410240D01*
X315600Y410960D02*X314880Y411680D01*
X312720D02*X314880D01*
X312720D02*X312000Y410960D01*
X315600Y409520D02*X314880Y408800D01*
X310272D02*Y414560D01*
Y409520D02*X309552Y408800D01*
X308112D02*X309552D01*
X308112D02*X307392Y409520D01*
Y410960D01*
X308112Y411680D02*X307392Y410960D01*
X308112Y411680D02*X309552D01*
X310272Y410960D02*X309552Y411680D01*
X302784Y408800D02*X304944D01*
X305664Y409520D02*X304944Y408800D01*
X305664Y409520D02*Y410960D01*
X304944Y411680D01*
X303504D02*X304944D01*
X303504D02*X302784Y410960D01*
Y410240D02*X305664D01*
X302784D02*Y410960D01*
X298176Y411680D02*X300336D01*
X301056Y410960D02*X300336Y411680D01*
X301056Y409520D02*Y410960D01*
Y409520D02*X300336Y408800D01*
X298176D02*X300336D01*
X296448D02*Y414560D01*
Y410960D02*X294288Y408800D01*
X296448Y410960D02*X295008Y412400D01*
X289680Y408800D02*X291840D01*
X292560Y409520D02*X291840Y408800D01*
X292560Y409520D02*Y410960D01*
X291840Y411680D01*
X290400D02*X291840D01*
X290400D02*X289680Y410960D01*
Y410240D02*X292560D01*
X289680D02*Y410960D01*
X287232Y408800D02*Y410960D01*
X286512Y411680D01*
X285072D02*X286512D01*
X287952D02*X287232Y410960D01*
X419280Y398800D02*Y404560D01*
X417120D02*X420000D01*
X417120D02*X416400Y403840D01*
Y402400D02*Y403840D01*
X417120Y401680D02*X416400Y402400D01*
X417120Y401680D02*X419280D01*
X414672Y399520D02*Y400960D01*
X413952Y401680D01*
X412512D02*X413952D01*
X412512D02*X411792Y400960D01*
Y399520D02*Y400960D01*
X412512Y398800D02*X411792Y399520D01*
X412512Y398800D02*X413952D01*
X414672Y399520D02*X413952Y398800D01*
X409344Y396640D02*Y400960D01*
X410064Y401680D02*X409344Y400960D01*
X408624Y401680D01*
X407184D02*X408624D01*
X407184D02*X406464Y400960D01*
Y399520D02*Y400960D01*
X407184Y398800D02*X406464Y399520D01*
X407184Y398800D02*X408624D01*
X409344Y399520D02*X408624Y398800D01*
X404736Y399520D02*Y401680D01*
Y399520D02*X404016Y398800D01*
X402576D02*X404016D01*
X402576D02*X401856Y399520D01*
Y401680D01*
X400128Y399520D02*Y404560D01*
Y399520D02*X399408Y398800D01*
X395808Y401680D02*X395088Y400960D01*
X395808Y401680D02*X397248D01*
X397968Y400960D02*X397248Y401680D01*
X397968Y399520D02*Y400960D01*
Y399520D02*X397248Y398800D01*
X395088Y399520D02*Y401680D01*
Y399520D02*X394368Y398800D01*
X395808D02*X397248D01*
X395808D02*X395088Y399520D01*
X391920Y398800D02*Y400960D01*
X391200Y401680D01*
X389760D02*X391200D01*
X392640D02*X391920Y400960D01*
X383280Y401680D02*X385440D01*
X382560Y398800D02*X385440D01*
Y404560D01*
X382560D02*X385440D01*
X380832Y399520D02*Y404560D01*
Y399520D02*X380112Y398800D01*
X375792D02*X377952D01*
X378672Y399520D02*X377952Y398800D01*
X378672Y399520D02*Y400960D01*
X377952Y401680D01*
X376512D02*X377952D01*
X376512D02*X375792Y400960D01*
Y400240D02*X378672D01*
X375792D02*Y400960D01*
X371184Y401680D02*X373344D01*
X374064Y400960D02*X373344Y401680D01*
X374064Y399520D02*Y400960D01*
Y399520D02*X373344Y398800D01*
X371184D02*X373344D01*
X368736Y399520D02*Y404560D01*
Y399520D02*X368016Y398800D01*
Y402400D02*X369456D01*
X365856Y398800D02*Y400960D01*
X365136Y401680D01*
X363696D02*X365136D01*
X366576D02*X365856Y400960D01*
X361968Y399520D02*Y400960D01*
X361248Y401680D01*
X359808D02*X361248D01*
X359808D02*X359088Y400960D01*
Y399520D02*Y400960D01*
X359808Y398800D02*X359088Y399520D01*
X359808Y398800D02*X361248D01*
X361968Y399520D02*X361248Y398800D01*
X356640D02*Y400960D01*
X355920Y401680D01*
X355200D02*X355920D01*
X355200D02*X354480Y400960D01*
Y398800D02*Y400960D01*
X357360Y401680D02*X356640Y400960D01*
X352752Y402400D02*Y403120D01*
Y398800D02*Y400960D01*
X348432Y401680D02*X350592D01*
X351312Y400960D02*X350592Y401680D01*
X351312Y399520D02*Y400960D01*
Y399520D02*X350592Y398800D01*
X348432D02*X350592D01*
X343824D02*X345984D01*
X343824D02*X343104Y399520D01*
X343824Y400240D02*X343104Y399520D01*
X343824Y400240D02*X345984D01*
X346704Y400960D02*X345984Y400240D01*
X346704Y400960D02*X345984Y401680D01*
X343824D02*X345984D01*
X343824D02*X343104Y400960D01*
X346704Y399520D02*X345984Y398800D01*
X336624D02*X338064D01*
X337344D02*Y404560D01*
X338784Y403120D02*X337344Y404560D01*
X334896Y398800D02*X332016Y401680D01*
Y403840D01*
X332736Y404560D02*X332016Y403840D01*
X332736Y404560D02*X334176D01*
X334896Y403840D02*X334176Y404560D01*
X334896Y402400D02*Y403840D01*
Y402400D02*X334176Y401680D01*
X332016D02*X334176D01*
X330288Y398800D02*X326688Y402400D01*
Y404560D01*
X330288D01*
X322800D02*X322080Y403840D01*
X322800Y404560D02*X324240D01*
X324960Y403840D02*X324240Y404560D01*
X324960Y399520D02*Y403840D01*
Y399520D02*X324240Y398800D01*
X322800Y401680D02*X322080Y400960D01*
X322800Y401680D02*X324960D01*
X322800Y398800D02*X324240D01*
X322800D02*X322080Y399520D01*
Y400960D01*
X420000Y389900D02*Y394780D01*
X418170Y392950D01*
X416340Y394780D01*
Y389900D02*Y394780D01*
X413046Y392340D02*X412436Y391730D01*
X413046Y392340D02*X414266D01*
X414876Y391730D02*X414266Y392340D01*
X414876Y390510D02*Y391730D01*
Y390510D02*X414266Y389900D01*
X412436Y390510D02*Y392340D01*
Y390510D02*X411826Y389900D01*
X413046D02*X414266D01*
X413046D02*X412436Y390510D01*
X408532Y392340D02*X407922Y391730D01*
X408532Y392340D02*X409752D01*
X410362Y391730D02*X409752Y392340D01*
X410362Y390510D02*Y391730D01*
Y390510D02*X409752Y389900D01*
X408532D02*X409752D01*
X408532D02*X407922Y390510D01*
X410362Y388680D02*X409752Y388070D01*
X408532D02*X409752D01*
X408532D02*X407922Y388680D01*
Y392340D01*
X406458Y392950D02*Y393560D01*
Y389900D02*Y391730D01*
X402798Y394780D02*X402188Y394170D01*
X402798Y394780D02*X404628D01*
X405238Y394170D02*X404628Y394780D01*
X405238Y392950D02*Y394170D01*
Y392950D02*X404628Y392340D01*
X402798D02*X404628D01*
X402798D02*X402188Y391730D01*
Y390510D02*Y391730D01*
X402798Y389900D02*X402188Y390510D01*
X402798Y389900D02*X404628D01*
X405238Y390510D02*X404628Y389900D01*
X400114D02*Y391730D01*
X399504Y392340D01*
X398894D02*X399504D01*
X398894D02*X398284Y391730D01*
Y389900D02*Y391730D01*
X397674Y392340D01*
X397064D02*X397674D01*
X397064D02*X396454Y391730D01*
Y389900D02*Y391730D01*
X400724Y392340D02*X400114Y391730D01*
X394990Y390510D02*Y391730D01*
X394380Y392340D01*
X393160D02*X394380D01*
X393160D02*X392550Y391730D01*
Y390510D02*Y391730D01*
X393160Y389900D02*X392550Y390510D01*
X393160Y389900D02*X394380D01*
X394990Y390510D02*X394380Y389900D01*
X391086D02*Y394780D01*
Y391730D02*X389256Y389900D01*
X391086Y391730D02*X389866Y392950D01*
X385352Y389900D02*X387182D01*
X387792Y390510D02*X387182Y389900D01*
X387792Y390510D02*Y391730D01*
X387182Y392340D01*
X385962D02*X387182D01*
X385962D02*X385352Y391730D01*
Y391120D02*X387792D01*
X385352D02*Y391730D01*
X379862Y392340D02*X381692D01*
X379252Y389900D02*X381692D01*
Y394780D01*
X379252D02*X381692D01*
X377788Y390510D02*Y394780D01*
Y390510D02*X377178Y389900D01*
X373518D02*X375348D01*
X375958Y390510D02*X375348Y389900D01*
X375958Y390510D02*Y391730D01*
X375348Y392340D01*
X374128D02*X375348D01*
X374128D02*X373518Y391730D01*
Y391120D02*X375958D01*
X373518D02*Y391730D01*
X369614Y392340D02*X371444D01*
X372054Y391730D02*X371444Y392340D01*
X372054Y390510D02*Y391730D01*
Y390510D02*X371444Y389900D01*
X369614D02*X371444D01*
X367540Y390510D02*Y394780D01*
Y390510D02*X366930Y389900D01*
Y392950D02*X368150D01*
X365100Y389900D02*Y391730D01*
X364490Y392340D01*
X363270D02*X364490D01*
X365710D02*X365100Y391730D01*
X361806Y390510D02*Y391730D01*
X361196Y392340D01*
X359976D02*X361196D01*
X359976D02*X359366Y391730D01*
Y390510D02*Y391730D01*
X359976Y389900D02*X359366Y390510D01*
X359976Y389900D02*X361196D01*
X361806Y390510D02*X361196Y389900D01*
X357292D02*Y391730D01*
X356682Y392340D01*
X356072D02*X356682D01*
X356072D02*X355462Y391730D01*
Y389900D02*Y391730D01*
X357902Y392340D02*X357292Y391730D01*
X353998Y392950D02*Y393560D01*
Y389900D02*Y391730D01*
X350338Y392340D02*X352168D01*
X352778Y391730D02*X352168Y392340D01*
X352778Y390510D02*Y391730D01*
Y390510D02*X352168Y389900D01*
X350338D02*X352168D01*
X346434D02*X348264D01*
X346434D02*X345824Y390510D01*
X346434Y391120D02*X345824Y390510D01*
X346434Y391120D02*X348264D01*
X348874Y391730D02*X348264Y391120D01*
X348874Y391730D02*X348264Y392340D01*
X346434D02*X348264D01*
X346434D02*X345824Y391730D01*
X348874Y390510D02*X348264Y389900D01*
X342164Y394170D02*X341554Y394780D01*
X339724D02*X341554D01*
X339724D02*X339114Y394170D01*
Y392950D02*Y394170D01*
X342164Y389900D02*X339114Y392950D01*
Y389900D02*X342164D01*
X337650Y390510D02*X337040Y389900D01*
X337650Y390510D02*Y394170D01*
X337040Y394780D01*
X335820D02*X337040D01*
X335820D02*X335210Y394170D01*
Y390510D02*Y394170D01*
X335820Y389900D02*X335210Y390510D01*
X335820Y389900D02*X337040D01*
X337650Y391120D02*X335210Y393560D01*
X331916Y389900D02*X333136D01*
X332526D02*Y394780D01*
X333746Y393560D02*X332526Y394780D01*
X328622D02*X328012Y394170D01*
X328622Y394780D02*X329842D01*
X330452Y394170D02*X329842Y394780D01*
X330452Y390510D02*Y394170D01*
Y390510D02*X329842Y389900D01*
X328622Y392340D02*X328012Y391730D01*
X328622Y392340D02*X330452D01*
X328622Y389900D02*X329842D01*
X328622D02*X328012Y390510D01*
Y391730D01*
M02*
