G04 start of page 8 for group -4079 idx -4079 *
G04 Title: (unknown), topsilk *
G04 Creator: pcb 20140316 *
G04 CreationDate: Tue 18 Oct 2016 08:42:36 AM GMT UTC *
G04 For: atommann *
G04 Format: Gerber/RS-274X *
G04 PCB-Dimensions (mil): 8000.00 8000.00 *
G04 PCB-Coordinate-Origin: lower left *
%MOIN*%
%FSLAX25Y25*%
%LNTOPSILK*%
%ADD46C,0.0150*%
%ADD45C,0.0300*%
%ADD44C,0.0050*%
%ADD43C,0.0100*%
%ADD42C,0.0001*%
G54D42*G36*
X363000Y260000D02*X365577D01*
X365660Y259968D01*
X365707Y259892D01*
X365756Y259653D01*
X365800Y259431D01*
X366191Y257299D01*
X366238Y257211D01*
X366321Y257153D01*
X366424Y257109D01*
X367214Y256838D01*
X367964Y256480D01*
X367970D01*
X368057Y256442D01*
X368154Y256428D01*
X368252Y256459D01*
X370025Y257678D01*
X370216Y257803D01*
X370417Y257939D01*
X370503Y257964D01*
X370585Y257928D01*
X370916Y257598D01*
X371420Y257098D01*
X371578Y256935D01*
X372077Y256437D01*
X372239Y256280D01*
X372407Y256106D01*
X372446Y256021D01*
X372424Y255932D01*
X372288Y255731D01*
X372159Y255541D01*
X370970Y253805D01*
X370938Y253713D01*
X370953Y253616D01*
X370998Y253517D01*
X371681Y251911D01*
X371718Y251820D01*
X371781Y251742D01*
X371871Y251695D01*
X373910Y251314D01*
X374134Y251271D01*
X374377Y251228D01*
X374452Y251181D01*
X374481Y251098D01*
Y248521D01*
X374452Y248432D01*
X374377Y248385D01*
X374134Y248342D01*
X373910Y248299D01*
X371931Y247930D01*
X371843Y247882D01*
X371789Y247799D01*
X371761Y247739D01*
Y247728D01*
X371046Y245955D01*
X371041Y245943D01*
X371024Y245900D01*
X371007Y245799D01*
X371035Y245705D01*
X372164Y244073D01*
X372288Y243882D01*
X372429Y243681D01*
X372448Y243595D01*
X372407Y243513D01*
X372239Y243334D01*
X372077Y243177D01*
X370759Y241859D01*
X370585Y241691D01*
X370503Y241650D01*
X370417Y241668D01*
X370216Y241810D01*
X370025Y241934D01*
X368431Y243031D01*
X368332Y243060D01*
X368235Y243041D01*
X367904Y242857D01*
X367710Y242748D01*
X367363Y242570D01*
X367278Y242564D01*
X367216Y242624D01*
X367070Y242981D01*
X366982Y243188D01*
X365599Y246546D01*
X365511Y246752D01*
X365414Y246985D01*
X365410Y247080D01*
X365463Y247153D01*
X365686Y247284D01*
X365827Y247392D01*
X366363Y247838D01*
X366778Y248402D01*
X367045Y249061D01*
X367139Y249791D01*
X367081Y250366D01*
X366916Y250900D01*
X366653Y251385D01*
X366304Y251807D01*
X365884Y252156D01*
X365400Y252420D01*
X364866Y252585D01*
X364292Y252643D01*
X363717Y252585D01*
X363182Y252420D01*
X362699Y252156D01*
X362277Y251807D01*
X361929Y251385D01*
X361667Y250900D01*
X361502Y250366D01*
X361443Y249791D01*
X361536Y249061D01*
X361803Y248402D01*
X362217Y247838D01*
X362756Y247392D01*
X362892Y247284D01*
X363114Y247153D01*
X363168Y247080D01*
X363163Y246985D01*
X363066Y246752D01*
X362978Y246546D01*
X361595Y243188D01*
X361509Y242981D01*
X361361Y242624D01*
X361300Y242564D01*
X361216Y242570D01*
X360874Y242748D01*
X360673Y242857D01*
X360342Y243041D01*
X360243Y243060D01*
X360146Y243031D01*
X358552Y241934D01*
X358367Y241810D01*
X358161Y241668D01*
X358074Y241650D01*
X357992Y241691D01*
X357818Y241859D01*
X357661Y242021D01*
X357163Y242520D01*
X357000Y242678D01*
X356500Y243177D01*
X356338Y243334D01*
X356170Y243513D01*
X356131Y243595D01*
X356153Y243681D01*
X356289Y243882D01*
X356420Y244073D01*
X357542Y245705D01*
X357570Y245799D01*
X357553Y245900D01*
X357531Y245960D01*
X356821Y247734D01*
X356788Y247799D01*
X356734Y247882D01*
X356648Y247930D01*
X354667Y248299D01*
X354445Y248342D01*
X354206Y248385D01*
X354127Y248435D01*
X354098Y248521D01*
Y251098D01*
X354127Y251181D01*
X354206Y251228D01*
X354445Y251277D01*
X354667Y251314D01*
X356707Y251695D01*
X356796Y251742D01*
X356859Y251825D01*
X356896Y251911D01*
X357585Y253517D01*
X357624Y253616D01*
X357641Y253713D01*
X357613Y253805D01*
X356420Y255546D01*
X356289Y255731D01*
X356153Y255932D01*
X356131Y256021D01*
X356170Y256106D01*
X356338Y256280D01*
X356500Y256437D01*
X357992Y257928D01*
X358074Y257964D01*
X358161Y257945D01*
X358367Y257809D01*
X358552Y257678D01*
X360325Y256459D01*
X360423Y256430D01*
X360521Y256448D01*
X360607Y256480D01*
X360618Y256485D01*
X361364Y256839D01*
X362154Y257114D01*
X362257Y257153D01*
X362341Y257211D01*
X362386Y257299D01*
X362784Y259431D01*
X362821Y259653D01*
X362870Y259892D01*
X362917Y259968D01*
X363000Y260000D01*
G37*
G54D43*X190000Y300000D02*X150000D01*
X190000Y100000D02*X150000D01*
Y300000D02*Y100000D01*
X660000Y300000D02*X700000D01*
Y100000D01*
X660000D02*X700000D01*
G54D44*X248000Y283000D02*X249000D01*
X248500D02*Y279000D01*
X248000D02*X249000D01*
X250200Y283000D02*Y279000D01*
Y283000D02*Y282500D01*
X252700Y280000D01*
Y283000D02*Y279000D01*
X293000Y283000D02*Y279000D01*
X295000D01*
X296200Y282500D02*Y279500D01*
Y282500D02*X296700Y283000D01*
X297700D01*
X298200Y282500D01*
Y279500D01*
X297700Y279000D02*X298200Y279500D01*
X296700Y279000D02*X297700D01*
X296200Y279500D02*X296700Y279000D01*
X299400Y282500D02*Y279000D01*
Y282500D02*X299900Y283000D01*
X301400D01*
X301900Y282500D01*
Y279000D01*
X299400Y281000D02*X301900D01*
X303600Y283000D02*Y279000D01*
X305100Y283000D02*X305600Y282500D01*
Y279500D01*
X305100Y279000D02*X305600Y279500D01*
X303100Y279000D02*X305100D01*
X303100Y283000D02*X305100D01*
X249000Y183000D02*X251500Y185500D01*
Y187000D02*Y185500D01*
X249000Y187000D02*X251500D01*
X449000Y186500D02*X449500Y187000D01*
X450500D01*
X451000Y186500D01*
Y183500D01*
X450500Y183000D02*X451000Y183500D01*
X449500Y183000D02*X450500D01*
X449000Y183500D02*X449500Y183000D01*
Y185000D02*X451000D01*
X300500Y187000D02*X301000Y186500D01*
X299500Y187000D02*X300500D01*
X299000Y186500D02*X299500Y187000D01*
X299000Y186500D02*Y183500D01*
X299500Y183000D01*
X300500Y185000D02*X301000Y184500D01*
X299000Y185000D02*X300500D01*
X299500Y183000D02*X300500D01*
X301000Y183500D01*
Y184500D02*Y183500D01*
X399000Y185000D02*X401000Y187000D01*
X399000Y185000D02*X401500D01*
X401000Y187000D02*Y183000D01*
X349000Y187000D02*X351000D01*
X349000D02*Y185000D01*
X349500Y185500D01*
X350500D01*
X351000Y185000D01*
Y183500D01*
X350500Y183000D02*X351000Y183500D01*
X349500Y183000D02*X350500D01*
X349000Y183500D02*X349500Y183000D01*
X378500Y254000D02*X380000D01*
X378000Y254500D02*X378500Y254000D01*
X378000Y257500D02*Y254500D01*
Y257500D02*X378500Y258000D01*
X380000D01*
X381200Y257500D02*Y254500D01*
Y257500D02*X381700Y258000D01*
X382700D01*
X383200Y257500D01*
Y254500D01*
X382700Y254000D02*X383200Y254500D01*
X381700Y254000D02*X382700D01*
X381200Y254500D02*X381700Y254000D01*
X386400Y258000D02*X386900Y257500D01*
X384900Y258000D02*X386400D01*
X384400Y257500D02*X384900Y258000D01*
X384400Y257500D02*Y256500D01*
X384900Y256000D01*
X386400D01*
X386900Y255500D01*
Y254500D01*
X386400Y254000D02*X386900Y254500D01*
X384900Y254000D02*X386400D01*
X384400Y254500D02*X384900Y254000D01*
X388100Y258000D02*Y254000D01*
Y258000D02*X389600Y256500D01*
X391100Y258000D01*
Y254000D01*
X392300Y257500D02*Y254000D01*
Y257500D02*X392800Y258000D01*
X394300D01*
X394800Y257500D01*
Y254000D01*
X392300Y256000D02*X394800D01*
X396500Y254000D02*X398000D01*
X396000Y254500D02*X396500Y254000D01*
X396000Y257500D02*Y254500D01*
Y257500D02*X396500Y258000D01*
X398000D01*
X401000Y256000D02*X402500D01*
X401000Y254000D02*X403000D01*
X401000Y258000D02*Y254000D01*
Y258000D02*X403000D01*
X404200D02*Y254000D01*
X406200D01*
X407400Y258000D02*Y254000D01*
Y258000D02*X409400D01*
X407400Y256000D02*X408900D01*
X414400Y258000D02*X414900Y257500D01*
X412900Y258000D02*X414400D01*
X412400Y257500D02*X412900Y258000D01*
X412400Y257500D02*Y256500D01*
X412900Y256000D01*
X414400D01*
X414900Y255500D01*
Y254500D01*
X414400Y254000D02*X414900Y254500D01*
X412900Y254000D02*X414400D01*
X412400Y254500D02*X412900Y254000D01*
X416100Y256000D02*Y254500D01*
X416600Y254000D01*
X417100D01*
X417600Y254500D01*
Y256000D02*Y254500D01*
X418100Y254000D01*
X418600D01*
X419100Y254500D01*
Y256000D02*Y254500D01*
X420300Y257000D02*Y256500D01*
Y255500D02*Y254000D01*
X421800Y258000D02*Y254500D01*
X422300Y254000D01*
X421300Y256500D02*X422300D01*
X423800Y256000D02*X425300D01*
X423300Y255500D02*X423800Y256000D01*
X423300Y255500D02*Y254500D01*
X423800Y254000D01*
X425300D01*
X426500Y258000D02*Y254000D01*
Y255500D02*X427000Y256000D01*
X428000D01*
X428500Y255500D01*
Y254000D01*
X431500D02*X433500D01*
X434000Y254500D01*
Y255500D02*Y254500D01*
X433500Y256000D02*X434000Y255500D01*
X432000Y256000D02*X433500D01*
X432000Y258000D02*Y254000D01*
X431500Y258000D02*X433500D01*
X434000Y257500D01*
Y256500D01*
X433500Y256000D02*X434000Y256500D01*
X435200Y255500D02*Y254500D01*
Y255500D02*X435700Y256000D01*
X436700D01*
X437200Y255500D01*
Y254500D01*
X436700Y254000D02*X437200Y254500D01*
X435700Y254000D02*X436700D01*
X435200Y254500D02*X435700Y254000D01*
X439900Y256000D02*X440400Y255500D01*
X438900Y256000D02*X439900D01*
X438400Y255500D02*X438900Y256000D01*
X438400Y255500D02*Y254500D01*
X438900Y254000D01*
X440400Y256000D02*Y254500D01*
X440900Y254000D01*
X438900D02*X439900D01*
X440400Y254500D01*
X442600Y255500D02*Y254000D01*
Y255500D02*X443100Y256000D01*
X444100D01*
X442100D02*X442600Y255500D01*
X447300Y258000D02*Y254000D01*
X446800D02*X447300Y254500D01*
X445800Y254000D02*X446800D01*
X445300Y254500D02*X445800Y254000D01*
X445300Y255500D02*Y254500D01*
Y255500D02*X445800Y256000D01*
X446800D01*
X447300Y255500D01*
X378000Y249000D02*Y245000D01*
Y249000D02*X379500Y247500D01*
X381000Y249000D01*
Y245000D01*
X383700Y247000D02*X384200Y246500D01*
X382700Y247000D02*X383700D01*
X382200Y246500D02*X382700Y247000D01*
X382200Y246500D02*Y245500D01*
X382700Y245000D01*
X384200Y247000D02*Y245500D01*
X384700Y245000D01*
X382700D02*X383700D01*
X384200Y245500D01*
X387400Y247000D02*X387900Y246500D01*
X386400Y247000D02*X387400D01*
X385900Y246500D02*X386400Y247000D01*
X385900Y246500D02*Y245500D01*
X386400Y245000D01*
X387400D01*
X387900Y245500D01*
X385900Y244000D02*X386400Y243500D01*
X387400D01*
X387900Y244000D01*
Y247000D02*Y244000D01*
X389100Y248000D02*Y247500D01*
Y246500D02*Y245000D01*
X392100Y249000D02*X392600Y248500D01*
X390600Y249000D02*X392100D01*
X390100Y248500D02*X390600Y249000D01*
X390100Y248500D02*Y247500D01*
X390600Y247000D01*
X392100D01*
X392600Y246500D01*
Y245500D01*
X392100Y245000D02*X392600Y245500D01*
X390600Y245000D02*X392100D01*
X390100Y245500D02*X390600Y245000D01*
X394300Y246500D02*Y245000D01*
Y246500D02*X394800Y247000D01*
X395300D01*
X395800Y246500D01*
Y245000D01*
Y246500D02*X396300Y247000D01*
X396800D01*
X397300Y246500D01*
Y245000D01*
X393800Y247000D02*X394300Y246500D01*
X398500D02*Y245500D01*
Y246500D02*X399000Y247000D01*
X400000D01*
X400500Y246500D01*
Y245500D01*
X400000Y245000D02*X400500Y245500D01*
X399000Y245000D02*X400000D01*
X398500Y245500D02*X399000Y245000D01*
X401700Y249000D02*Y245000D01*
Y246500D02*X403200Y245000D01*
X401700Y246500D02*X402700Y247500D01*
X404900Y245000D02*X406400D01*
X404400Y245500D02*X404900Y245000D01*
X404400Y246500D02*Y245500D01*
Y246500D02*X404900Y247000D01*
X405900D01*
X406400Y246500D01*
X404400Y246000D02*X406400D01*
Y246500D02*Y246000D01*
X409400Y247000D02*X410900D01*
X409400Y245000D02*X411400D01*
X409400Y249000D02*Y245000D01*
Y249000D02*X411400D01*
X412600D02*Y245500D01*
X413100Y245000D01*
X414600D02*X416100D01*
X414100Y245500D02*X414600Y245000D01*
X414100Y246500D02*Y245500D01*
Y246500D02*X414600Y247000D01*
X415600D01*
X416100Y246500D01*
X414100Y246000D02*X416100D01*
Y246500D02*Y246000D01*
X417800Y247000D02*X419300D01*
X417300Y246500D02*X417800Y247000D01*
X417300Y246500D02*Y245500D01*
X417800Y245000D01*
X419300D01*
X421000Y249000D02*Y245500D01*
X421500Y245000D01*
X420500Y247500D02*X421500D01*
X423000Y246500D02*Y245000D01*
Y246500D02*X423500Y247000D01*
X424500D01*
X422500D02*X423000Y246500D01*
X425700D02*Y245500D01*
Y246500D02*X426200Y247000D01*
X427200D01*
X427700Y246500D01*
Y245500D01*
X427200Y245000D02*X427700Y245500D01*
X426200Y245000D02*X427200D01*
X425700Y245500D02*X426200Y245000D01*
X429400Y246500D02*Y245000D01*
Y246500D02*X429900Y247000D01*
X430400D01*
X430900Y246500D01*
Y245000D01*
X428900Y247000D02*X429400Y246500D01*
X432100Y248000D02*Y247500D01*
Y246500D02*Y245000D01*
X433600Y247000D02*X435100D01*
X433100Y246500D02*X433600Y247000D01*
X433100Y246500D02*Y245500D01*
X433600Y245000D01*
X435100D01*
X436800D02*X438300D01*
X438800Y245500D01*
X438300Y246000D02*X438800Y245500D01*
X436800Y246000D02*X438300D01*
X436300Y246500D02*X436800Y246000D01*
X436300Y246500D02*X436800Y247000D01*
X438300D01*
X438800Y246500D01*
X436300Y245500D02*X436800Y245000D01*
X441800Y248500D02*X442300Y249000D01*
X443800D01*
X444300Y248500D01*
Y247500D01*
X441800Y245000D02*X444300Y247500D01*
X441800Y245000D02*X444300D01*
X445500Y245500D02*X446000Y245000D01*
X445500Y248500D02*Y245500D01*
Y248500D02*X446000Y249000D01*
X447000D01*
X447500Y248500D01*
Y245500D01*
X447000Y245000D02*X447500Y245500D01*
X446000Y245000D02*X447000D01*
X445500Y246000D02*X447500Y248000D01*
X449200Y245000D02*X450200D01*
X449700Y249000D02*Y245000D01*
X448700Y248000D02*X449700Y249000D01*
X452900D02*X453400Y248500D01*
X451900Y249000D02*X452900D01*
X451400Y248500D02*X451900Y249000D01*
X451400Y248500D02*Y245500D01*
X451900Y245000D01*
X452900Y247000D02*X453400Y246500D01*
X451400Y247000D02*X452900D01*
X451900Y245000D02*X452900D01*
X453400Y245500D01*
Y246500D02*Y245500D01*
X547000Y283000D02*Y279000D01*
Y283000D02*X548500Y281500D01*
X550000Y283000D01*
Y279000D01*
X551700Y283000D02*Y279000D01*
X551200Y283000D02*X553200D01*
X553700Y282500D01*
Y281500D01*
X553200Y281000D02*X553700Y281500D01*
X551700Y281000D02*X553200D01*
X595000Y283000D02*X597000D01*
X597500Y282500D01*
Y281500D01*
X597000Y281000D02*X597500Y281500D01*
X595500Y281000D02*X597000D01*
X595500Y283000D02*Y279000D01*
Y281000D02*X597500Y279000D01*
X598700Y283000D02*Y279500D01*
X599200Y279000D01*
X600200D01*
X600700Y279500D01*
Y283000D02*Y279500D01*
X601900Y283000D02*Y279000D01*
Y283000D02*Y282500D01*
X604400Y280000D01*
Y283000D02*Y279000D01*
X499000Y186500D02*X499500Y187000D01*
X501000D01*
X501500Y186500D01*
Y185500D01*
X499000Y183000D02*X501500Y185500D01*
X499000Y183000D02*X501500D01*
X549500D02*X550500D01*
X550000Y187000D02*Y183000D01*
X549000Y186000D02*X550000Y187000D01*
X599000Y183500D02*X599500Y183000D01*
X599000Y186500D02*Y183500D01*
Y186500D02*X599500Y187000D01*
X600500D01*
X601000Y186500D01*
Y183500D01*
X600500Y183000D02*X601000Y183500D01*
X599500Y183000D02*X600500D01*
X599000Y184000D02*X601000Y186000D01*
G54D43*X586000Y175500D02*Y124500D01*
Y175500D02*X614000D01*
Y124500D01*
X586000D02*X614000D01*
G54D45*X600000Y160500D02*Y158500D01*
G54D43*X589000Y131500D02*X593000D01*
Y132500D02*Y130500D01*
X589000Y131500D02*X590000Y130500D01*
G54D46*X600000Y138750D02*G75*G03X600000Y138750I0J11250D01*G01*
G54D43*X536000Y175500D02*Y124500D01*
Y175500D02*X564000D01*
Y124500D01*
X536000D02*X564000D01*
G54D45*X550000Y160500D02*Y158500D01*
G54D43*X539000Y131500D02*X543000D01*
Y132500D02*Y130500D01*
X539000Y131500D02*X540000Y130500D01*
G54D46*X550000Y138750D02*G75*G03X550000Y138750I0J11250D01*G01*
G54D43*X486000Y175500D02*Y124500D01*
Y175500D02*X514000D01*
Y124500D01*
X486000D02*X514000D01*
G54D45*X500000Y160500D02*Y158500D01*
G54D43*X489000Y131500D02*X493000D01*
Y132500D02*Y130500D01*
X489000Y131500D02*X490000Y130500D01*
G54D46*X500000Y138750D02*G75*G03X500000Y138750I0J11250D01*G01*
G54D43*X555000Y315000D02*X635000D01*
Y335000D02*Y315000D01*
X555000Y335000D02*X635000D01*
X555000D02*Y315000D01*
X565000Y325000D02*Y315000D01*
X555000Y325000D02*X565000D01*
X586000Y275500D02*Y224500D01*
Y275500D02*X614000D01*
Y224500D01*
X586000D02*X614000D01*
G54D45*X600000Y260500D02*Y258500D01*
G54D43*X589000Y231500D02*X593000D01*
Y232500D02*Y230500D01*
X589000Y231500D02*X590000Y230500D01*
G54D46*X600000Y238750D02*G75*G03X600000Y238750I0J11250D01*G01*
G54D43*X286000Y175500D02*Y124500D01*
Y175500D02*X314000D01*
Y124500D01*
X286000D02*X314000D01*
G54D45*X300000Y160500D02*Y158500D01*
G54D43*X289000Y131500D02*X293000D01*
Y132500D02*Y130500D01*
X289000Y131500D02*X290000Y130500D01*
G54D46*X300000Y138750D02*G75*G03X300000Y138750I0J11250D01*G01*
G54D43*X236000Y175500D02*Y124500D01*
Y175500D02*X264000D01*
Y124500D01*
X236000D02*X264000D01*
G54D45*X250000Y160500D02*Y158500D01*
G54D43*X239000Y131500D02*X243000D01*
Y132500D02*Y130500D01*
X239000Y131500D02*X240000Y130500D01*
G54D46*X250000Y138750D02*G75*G03X250000Y138750I0J11250D01*G01*
G54D43*X236000Y275500D02*Y224500D01*
Y275500D02*X264000D01*
Y224500D01*
X236000D02*X264000D01*
G54D45*X250000Y260500D02*Y258500D01*
G54D43*X239000Y231500D02*X243000D01*
Y232500D02*Y230500D01*
X239000Y231500D02*X240000Y230500D01*
G54D46*X250000Y238750D02*G75*G03X250000Y238750I0J11250D01*G01*
G54D43*X436000Y175500D02*Y124500D01*
Y175500D02*X464000D01*
Y124500D01*
X436000D02*X464000D01*
G54D45*X450000Y160500D02*Y158500D01*
G54D43*X439000Y131500D02*X443000D01*
Y132500D02*Y130500D01*
X439000Y131500D02*X440000Y130500D01*
G54D46*X450000Y138750D02*G75*G03X450000Y138750I0J11250D01*G01*
G54D43*X386000Y175500D02*Y124500D01*
Y175500D02*X414000D01*
Y124500D01*
X386000D02*X414000D01*
G54D45*X400000Y160500D02*Y158500D01*
G54D43*X389000Y131500D02*X393000D01*
Y132500D02*Y130500D01*
X389000Y131500D02*X390000Y130500D01*
G54D46*X400000Y138750D02*G75*G03X400000Y138750I0J11250D01*G01*
G54D43*X336000Y175500D02*Y124500D01*
Y175500D02*X364000D01*
Y124500D01*
X336000D02*X364000D01*
G54D45*X350000Y160500D02*Y158500D01*
G54D43*X339000Y131500D02*X343000D01*
Y132500D02*Y130500D01*
X339000Y131500D02*X340000Y130500D01*
G54D46*X350000Y138750D02*G75*G03X350000Y138750I0J11250D01*G01*
G54D43*X536000Y275500D02*Y224500D01*
Y275500D02*X564000D01*
Y224500D01*
X536000D02*X564000D01*
G54D45*X550000Y260500D02*Y258500D01*
G54D43*X539000Y231500D02*X543000D01*
Y232500D02*Y230500D01*
X539000Y231500D02*X540000Y230500D01*
G54D46*X550000Y238750D02*G75*G03X550000Y238750I0J11250D01*G01*
G54D43*X286000Y275500D02*Y224500D01*
Y275500D02*X314000D01*
Y224500D01*
X286000D02*X314000D01*
G54D45*X300000Y260500D02*Y258500D01*
G54D43*X289000Y231500D02*X293000D01*
Y232500D02*Y230500D01*
X289000Y231500D02*X290000Y230500D01*
G54D46*X300000Y238750D02*G75*G03X300000Y238750I0J11250D01*G01*
G54D44*X642000Y234000D02*Y230000D01*
X644500Y234000D02*Y230000D01*
X642000Y232000D02*X644500D01*
X645700D02*X647700Y234000D01*
X645700Y232000D02*X648200D01*
X647700Y234000D02*Y230000D01*
X555000Y312000D02*X556500D01*
Y308500D01*
X556000Y308000D02*X556500Y308500D01*
X555500Y308000D02*X556000D01*
X555000Y308500D02*X555500Y308000D01*
X558200D02*X559200D01*
X558700Y312000D02*Y308000D01*
X557700Y311000D02*X558700Y312000D01*
X549000Y222000D02*X549500Y221500D01*
X547500Y222000D02*X549000D01*
X547000Y221500D02*X547500Y222000D01*
X547000Y221500D02*Y220500D01*
X547500Y220000D01*
X549000D01*
X549500Y219500D01*
Y218500D01*
X549000Y218000D02*X549500Y218500D01*
X547500Y218000D02*X549000D01*
X547000Y218500D02*X547500Y218000D01*
X550700Y221500D02*X551200Y222000D01*
X552200D01*
X552700Y221500D01*
Y218500D01*
X552200Y218000D02*X552700Y218500D01*
X551200Y218000D02*X552200D01*
X550700Y218500D02*X551200Y218000D01*
Y220000D02*X552700D01*
X599000Y222000D02*X599500Y221500D01*
X597500Y222000D02*X599000D01*
X597000Y221500D02*X597500Y222000D01*
X597000Y221500D02*Y220500D01*
X597500Y220000D01*
X599000D01*
X599500Y219500D01*
Y218500D01*
X599000Y218000D02*X599500Y218500D01*
X597500Y218000D02*X599000D01*
X597000Y218500D02*X597500Y218000D01*
X601200D02*X602200D01*
X601700Y222000D02*Y218000D01*
X600700Y221000D02*X601700Y222000D01*
X499000Y122000D02*X499500Y121500D01*
X497500Y122000D02*X499000D01*
X497000Y121500D02*X497500Y122000D01*
X497000Y121500D02*Y120500D01*
X497500Y120000D01*
X499000D01*
X499500Y119500D01*
Y118500D01*
X499000Y118000D02*X499500Y118500D01*
X497500Y118000D02*X499000D01*
X497000Y118500D02*X497500Y118000D01*
X500700D02*X502700Y120000D01*
Y121500D02*Y120000D01*
X502200Y122000D02*X502700Y121500D01*
X501200Y122000D02*X502200D01*
X500700Y121500D02*X501200Y122000D01*
X500700Y121500D02*Y120500D01*
X501200Y120000D01*
X502700D01*
X642000Y134000D02*Y130000D01*
X644500Y134000D02*Y130000D01*
X642000Y132000D02*X644500D01*
X645700Y133500D02*X646200Y134000D01*
X647200D01*
X647700Y133500D01*
Y130500D01*
X647200Y130000D02*X647700Y130500D01*
X646200Y130000D02*X647200D01*
X645700Y130500D02*X646200Y130000D01*
Y132000D02*X647700D01*
X598000Y122000D02*X598500Y121500D01*
X596500Y122000D02*X598000D01*
X596000Y121500D02*X596500Y122000D01*
X596000Y121500D02*Y120500D01*
X596500Y120000D01*
X598000D01*
X598500Y119500D01*
Y118500D01*
X598000Y118000D02*X598500Y118500D01*
X596500Y118000D02*X598000D01*
X596000Y118500D02*X596500Y118000D01*
X600200D02*X601200D01*
X600700Y122000D02*Y118000D01*
X599700Y121000D02*X600700Y122000D01*
X602900Y118000D02*X603900D01*
X603400Y122000D02*Y118000D01*
X602400Y121000D02*X603400Y122000D01*
X547000D02*X547500Y121500D01*
X545500Y122000D02*X547000D01*
X545000Y121500D02*X545500Y122000D01*
X545000Y121500D02*Y120500D01*
X545500Y120000D01*
X547000D01*
X547500Y119500D01*
Y118500D01*
X547000Y118000D02*X547500Y118500D01*
X545500Y118000D02*X547000D01*
X545000Y118500D02*X545500Y118000D01*
X549200D02*X550200D01*
X549700Y122000D02*Y118000D01*
X548700Y121000D02*X549700Y122000D01*
X551400Y118500D02*X551900Y118000D01*
X551400Y121500D02*Y118500D01*
Y121500D02*X551900Y122000D01*
X552900D01*
X553400Y121500D01*
Y118500D01*
X552900Y118000D02*X553400Y118500D01*
X551900Y118000D02*X552900D01*
X551400Y119000D02*X553400Y121000D01*
X202000Y134000D02*Y130000D01*
X204500Y134000D02*Y130000D01*
X202000Y132000D02*X204500D01*
X205700Y133500D02*X206200Y134000D01*
X207700D01*
X208200Y133500D01*
Y132500D01*
X205700Y130000D02*X208200Y132500D01*
X205700Y130000D02*X208200D01*
X202000Y235000D02*Y231000D01*
X204500Y235000D02*Y231000D01*
X202000Y233000D02*X204500D01*
X206200Y231000D02*X207200D01*
X206700Y235000D02*Y231000D01*
X205700Y234000D02*X206700Y235000D01*
X299000Y222000D02*X299500Y221500D01*
X297500Y222000D02*X299000D01*
X297000Y221500D02*X297500Y222000D01*
X297000Y221500D02*Y220500D01*
X297500Y220000D01*
X299000D01*
X299500Y219500D01*
Y218500D01*
X299000Y218000D02*X299500Y218500D01*
X297500Y218000D02*X299000D01*
X297000Y218500D02*X297500Y218000D01*
X300700Y221500D02*X301200Y222000D01*
X302700D01*
X303200Y221500D01*
Y220500D01*
X300700Y218000D02*X303200Y220500D01*
X300700Y218000D02*X303200D01*
X247000Y222000D02*X247500Y221500D01*
X245500Y222000D02*X247000D01*
X245000Y221500D02*X245500Y222000D01*
X245000Y221500D02*Y220500D01*
X245500Y220000D01*
X247000D01*
X247500Y219500D01*
Y218500D01*
X247000Y218000D02*X247500Y218500D01*
X245500Y218000D02*X247000D01*
X245000Y218500D02*X245500Y218000D01*
X249200D02*X250200D01*
X249700Y222000D02*Y218000D01*
X248700Y221000D02*X249700Y222000D01*
X251400Y221500D02*X251900Y222000D01*
X253400D01*
X253900Y221500D01*
Y220500D01*
X251400Y218000D02*X253900Y220500D01*
X251400Y218000D02*X253900D01*
X449000Y122000D02*X449500Y121500D01*
X447500Y122000D02*X449000D01*
X447000Y121500D02*X447500Y122000D01*
X447000Y121500D02*Y120500D01*
X447500Y120000D01*
X449000D01*
X449500Y119500D01*
Y118500D01*
X449000Y118000D02*X449500Y118500D01*
X447500Y118000D02*X449000D01*
X447000Y118500D02*X447500Y118000D01*
X450700Y118500D02*X451200Y118000D01*
X450700Y119500D02*Y118500D01*
Y119500D02*X451200Y120000D01*
X452200D01*
X452700Y119500D01*
Y118500D01*
X452200Y118000D02*X452700Y118500D01*
X451200Y118000D02*X452200D01*
X450700Y120500D02*X451200Y120000D01*
X450700Y121500D02*Y120500D01*
Y121500D02*X451200Y122000D01*
X452200D01*
X452700Y121500D01*
Y120500D01*
X452200Y120000D02*X452700Y120500D01*
X399000Y122000D02*X399500Y121500D01*
X397500Y122000D02*X399000D01*
X397000Y121500D02*X397500Y122000D01*
X397000Y121500D02*Y120500D01*
X397500Y120000D01*
X399000D01*
X399500Y119500D01*
Y118500D01*
X399000Y118000D02*X399500Y118500D01*
X397500Y118000D02*X399000D01*
X397000Y118500D02*X397500Y118000D01*
X400700D02*X403200Y120500D01*
Y122000D02*Y120500D01*
X400700Y122000D02*X403200D01*
X350000D02*X350500Y121500D01*
X348500Y122000D02*X350000D01*
X348000Y121500D02*X348500Y122000D01*
X348000Y121500D02*Y120500D01*
X348500Y120000D01*
X350000D01*
X350500Y119500D01*
Y118500D01*
X350000Y118000D02*X350500Y118500D01*
X348500Y118000D02*X350000D01*
X348000Y118500D02*X348500Y118000D01*
X353200Y122000D02*X353700Y121500D01*
X352200Y122000D02*X353200D01*
X351700Y121500D02*X352200Y122000D01*
X351700Y121500D02*Y118500D01*
X352200Y118000D01*
X353200Y120000D02*X353700Y119500D01*
X351700Y120000D02*X353200D01*
X352200Y118000D02*X353200D01*
X353700Y118500D01*
Y119500D02*Y118500D01*
X299000Y122000D02*X299500Y121500D01*
X297500Y122000D02*X299000D01*
X297000Y121500D02*X297500Y122000D01*
X297000Y121500D02*Y120500D01*
X297500Y120000D01*
X299000D01*
X299500Y119500D01*
Y118500D01*
X299000Y118000D02*X299500Y118500D01*
X297500Y118000D02*X299000D01*
X297000Y118500D02*X297500Y118000D01*
X300700Y122000D02*X302700D01*
X300700D02*Y120000D01*
X301200Y120500D01*
X302200D01*
X302700Y120000D01*
Y118500D01*
X302200Y118000D02*X302700Y118500D01*
X301200Y118000D02*X302200D01*
X300700Y118500D02*X301200Y118000D01*
X249000Y122000D02*X249500Y121500D01*
X247500Y122000D02*X249000D01*
X247000Y121500D02*X247500Y122000D01*
X247000Y121500D02*Y120500D01*
X247500Y120000D01*
X249000D01*
X249500Y119500D01*
Y118500D01*
X249000Y118000D02*X249500Y118500D01*
X247500Y118000D02*X249000D01*
X247000Y118500D02*X247500Y118000D01*
X250700Y120000D02*X252700Y122000D01*
X250700Y120000D02*X253200D01*
X252700Y122000D02*Y118000D01*
M02*
