G04 start of page 9 for group -3984 idx -3984 *
G04 Title: (unknown), fab *
G04 Creator: pcb 20140316 *
G04 CreationDate: Tue 18 Oct 2016 08:42:36 AM GMT UTC *
G04 For: atommann *
G04 Format: Gerber/RS-274X *
G04 PCB-Dimensions (mil): 8000.00 8000.00 *
G04 PCB-Coordinate-Origin: lower left *
%MOIN*%
%FSLAX25Y25*%
%LNFAB*%
%ADD49C,0.0100*%
%ADD48C,0.0060*%
%ADD47C,0.0080*%
G54D47*X644200Y250000D02*G75*G03X645800Y250000I800J0D01*G01*
G75*G03X644200Y250000I-800J0D01*G01*
Y150000D02*G75*G03X645800Y150000I800J0D01*G01*
G75*G03X644200Y150000I-800J0D01*G01*
X204200D02*G75*G03X205800Y150000I800J0D01*G01*
G75*G03X204200Y150000I-800J0D01*G01*
Y250000D02*G75*G03X205800Y250000I800J0D01*G01*
G75*G03X204200Y250000I-800J0D01*G01*
X14200Y811250D02*G75*G03X15800Y811250I800J0D01*G01*
G75*G03X14200Y811250I-800J0D01*G01*
G54D48*X135000Y813500D02*Y812750D01*
X136500Y811250D01*
X138000Y812750D01*
Y813500D02*Y812750D01*
X136500Y811250D02*Y807500D01*
X139800Y810500D02*X142050D01*
X139800Y807500D02*X142800D01*
X139800Y813500D02*Y807500D01*
Y813500D02*X142800D01*
X147600D02*X148350Y812750D01*
X145350Y813500D02*X147600D01*
X144600Y812750D02*X145350Y813500D01*
X144600Y812750D02*Y811250D01*
X145350Y810500D01*
X147600D01*
X148350Y809750D01*
Y808250D01*
X147600Y807500D02*X148350Y808250D01*
X145350Y807500D02*X147600D01*
X144600Y808250D02*X145350Y807500D01*
X98000Y810500D02*X101000Y813500D01*
X98000Y810500D02*X101750D01*
X101000Y813500D02*Y807500D01*
X45000Y808250D02*X45750Y807500D01*
X45000Y812750D02*Y808250D01*
Y812750D02*X45750Y813500D01*
X47250D01*
X48000Y812750D01*
Y808250D01*
X47250Y807500D02*X48000Y808250D01*
X45750Y807500D02*X47250D01*
X45000Y809000D02*X48000Y812000D01*
X49800Y807500D02*X50550D01*
X53100D02*X54600D01*
X53850Y813500D02*Y807500D01*
X52350Y812000D02*X53850Y813500D01*
X56400Y812750D02*X57150Y813500D01*
X59400D01*
X60150Y812750D01*
Y811250D01*
X56400Y807500D02*X60150Y811250D01*
X56400Y807500D02*X60150D01*
X61950Y808250D02*X62700Y807500D01*
X61950Y812750D02*Y808250D01*
Y812750D02*X62700Y813500D01*
X64200D01*
X64950Y812750D01*
Y808250D01*
X64200Y807500D02*X64950Y808250D01*
X62700Y807500D02*X64200D01*
X61950Y809000D02*X64950Y812000D01*
X598800Y132700D02*X601200Y130300D01*
X598800D02*X601200Y132700D01*
X598800Y151200D02*X601200Y148800D01*
X598800D02*X601200Y151200D01*
X598800Y169700D02*X601200Y167300D01*
X598800D02*X601200Y169700D01*
X548800Y132700D02*X551200Y130300D01*
X548800D02*X551200Y132700D01*
X548800Y151200D02*X551200Y148800D01*
X548800D02*X551200Y151200D01*
X548800Y169700D02*X551200Y167300D01*
X548800D02*X551200Y169700D01*
X498800Y132700D02*X501200Y130300D01*
X498800D02*X501200Y132700D01*
X498800Y151200D02*X501200Y148800D01*
X498800D02*X501200Y151200D01*
X498800Y169700D02*X501200Y167300D01*
X498800D02*X501200Y169700D01*
X448800Y132700D02*X451200Y130300D01*
X448800D02*X451200Y132700D01*
X448800Y151200D02*X451200Y148800D01*
X448800D02*X451200Y151200D01*
X448800Y169700D02*X451200Y167300D01*
X448800D02*X451200Y169700D01*
X398800Y132700D02*X401200Y130300D01*
X398800D02*X401200Y132700D01*
X398800Y151200D02*X401200Y148800D01*
X398800D02*X401200Y151200D01*
X398800Y169700D02*X401200Y167300D01*
X398800D02*X401200Y169700D01*
X348800Y132700D02*X351200Y130300D01*
X348800D02*X351200Y132700D01*
X348800Y151200D02*X351200Y148800D01*
X348800D02*X351200Y151200D01*
X348800Y169700D02*X351200Y167300D01*
X348800D02*X351200Y169700D01*
X298800Y132700D02*X301200Y130300D01*
X298800D02*X301200Y132700D01*
X298800Y151200D02*X301200Y148800D01*
X298800D02*X301200Y151200D01*
X298800Y169700D02*X301200Y167300D01*
X298800D02*X301200Y169700D01*
X248800Y132700D02*X251200Y130300D01*
X248800D02*X251200Y132700D01*
X248800Y151200D02*X251200Y148800D01*
X248800D02*X251200Y151200D01*
X248800Y169700D02*X251200Y167300D01*
X248800D02*X251200Y169700D01*
X548800Y232700D02*X551200Y230300D01*
X548800D02*X551200Y232700D01*
X548800Y251200D02*X551200Y248800D01*
X548800D02*X551200Y251200D01*
X548800Y269700D02*X551200Y267300D01*
X548800D02*X551200Y269700D01*
X298800Y232700D02*X301200Y230300D01*
X298800D02*X301200Y232700D01*
X298800Y251200D02*X301200Y248800D01*
X298800D02*X301200Y251200D01*
X298800Y269700D02*X301200Y267300D01*
X298800D02*X301200Y269700D01*
X598800Y232700D02*X601200Y230300D01*
X598800D02*X601200Y232700D01*
X598800Y251200D02*X601200Y248800D01*
X598800D02*X601200Y251200D01*
X598800Y269700D02*X601200Y267300D01*
X598800D02*X601200Y269700D01*
X248800Y232700D02*X251200Y230300D01*
X248800D02*X251200Y232700D01*
X248800Y251200D02*X251200Y248800D01*
X248800D02*X251200Y251200D01*
X248800Y269700D02*X251200Y267300D01*
X248800D02*X251200Y269700D01*
X13800Y827450D02*X16200Y825050D01*
X13800D02*X16200Y827450D01*
X135000Y828500D02*Y827750D01*
X136500Y826250D01*
X138000Y827750D01*
Y828500D02*Y827750D01*
X136500Y826250D02*Y822500D01*
X139800Y825500D02*X142050D01*
X139800Y822500D02*X142800D01*
X139800Y828500D02*Y822500D01*
Y828500D02*X142800D01*
X147600D02*X148350Y827750D01*
X145350Y828500D02*X147600D01*
X144600Y827750D02*X145350Y828500D01*
X144600Y827750D02*Y826250D01*
X145350Y825500D01*
X147600D01*
X148350Y824750D01*
Y823250D01*
X147600Y822500D02*X148350Y823250D01*
X145350Y822500D02*X147600D01*
X144600Y823250D02*X145350Y822500D01*
X98000Y827750D02*X98750Y828500D01*
X100250D01*
X101000Y827750D01*
Y823250D01*
X100250Y822500D02*X101000Y823250D01*
X98750Y822500D02*X100250D01*
X98000Y823250D02*X98750Y822500D01*
Y825500D02*X101000D01*
X105050Y828500D02*X105800Y827750D01*
X103550Y828500D02*X105050D01*
X102800Y827750D02*X103550Y828500D01*
X102800Y827750D02*Y823250D01*
X103550Y822500D01*
X105050Y825500D02*X105800Y824750D01*
X102800Y825500D02*X105050D01*
X103550Y822500D02*X105050D01*
X105800Y823250D01*
Y824750D02*Y823250D01*
X45000D02*X45750Y822500D01*
X45000Y827750D02*Y823250D01*
Y827750D02*X45750Y828500D01*
X47250D01*
X48000Y827750D01*
Y823250D01*
X47250Y822500D02*X48000Y823250D01*
X45750Y822500D02*X47250D01*
X45000Y824000D02*X48000Y827000D01*
X49800Y822500D02*X50550D01*
X52350Y823250D02*X53100Y822500D01*
X52350Y827750D02*Y823250D01*
Y827750D02*X53100Y828500D01*
X54600D01*
X55350Y827750D01*
Y823250D01*
X54600Y822500D02*X55350Y823250D01*
X53100Y822500D02*X54600D01*
X52350Y824000D02*X55350Y827000D01*
X57150Y823250D02*X57900Y822500D01*
X57150Y824750D02*Y823250D01*
Y824750D02*X57900Y825500D01*
X59400D01*
X60150Y824750D01*
Y823250D01*
X59400Y822500D02*X60150Y823250D01*
X57900Y822500D02*X59400D01*
X57150Y826250D02*X57900Y825500D01*
X57150Y827750D02*Y826250D01*
Y827750D02*X57900Y828500D01*
X59400D01*
X60150Y827750D01*
Y826250D01*
X59400Y825500D02*X60150Y826250D01*
X61950Y822500D02*X65700Y826250D01*
Y828500D02*Y826250D01*
X61950Y828500D02*X65700D01*
X560000Y321600D02*Y318400D01*
X558400Y320000D02*X561600D01*
X560000Y331600D02*Y328400D01*
X558400Y330000D02*X561600D01*
X570000Y321600D02*Y318400D01*
X568400Y320000D02*X571600D01*
X570000Y331600D02*Y328400D01*
X568400Y330000D02*X571600D01*
X580000Y321600D02*Y318400D01*
X578400Y320000D02*X581600D01*
X580000Y331600D02*Y328400D01*
X578400Y330000D02*X581600D01*
X590000Y321600D02*Y318400D01*
X588400Y320000D02*X591600D01*
X590000Y331600D02*Y328400D01*
X588400Y330000D02*X591600D01*
X600000Y321600D02*Y318400D01*
X598400Y320000D02*X601600D01*
X600000Y331600D02*Y328400D01*
X598400Y330000D02*X601600D01*
X610000Y321600D02*Y318400D01*
X608400Y320000D02*X611600D01*
X610000Y331600D02*Y328400D01*
X608400Y330000D02*X611600D01*
X620000Y321600D02*Y318400D01*
X618400Y320000D02*X621600D01*
X620000Y331600D02*Y328400D01*
X618400Y330000D02*X621600D01*
X630000Y321600D02*Y318400D01*
X628400Y320000D02*X631600D01*
X630000Y331600D02*Y328400D01*
X628400Y330000D02*X631600D01*
X15000Y842850D02*Y839650D01*
X13400Y841250D02*X16600D01*
X135000Y843500D02*Y842750D01*
X136500Y841250D01*
X138000Y842750D01*
Y843500D02*Y842750D01*
X136500Y841250D02*Y837500D01*
X139800Y840500D02*X142050D01*
X139800Y837500D02*X142800D01*
X139800Y843500D02*Y837500D01*
Y843500D02*X142800D01*
X147600D02*X148350Y842750D01*
X145350Y843500D02*X147600D01*
X144600Y842750D02*X145350Y843500D01*
X144600Y842750D02*Y841250D01*
X145350Y840500D01*
X147600D01*
X148350Y839750D01*
Y838250D01*
X147600Y837500D02*X148350Y838250D01*
X145350Y837500D02*X147600D01*
X144600Y838250D02*X145350Y837500D01*
X98750D02*X100250D01*
X99500Y843500D02*Y837500D01*
X98000Y842000D02*X99500Y843500D01*
X104300D02*X105050Y842750D01*
X102800Y843500D02*X104300D01*
X102050Y842750D02*X102800Y843500D01*
X102050Y842750D02*Y838250D01*
X102800Y837500D01*
X104300Y840500D02*X105050Y839750D01*
X102050Y840500D02*X104300D01*
X102800Y837500D02*X104300D01*
X105050Y838250D01*
Y839750D02*Y838250D01*
X45000D02*X45750Y837500D01*
X45000Y842750D02*Y838250D01*
Y842750D02*X45750Y843500D01*
X47250D01*
X48000Y842750D01*
Y838250D01*
X47250Y837500D02*X48000Y838250D01*
X45750Y837500D02*X47250D01*
X45000Y839000D02*X48000Y842000D01*
X49800Y837500D02*X50550D01*
X52350Y838250D02*X53100Y837500D01*
X52350Y842750D02*Y838250D01*
Y842750D02*X53100Y843500D01*
X54600D01*
X55350Y842750D01*
Y838250D01*
X54600Y837500D02*X55350Y838250D01*
X53100Y837500D02*X54600D01*
X52350Y839000D02*X55350Y842000D01*
X57150Y842750D02*X57900Y843500D01*
X59400D01*
X60150Y842750D01*
Y838250D01*
X59400Y837500D02*X60150Y838250D01*
X57900Y837500D02*X59400D01*
X57150Y838250D02*X57900Y837500D01*
Y840500D02*X60150D01*
X61950Y838250D02*X62700Y837500D01*
X61950Y839750D02*Y838250D01*
Y839750D02*X62700Y840500D01*
X64200D01*
X64950Y839750D01*
Y838250D01*
X64200Y837500D02*X64950Y838250D01*
X62700Y837500D02*X64200D01*
X61950Y841250D02*X62700Y840500D01*
X61950Y842750D02*Y841250D01*
Y842750D02*X62700Y843500D01*
X64200D01*
X64950Y842750D01*
Y841250D01*
X64200Y840500D02*X64950Y841250D01*
X523000Y163000D02*Y161400D01*
Y163000D02*X524387Y163800D01*
X523000Y163000D02*X521613Y163800D01*
X533000Y295000D02*Y293400D01*
Y295000D02*X534387Y295800D01*
X533000Y295000D02*X531613Y295800D01*
X596000Y295000D02*Y293400D01*
Y295000D02*X597387Y295800D01*
X596000Y295000D02*X594613Y295800D01*
X521000Y289000D02*Y287400D01*
Y289000D02*X522387Y289800D01*
X521000Y289000D02*X519613Y289800D01*
X603000Y289000D02*Y287400D01*
Y289000D02*X604387Y289800D01*
X603000Y289000D02*X601613Y289800D01*
X15000Y856250D02*Y854650D01*
Y856250D02*X16387Y857050D01*
X15000Y856250D02*X13613Y857050D01*
X135000Y858500D02*Y857750D01*
X136500Y856250D01*
X138000Y857750D01*
Y858500D02*Y857750D01*
X136500Y856250D02*Y852500D01*
X139800Y855500D02*X142050D01*
X139800Y852500D02*X142800D01*
X139800Y858500D02*Y852500D01*
Y858500D02*X142800D01*
X147600D02*X148350Y857750D01*
X145350Y858500D02*X147600D01*
X144600Y857750D02*X145350Y858500D01*
X144600Y857750D02*Y856250D01*
X145350Y855500D01*
X147600D01*
X148350Y854750D01*
Y853250D01*
X147600Y852500D02*X148350Y853250D01*
X145350Y852500D02*X147600D01*
X144600Y853250D02*X145350Y852500D01*
X98000Y858500D02*X101000D01*
X98000D02*Y855500D01*
X98750Y856250D01*
X100250D01*
X101000Y855500D01*
Y853250D01*
X100250Y852500D02*X101000Y853250D01*
X98750Y852500D02*X100250D01*
X98000Y853250D02*X98750Y852500D01*
X45000Y853250D02*X45750Y852500D01*
X45000Y857750D02*Y853250D01*
Y857750D02*X45750Y858500D01*
X47250D01*
X48000Y857750D01*
Y853250D01*
X47250Y852500D02*X48000Y853250D01*
X45750Y852500D02*X47250D01*
X45000Y854000D02*X48000Y857000D01*
X49800Y852500D02*X50550D01*
X52350Y853250D02*X53100Y852500D01*
X52350Y857750D02*Y853250D01*
Y857750D02*X53100Y858500D01*
X54600D01*
X55350Y857750D01*
Y853250D01*
X54600Y852500D02*X55350Y853250D01*
X53100Y852500D02*X54600D01*
X52350Y854000D02*X55350Y857000D01*
X57150Y857750D02*X57900Y858500D01*
X60150D01*
X60900Y857750D01*
Y856250D01*
X57150Y852500D02*X60900Y856250D01*
X57150Y852500D02*X60900D01*
X62700Y853250D02*X63450Y852500D01*
X62700Y857750D02*Y853250D01*
Y857750D02*X63450Y858500D01*
X64950D01*
X65700Y857750D01*
Y853250D01*
X64950Y852500D02*X65700Y853250D01*
X63450Y852500D02*X64950D01*
X62700Y854000D02*X65700Y857000D01*
X3000Y873500D02*X3750Y872750D01*
X750Y873500D02*X3000D01*
X0Y872750D02*X750Y873500D01*
X0Y872750D02*Y871250D01*
X750Y870500D01*
X3000D01*
X3750Y869750D01*
Y868250D01*
X3000Y867500D02*X3750Y868250D01*
X750Y867500D02*X3000D01*
X0Y868250D02*X750Y867500D01*
X5550Y870500D02*Y868250D01*
X6300Y867500D01*
X8550Y870500D02*Y866000D01*
X7800Y865250D02*X8550Y866000D01*
X6300Y865250D02*X7800D01*
X5550Y866000D02*X6300Y865250D01*
Y867500D02*X7800D01*
X8550Y868250D01*
X11100Y869750D02*Y867500D01*
Y869750D02*X11850Y870500D01*
X12600D01*
X13350Y869750D01*
Y867500D01*
Y869750D02*X14100Y870500D01*
X14850D01*
X15600Y869750D01*
Y867500D01*
X10350Y870500D02*X11100Y869750D01*
X17400Y873500D02*Y867500D01*
Y868250D02*X18150Y867500D01*
X19650D01*
X20400Y868250D01*
Y869750D02*Y868250D01*
X19650Y870500D02*X20400Y869750D01*
X18150Y870500D02*X19650D01*
X17400Y869750D02*X18150Y870500D01*
X22200Y869750D02*Y868250D01*
Y869750D02*X22950Y870500D01*
X24450D01*
X25200Y869750D01*
Y868250D01*
X24450Y867500D02*X25200Y868250D01*
X22950Y867500D02*X24450D01*
X22200Y868250D02*X22950Y867500D01*
X27000Y873500D02*Y868250D01*
X27750Y867500D01*
X0Y864250D02*X29250D01*
X41750Y873500D02*Y867500D01*
X44000Y873500D02*X44750Y872750D01*
Y868250D01*
X44000Y867500D02*X44750Y868250D01*
X41000Y867500D02*X44000D01*
X41000Y873500D02*X44000D01*
X46550Y872000D02*Y871250D01*
Y869750D02*Y867500D01*
X50300Y870500D02*X51050Y869750D01*
X48800Y870500D02*X50300D01*
X48050Y869750D02*X48800Y870500D01*
X48050Y869750D02*Y868250D01*
X48800Y867500D01*
X51050Y870500D02*Y868250D01*
X51800Y867500D01*
X48800D02*X50300D01*
X51050Y868250D01*
X54350Y869750D02*Y867500D01*
Y869750D02*X55100Y870500D01*
X55850D01*
X56600Y869750D01*
Y867500D01*
Y869750D02*X57350Y870500D01*
X58100D01*
X58850Y869750D01*
Y867500D01*
X53600Y870500D02*X54350Y869750D01*
X60650Y867500D02*X61400D01*
X65900Y868250D02*X66650Y867500D01*
X65900Y872750D02*X66650Y873500D01*
X65900Y872750D02*Y868250D01*
X68450Y873500D02*X69950D01*
X69200D02*Y867500D01*
X68450D02*X69950D01*
X72500Y869750D02*Y867500D01*
Y869750D02*X73250Y870500D01*
X74000D01*
X74750Y869750D01*
Y867500D01*
X71750Y870500D02*X72500Y869750D01*
X77300Y870500D02*X79550D01*
X76550Y869750D02*X77300Y870500D01*
X76550Y869750D02*Y868250D01*
X77300Y867500D01*
X79550D01*
X81350Y873500D02*Y867500D01*
Y869750D02*X82100Y870500D01*
X83600D01*
X84350Y869750D01*
Y867500D01*
X86150Y873500D02*X86900Y872750D01*
Y868250D01*
X86150Y867500D02*X86900Y868250D01*
X41000Y864250D02*X88700D01*
X95750Y867500D02*X98000D01*
X95000Y868250D02*X95750Y867500D01*
X95000Y872750D02*Y868250D01*
Y872750D02*X95750Y873500D01*
X98000D01*
X99800Y869750D02*Y868250D01*
Y869750D02*X100550Y870500D01*
X102050D01*
X102800Y869750D01*
Y868250D01*
X102050Y867500D02*X102800Y868250D01*
X100550Y867500D02*X102050D01*
X99800Y868250D02*X100550Y867500D01*
X104600Y870500D02*Y868250D01*
X105350Y867500D01*
X106850D01*
X107600Y868250D01*
Y870500D02*Y868250D01*
X110150Y869750D02*Y867500D01*
Y869750D02*X110900Y870500D01*
X111650D01*
X112400Y869750D01*
Y867500D01*
X109400Y870500D02*X110150Y869750D01*
X114950Y873500D02*Y868250D01*
X115700Y867500D01*
X114200Y871250D02*X115700D01*
X95000Y864250D02*X117200D01*
X130750Y873500D02*Y867500D01*
X130000Y873500D02*X133000D01*
X133750Y872750D01*
Y871250D01*
X133000Y870500D02*X133750Y871250D01*
X130750Y870500D02*X133000D01*
X135550Y873500D02*Y868250D01*
X136300Y867500D01*
X140050Y870500D02*X140800Y869750D01*
X138550Y870500D02*X140050D01*
X137800Y869750D02*X138550Y870500D01*
X137800Y869750D02*Y868250D01*
X138550Y867500D01*
X140800Y870500D02*Y868250D01*
X141550Y867500D01*
X138550D02*X140050D01*
X140800Y868250D01*
X144100Y873500D02*Y868250D01*
X144850Y867500D01*
X143350Y871250D02*X144850D01*
X147100Y867500D02*X149350D01*
X146350Y868250D02*X147100Y867500D01*
X146350Y869750D02*Y868250D01*
Y869750D02*X147100Y870500D01*
X148600D01*
X149350Y869750D01*
X146350Y869000D02*X149350D01*
Y869750D02*Y869000D01*
X154150Y873500D02*Y867500D01*
X153400D02*X154150Y868250D01*
X151900Y867500D02*X153400D01*
X151150Y868250D02*X151900Y867500D01*
X151150Y869750D02*Y868250D01*
Y869750D02*X151900Y870500D01*
X153400D01*
X154150Y869750D01*
X157450Y870500D02*Y869750D01*
Y868250D02*Y867500D01*
X155950Y872750D02*Y872000D01*
Y872750D02*X156700Y873500D01*
X158200D01*
X158950Y872750D01*
Y872000D01*
X157450Y870500D02*X158950Y872000D01*
X130000Y864250D02*X160750D01*
X0Y888500D02*X3000D01*
X1500D02*Y882500D01*
X4800Y888500D02*Y882500D01*
Y884750D02*X5550Y885500D01*
X7050D01*
X7800Y884750D01*
Y882500D01*
X10350D02*X12600D01*
X9600Y883250D02*X10350Y882500D01*
X9600Y884750D02*Y883250D01*
Y884750D02*X10350Y885500D01*
X11850D01*
X12600Y884750D01*
X9600Y884000D02*X12600D01*
Y884750D02*Y884000D01*
X15150Y884750D02*Y882500D01*
Y884750D02*X15900Y885500D01*
X17400D01*
X14400D02*X15150Y884750D01*
X19950Y882500D02*X22200D01*
X19200Y883250D02*X19950Y882500D01*
X19200Y884750D02*Y883250D01*
Y884750D02*X19950Y885500D01*
X21450D01*
X22200Y884750D01*
X19200Y884000D02*X22200D01*
Y884750D02*Y884000D01*
X28950Y885500D02*X29700Y884750D01*
X27450Y885500D02*X28950D01*
X26700Y884750D02*X27450Y885500D01*
X26700Y884750D02*Y883250D01*
X27450Y882500D01*
X29700Y885500D02*Y883250D01*
X30450Y882500D01*
X27450D02*X28950D01*
X29700Y883250D01*
X33000Y884750D02*Y882500D01*
Y884750D02*X33750Y885500D01*
X35250D01*
X32250D02*X33000Y884750D01*
X37800Y882500D02*X40050D01*
X37050Y883250D02*X37800Y882500D01*
X37050Y884750D02*Y883250D01*
Y884750D02*X37800Y885500D01*
X39300D01*
X40050Y884750D01*
X37050Y884000D02*X40050D01*
Y884750D02*Y884000D01*
X44550Y885500D02*X47550Y888500D01*
X44550Y885500D02*X48300D01*
X47550Y888500D02*Y882500D01*
X55800Y888500D02*Y882500D01*
X55050D02*X55800Y883250D01*
X53550Y882500D02*X55050D01*
X52800Y883250D02*X53550Y882500D01*
X52800Y884750D02*Y883250D01*
Y884750D02*X53550Y885500D01*
X55050D01*
X55800Y884750D01*
X57600Y887000D02*Y886250D01*
Y884750D02*Y882500D01*
X59850Y887750D02*Y882500D01*
Y887750D02*X60600Y888500D01*
X61350D01*
X59100Y885500D02*X60600D01*
X63600Y887750D02*Y882500D01*
Y887750D02*X64350Y888500D01*
X65100D01*
X62850Y885500D02*X64350D01*
X67350Y882500D02*X69600D01*
X66600Y883250D02*X67350Y882500D01*
X66600Y884750D02*Y883250D01*
Y884750D02*X67350Y885500D01*
X68850D01*
X69600Y884750D01*
X66600Y884000D02*X69600D01*
Y884750D02*Y884000D01*
X72150Y884750D02*Y882500D01*
Y884750D02*X72900Y885500D01*
X74400D01*
X71400D02*X72150Y884750D01*
X76950Y882500D02*X79200D01*
X76200Y883250D02*X76950Y882500D01*
X76200Y884750D02*Y883250D01*
Y884750D02*X76950Y885500D01*
X78450D01*
X79200Y884750D01*
X76200Y884000D02*X79200D01*
Y884750D02*Y884000D01*
X81750Y884750D02*Y882500D01*
Y884750D02*X82500Y885500D01*
X83250D01*
X84000Y884750D01*
Y882500D01*
X81000Y885500D02*X81750Y884750D01*
X86550Y888500D02*Y883250D01*
X87300Y882500D01*
X85800Y886250D02*X87300D01*
X94500Y888500D02*Y882500D01*
X93750D02*X94500Y883250D01*
X92250Y882500D02*X93750D01*
X91500Y883250D02*X92250Y882500D01*
X91500Y884750D02*Y883250D01*
Y884750D02*X92250Y885500D01*
X93750D01*
X94500Y884750D01*
X97050D02*Y882500D01*
Y884750D02*X97800Y885500D01*
X99300D01*
X96300D02*X97050Y884750D01*
X101100Y887000D02*Y886250D01*
Y884750D02*Y882500D01*
X102600Y888500D02*Y883250D01*
X103350Y882500D01*
X104850Y888500D02*Y883250D01*
X105600Y882500D01*
X110550D02*X112800D01*
X113550Y883250D01*
X112800Y884000D02*X113550Y883250D01*
X110550Y884000D02*X112800D01*
X109800Y884750D02*X110550Y884000D01*
X109800Y884750D02*X110550Y885500D01*
X112800D01*
X113550Y884750D01*
X109800Y883250D02*X110550Y882500D01*
X115350Y887000D02*Y886250D01*
Y884750D02*Y882500D01*
X116850Y885500D02*X119850D01*
X116850Y882500D02*X119850Y885500D01*
X116850Y882500D02*X119850D01*
X122400D02*X124650D01*
X121650Y883250D02*X122400Y882500D01*
X121650Y884750D02*Y883250D01*
Y884750D02*X122400Y885500D01*
X123900D01*
X124650Y884750D01*
X121650Y884000D02*X124650D01*
Y884750D02*Y884000D01*
X127200Y882500D02*X129450D01*
X130200Y883250D01*
X129450Y884000D02*X130200Y883250D01*
X127200Y884000D02*X129450D01*
X126450Y884750D02*X127200Y884000D01*
X126450Y884750D02*X127200Y885500D01*
X129450D01*
X130200Y884750D01*
X126450Y883250D02*X127200Y882500D01*
X134700Y885500D02*Y883250D01*
X135450Y882500D01*
X136950D01*
X137700Y883250D01*
Y885500D02*Y883250D01*
X140250Y882500D02*X142500D01*
X143250Y883250D01*
X142500Y884000D02*X143250Y883250D01*
X140250Y884000D02*X142500D01*
X139500Y884750D02*X140250Y884000D01*
X139500Y884750D02*X140250Y885500D01*
X142500D01*
X143250Y884750D01*
X139500Y883250D02*X140250Y882500D01*
X145800D02*X148050D01*
X145050Y883250D02*X145800Y882500D01*
X145050Y884750D02*Y883250D01*
Y884750D02*X145800Y885500D01*
X147300D01*
X148050Y884750D01*
X145050Y884000D02*X148050D01*
Y884750D02*Y884000D01*
X152850Y888500D02*Y882500D01*
X152100D02*X152850Y883250D01*
X150600Y882500D02*X152100D01*
X149850Y883250D02*X150600Y882500D01*
X149850Y884750D02*Y883250D01*
Y884750D02*X150600Y885500D01*
X152100D01*
X152850Y884750D01*
X157350Y887000D02*Y886250D01*
Y884750D02*Y882500D01*
X159600Y884750D02*Y882500D01*
Y884750D02*X160350Y885500D01*
X161100D01*
X161850Y884750D01*
Y882500D01*
X158850Y885500D02*X159600Y884750D01*
X167100Y888500D02*Y883250D01*
X167850Y882500D01*
X166350Y886250D02*X167850D01*
X169350Y888500D02*Y882500D01*
Y884750D02*X170100Y885500D01*
X171600D01*
X172350Y884750D01*
Y882500D01*
X174150Y887000D02*Y886250D01*
Y884750D02*Y882500D01*
X176400D02*X178650D01*
X179400Y883250D01*
X178650Y884000D02*X179400Y883250D01*
X176400Y884000D02*X178650D01*
X175650Y884750D02*X176400Y884000D01*
X175650Y884750D02*X176400Y885500D01*
X178650D01*
X179400Y884750D01*
X175650Y883250D02*X176400Y882500D01*
X183900Y888500D02*Y883250D01*
X184650Y882500D01*
X188400Y885500D02*X189150Y884750D01*
X186900Y885500D02*X188400D01*
X186150Y884750D02*X186900Y885500D01*
X186150Y884750D02*Y883250D01*
X186900Y882500D01*
X189150Y885500D02*Y883250D01*
X189900Y882500D01*
X186900D02*X188400D01*
X189150Y883250D01*
X191700Y885500D02*Y883250D01*
X192450Y882500D01*
X194700Y885500D02*Y881000D01*
X193950Y880250D02*X194700Y881000D01*
X192450Y880250D02*X193950D01*
X191700Y881000D02*X192450Y880250D01*
Y882500D02*X193950D01*
X194700Y883250D01*
X196500Y884750D02*Y883250D01*
Y884750D02*X197250Y885500D01*
X198750D01*
X199500Y884750D01*
Y883250D01*
X198750Y882500D02*X199500Y883250D01*
X197250Y882500D02*X198750D01*
X196500Y883250D02*X197250Y882500D01*
X201300Y885500D02*Y883250D01*
X202050Y882500D01*
X203550D01*
X204300Y883250D01*
Y885500D02*Y883250D01*
X206850Y888500D02*Y883250D01*
X207600Y882500D01*
X206100Y886250D02*X207600D01*
X209100Y881000D02*X210600Y882500D01*
X217350Y888500D02*X218100Y887750D01*
X215850Y888500D02*X217350D01*
X215100Y887750D02*X215850Y888500D01*
X215100Y887750D02*Y883250D01*
X215850Y882500D01*
X217350Y885500D02*X218100Y884750D01*
X215100Y885500D02*X217350D01*
X215850Y882500D02*X217350D01*
X218100Y883250D01*
Y884750D02*Y883250D01*
X220650Y882500D02*X222150D01*
X221400Y888500D02*Y882500D01*
X219900Y887000D02*X221400Y888500D01*
X226650D02*Y882500D01*
Y884750D02*X227400Y885500D01*
X228900D01*
X229650Y884750D01*
Y882500D01*
X231450Y884750D02*Y883250D01*
Y884750D02*X232200Y885500D01*
X233700D01*
X234450Y884750D01*
Y883250D01*
X233700Y882500D02*X234450Y883250D01*
X232200Y882500D02*X233700D01*
X231450Y883250D02*X232200Y882500D01*
X236250Y888500D02*Y883250D01*
X237000Y882500D01*
X239250D02*X241500D01*
X238500Y883250D02*X239250Y882500D01*
X238500Y884750D02*Y883250D01*
Y884750D02*X239250Y885500D01*
X240750D01*
X241500Y884750D01*
X238500Y884000D02*X241500D01*
Y884750D02*Y884000D01*
X244050Y882500D02*X246300D01*
X247050Y883250D01*
X246300Y884000D02*X247050Y883250D01*
X244050Y884000D02*X246300D01*
X243300Y884750D02*X244050Y884000D01*
X243300Y884750D02*X244050Y885500D01*
X246300D01*
X247050Y884750D01*
X243300Y883250D02*X244050Y882500D01*
X252300Y888500D02*Y883250D01*
X253050Y882500D01*
X251550Y886250D02*X253050D01*
X254550Y884750D02*Y883250D01*
Y884750D02*X255300Y885500D01*
X256800D01*
X257550Y884750D01*
Y883250D01*
X256800Y882500D02*X257550Y883250D01*
X255300Y882500D02*X256800D01*
X254550Y883250D02*X255300Y882500D01*
X260100Y888500D02*Y883250D01*
X260850Y882500D01*
X259350Y886250D02*X260850D01*
X264600Y885500D02*X265350Y884750D01*
X263100Y885500D02*X264600D01*
X262350Y884750D02*X263100Y885500D01*
X262350Y884750D02*Y883250D01*
X263100Y882500D01*
X265350Y885500D02*Y883250D01*
X266100Y882500D01*
X263100D02*X264600D01*
X265350Y883250D01*
X267900Y888500D02*Y883250D01*
X268650Y882500D01*
G54D49*X190000Y100000D02*X660000D01*
Y300000D02*Y350000D01*
X530000Y300000D02*X190000D01*
X660000D02*Y100000D01*
X190000Y300000D02*Y100000D01*
X530000Y300000D02*Y350000D01*
X660000D01*
G54D48*X313675Y-9500D02*X316675D01*
X317425Y-8750D01*
Y-7250D02*Y-8750D01*
X316675Y-6500D02*X317425Y-7250D01*
X314425Y-6500D02*X316675D01*
X314425Y-3500D02*Y-9500D01*
X313675Y-3500D02*X316675D01*
X317425Y-4250D01*
Y-5750D01*
X316675Y-6500D02*X317425Y-5750D01*
X319225Y-7250D02*Y-8750D01*
Y-7250D02*X319975Y-6500D01*
X321475D01*
X322225Y-7250D01*
Y-8750D01*
X321475Y-9500D02*X322225Y-8750D01*
X319975Y-9500D02*X321475D01*
X319225Y-8750D02*X319975Y-9500D01*
X326275Y-6500D02*X327025Y-7250D01*
X324775Y-6500D02*X326275D01*
X324025Y-7250D02*X324775Y-6500D01*
X324025Y-7250D02*Y-8750D01*
X324775Y-9500D01*
X327025Y-6500D02*Y-8750D01*
X327775Y-9500D01*
X324775D02*X326275D01*
X327025Y-8750D01*
X330325Y-7250D02*Y-9500D01*
Y-7250D02*X331075Y-6500D01*
X332575D01*
X329575D02*X330325Y-7250D01*
X337375Y-3500D02*Y-9500D01*
X336625D02*X337375Y-8750D01*
X335125Y-9500D02*X336625D01*
X334375Y-8750D02*X335125Y-9500D01*
X334375Y-7250D02*Y-8750D01*
Y-7250D02*X335125Y-6500D01*
X336625D01*
X337375Y-7250D01*
X341875D02*Y-8750D01*
Y-7250D02*X342625Y-6500D01*
X344125D01*
X344875Y-7250D01*
Y-8750D01*
X344125Y-9500D02*X344875Y-8750D01*
X342625Y-9500D02*X344125D01*
X341875Y-8750D02*X342625Y-9500D01*
X346675Y-6500D02*Y-8750D01*
X347425Y-9500D01*
X348925D01*
X349675Y-8750D01*
Y-6500D02*Y-8750D01*
X352225Y-3500D02*Y-8750D01*
X352975Y-9500D01*
X351475Y-5750D02*X352975D01*
X354475Y-3500D02*Y-8750D01*
X355225Y-9500D01*
X356725Y-5000D02*Y-5750D01*
Y-7250D02*Y-9500D01*
X358975Y-7250D02*Y-9500D01*
Y-7250D02*X359725Y-6500D01*
X360475D01*
X361225Y-7250D01*
Y-9500D01*
X358225Y-6500D02*X358975Y-7250D01*
X363775Y-9500D02*X366025D01*
X363025Y-8750D02*X363775Y-9500D01*
X363025Y-7250D02*Y-8750D01*
Y-7250D02*X363775Y-6500D01*
X365275D01*
X366025Y-7250D01*
X363025Y-8000D02*X366025D01*
Y-7250D02*Y-8000D01*
X370525Y-5000D02*Y-5750D01*
Y-7250D02*Y-9500D01*
X372775D02*X375025D01*
X375775Y-8750D01*
X375025Y-8000D02*X375775Y-8750D01*
X372775Y-8000D02*X375025D01*
X372025Y-7250D02*X372775Y-8000D01*
X372025Y-7250D02*X372775Y-6500D01*
X375025D01*
X375775Y-7250D01*
X372025Y-8750D02*X372775Y-9500D01*
X381025Y-3500D02*Y-8750D01*
X381775Y-9500D01*
X380275Y-5750D02*X381775D01*
X383275Y-3500D02*Y-9500D01*
Y-7250D02*X384025Y-6500D01*
X385525D01*
X386275Y-7250D01*
Y-9500D01*
X388825D02*X391075D01*
X388075Y-8750D02*X388825Y-9500D01*
X388075Y-7250D02*Y-8750D01*
Y-7250D02*X388825Y-6500D01*
X390325D01*
X391075Y-7250D01*
X388075Y-8000D02*X391075D01*
Y-7250D02*Y-8000D01*
X396325Y-6500D02*X398575D01*
X395575Y-7250D02*X396325Y-6500D01*
X395575Y-7250D02*Y-8750D01*
X396325Y-9500D01*
X398575D01*
X401125D02*X403375D01*
X400375Y-8750D02*X401125Y-9500D01*
X400375Y-7250D02*Y-8750D01*
Y-7250D02*X401125Y-6500D01*
X402625D01*
X403375Y-7250D01*
X400375Y-8000D02*X403375D01*
Y-7250D02*Y-8000D01*
X405925Y-7250D02*Y-9500D01*
Y-7250D02*X406675Y-6500D01*
X407425D01*
X408175Y-7250D01*
Y-9500D01*
X405175Y-6500D02*X405925Y-7250D01*
X410725Y-3500D02*Y-8750D01*
X411475Y-9500D01*
X409975Y-5750D02*X411475D01*
X413725Y-9500D02*X415975D01*
X412975Y-8750D02*X413725Y-9500D01*
X412975Y-7250D02*Y-8750D01*
Y-7250D02*X413725Y-6500D01*
X415225D01*
X415975Y-7250D01*
X412975Y-8000D02*X415975D01*
Y-7250D02*Y-8000D01*
X418525Y-7250D02*Y-9500D01*
Y-7250D02*X419275Y-6500D01*
X420775D01*
X417775D02*X418525Y-7250D01*
X422575Y-3500D02*Y-8750D01*
X423325Y-9500D01*
X424825Y-5000D02*Y-5750D01*
Y-7250D02*Y-9500D01*
X427075Y-7250D02*Y-9500D01*
Y-7250D02*X427825Y-6500D01*
X428575D01*
X429325Y-7250D01*
Y-9500D01*
X426325Y-6500D02*X427075Y-7250D01*
X431875Y-9500D02*X434125D01*
X431125Y-8750D02*X431875Y-9500D01*
X431125Y-7250D02*Y-8750D01*
Y-7250D02*X431875Y-6500D01*
X433375D01*
X434125Y-7250D01*
X431125Y-8000D02*X434125D01*
Y-7250D02*Y-8000D01*
X438625Y-7250D02*Y-8750D01*
Y-7250D02*X439375Y-6500D01*
X440875D01*
X441625Y-7250D01*
Y-8750D01*
X440875Y-9500D02*X441625Y-8750D01*
X439375Y-9500D02*X440875D01*
X438625Y-8750D02*X439375Y-9500D01*
X444175Y-4250D02*Y-9500D01*
Y-4250D02*X444925Y-3500D01*
X445675D01*
X443425Y-6500D02*X444925D01*
X450625Y-3500D02*Y-8750D01*
X451375Y-9500D01*
X449875Y-5750D02*X451375D01*
X452875Y-3500D02*Y-9500D01*
Y-7250D02*X453625Y-6500D01*
X455125D01*
X455875Y-7250D01*
Y-9500D01*
X457675Y-5000D02*Y-5750D01*
Y-7250D02*Y-9500D01*
X459925D02*X462175D01*
X462925Y-8750D01*
X462175Y-8000D02*X462925Y-8750D01*
X459925Y-8000D02*X462175D01*
X459175Y-7250D02*X459925Y-8000D01*
X459175Y-7250D02*X459925Y-6500D01*
X462175D01*
X462925Y-7250D01*
X459175Y-8750D02*X459925Y-9500D01*
X468175Y-7250D02*Y-11750D01*
X467425Y-6500D02*X468175Y-7250D01*
X468925Y-6500D01*
X470425D01*
X471175Y-7250D01*
Y-8750D01*
X470425Y-9500D02*X471175Y-8750D01*
X468925Y-9500D02*X470425D01*
X468175Y-8750D02*X468925Y-9500D01*
X475225Y-6500D02*X475975Y-7250D01*
X473725Y-6500D02*X475225D01*
X472975Y-7250D02*X473725Y-6500D01*
X472975Y-7250D02*Y-8750D01*
X473725Y-9500D01*
X475975Y-6500D02*Y-8750D01*
X476725Y-9500D01*
X473725D02*X475225D01*
X475975Y-8750D01*
X479275Y-3500D02*Y-8750D01*
X480025Y-9500D01*
X478525Y-5750D02*X480025D01*
X481525Y-3500D02*Y-9500D01*
Y-7250D02*X482275Y-6500D01*
X483775D01*
X484525Y-7250D01*
Y-9500D01*
X200750Y828500D02*Y822500D01*
X203000Y828500D02*X203750Y827750D01*
Y823250D01*
X203000Y822500D02*X203750Y823250D01*
X200000Y822500D02*X203000D01*
X200000Y828500D02*X203000D01*
X207800Y825500D02*X208550Y824750D01*
X206300Y825500D02*X207800D01*
X205550Y824750D02*X206300Y825500D01*
X205550Y824750D02*Y823250D01*
X206300Y822500D01*
X208550Y825500D02*Y823250D01*
X209300Y822500D01*
X206300D02*X207800D01*
X208550Y823250D01*
X211850Y828500D02*Y823250D01*
X212600Y822500D01*
X211100Y826250D02*X212600D01*
X214850Y822500D02*X217100D01*
X214100Y823250D02*X214850Y822500D01*
X214100Y824750D02*Y823250D01*
Y824750D02*X214850Y825500D01*
X216350D01*
X217100Y824750D01*
X214100Y824000D02*X217100D01*
Y824750D02*Y824000D01*
X218900Y826250D02*X219650D01*
X218900Y824750D02*X219650D01*
X224150Y828500D02*X227150D01*
X225650D02*Y822500D01*
X228950Y825500D02*Y823250D01*
X229700Y822500D01*
X231200D01*
X231950Y823250D01*
Y825500D02*Y823250D01*
X234500Y822500D02*X236750D01*
X233750Y823250D02*X234500Y822500D01*
X233750Y824750D02*Y823250D01*
Y824750D02*X234500Y825500D01*
X236000D01*
X236750Y824750D01*
X233750Y824000D02*X236750D01*
Y824750D02*Y824000D01*
X242000Y822500D02*X243500D01*
X242750Y828500D02*Y822500D01*
X241250Y827000D02*X242750Y828500D01*
X245300Y823250D02*X246050Y822500D01*
X245300Y824750D02*Y823250D01*
Y824750D02*X246050Y825500D01*
X247550D01*
X248300Y824750D01*
Y823250D01*
X247550Y822500D02*X248300Y823250D01*
X246050Y822500D02*X247550D01*
X245300Y826250D02*X246050Y825500D01*
X245300Y827750D02*Y826250D01*
Y827750D02*X246050Y828500D01*
X247550D01*
X248300Y827750D01*
Y826250D01*
X247550Y825500D02*X248300Y826250D01*
X252800Y827750D02*Y823250D01*
Y827750D02*X253550Y828500D01*
X255050D01*
X255800Y827750D01*
Y823250D01*
X255050Y822500D02*X255800Y823250D01*
X253550Y822500D02*X255050D01*
X252800Y823250D02*X253550Y822500D01*
X258350Y825500D02*X260600D01*
X257600Y824750D02*X258350Y825500D01*
X257600Y824750D02*Y823250D01*
X258350Y822500D01*
X260600D01*
X263150Y828500D02*Y823250D01*
X263900Y822500D01*
X262400Y826250D02*X263900D01*
X268100Y827750D02*X268850Y828500D01*
X271100D01*
X271850Y827750D01*
Y826250D01*
X268100Y822500D02*X271850Y826250D01*
X268100Y822500D02*X271850D01*
X273650Y823250D02*X274400Y822500D01*
X273650Y827750D02*Y823250D01*
Y827750D02*X274400Y828500D01*
X275900D01*
X276650Y827750D01*
Y823250D01*
X275900Y822500D02*X276650Y823250D01*
X274400Y822500D02*X275900D01*
X273650Y824000D02*X276650Y827000D01*
X279200Y822500D02*X280700D01*
X279950Y828500D02*Y822500D01*
X278450Y827000D02*X279950Y828500D01*
X284750D02*X285500Y827750D01*
X283250Y828500D02*X284750D01*
X282500Y827750D02*X283250Y828500D01*
X282500Y827750D02*Y823250D01*
X283250Y822500D01*
X284750Y825500D02*X285500Y824750D01*
X282500Y825500D02*X284750D01*
X283250Y822500D02*X284750D01*
X285500Y823250D01*
Y824750D02*Y823250D01*
X290000D02*X290750Y822500D01*
X290000Y827750D02*Y823250D01*
Y827750D02*X290750Y828500D01*
X292250D01*
X293000Y827750D01*
Y823250D01*
X292250Y822500D02*X293000Y823250D01*
X290750Y822500D02*X292250D01*
X290000Y824000D02*X293000Y827000D01*
X294800Y823250D02*X295550Y822500D01*
X294800Y824750D02*Y823250D01*
Y824750D02*X295550Y825500D01*
X297050D01*
X297800Y824750D01*
Y823250D01*
X297050Y822500D02*X297800Y823250D01*
X295550Y822500D02*X297050D01*
X294800Y826250D02*X295550Y825500D01*
X294800Y827750D02*Y826250D01*
Y827750D02*X295550Y828500D01*
X297050D01*
X297800Y827750D01*
Y826250D01*
X297050Y825500D02*X297800Y826250D01*
X299600D02*X300350D01*
X299600Y824750D02*X300350D01*
X302150Y825500D02*X305150Y828500D01*
X302150Y825500D02*X305900D01*
X305150Y828500D02*Y822500D01*
X307700Y827750D02*X308450Y828500D01*
X310700D01*
X311450Y827750D01*
Y826250D01*
X307700Y822500D02*X311450Y826250D01*
X307700Y822500D02*X311450D01*
X313250Y826250D02*X314000D01*
X313250Y824750D02*X314000D01*
X315800Y827750D02*X316550Y828500D01*
X318050D01*
X318800Y827750D01*
Y823250D01*
X318050Y822500D02*X318800Y823250D01*
X316550Y822500D02*X318050D01*
X315800Y823250D02*X316550Y822500D01*
Y825500D02*X318800D01*
X322850Y828500D02*X323600Y827750D01*
X321350Y828500D02*X322850D01*
X320600Y827750D02*X321350Y828500D01*
X320600Y827750D02*Y823250D01*
X321350Y822500D01*
X322850Y825500D02*X323600Y824750D01*
X320600Y825500D02*X322850D01*
X321350Y822500D02*X322850D01*
X323600Y823250D01*
Y824750D02*Y823250D01*
X328100Y827750D02*Y822500D01*
Y827750D02*X328850Y828500D01*
X331100D01*
X331850Y827750D01*
Y822500D01*
X328100Y825500D02*X331850D01*
X333650Y828500D02*Y822500D01*
Y828500D02*X335900Y826250D01*
X338150Y828500D01*
Y822500D01*
X345650Y828500D02*X346400Y827750D01*
X343400Y828500D02*X345650D01*
X342650Y827750D02*X343400Y828500D01*
X342650Y827750D02*Y823250D01*
X343400Y822500D01*
X345650D01*
X346400Y823250D01*
Y824750D02*Y823250D01*
X345650Y825500D02*X346400Y824750D01*
X344150Y825500D02*X345650D01*
X348200Y828500D02*Y822500D01*
Y828500D02*X350450Y826250D01*
X352700Y828500D01*
Y822500D01*
X354500Y828500D02*X357500D01*
X356000D02*Y822500D01*
X362000Y828500D02*Y823250D01*
X362750Y822500D01*
X364250D01*
X365000Y823250D01*
Y828500D02*Y823250D01*
X366800Y828500D02*X369800D01*
X368300D02*Y822500D01*
X372350D02*X374600D01*
X371600Y823250D02*X372350Y822500D01*
X371600Y827750D02*Y823250D01*
Y827750D02*X372350Y828500D01*
X374600D01*
X200000Y842750D02*Y837500D01*
Y842750D02*X200750Y843500D01*
X203000D01*
X203750Y842750D01*
Y837500D01*
X200000Y840500D02*X203750D01*
X205550D02*Y838250D01*
X206300Y837500D01*
X207800D01*
X208550Y838250D01*
Y840500D02*Y838250D01*
X211100Y843500D02*Y838250D01*
X211850Y837500D01*
X210350Y841250D02*X211850D01*
X213350Y843500D02*Y837500D01*
Y839750D02*X214100Y840500D01*
X215600D01*
X216350Y839750D01*
Y837500D01*
X218150Y839750D02*Y838250D01*
Y839750D02*X218900Y840500D01*
X220400D01*
X221150Y839750D01*
Y838250D01*
X220400Y837500D02*X221150Y838250D01*
X218900Y837500D02*X220400D01*
X218150Y838250D02*X218900Y837500D01*
X223700Y839750D02*Y837500D01*
Y839750D02*X224450Y840500D01*
X225950D01*
X222950D02*X223700Y839750D01*
X227750Y841250D02*X228500D01*
X227750Y839750D02*X228500D01*
X233000Y843500D02*Y837500D01*
X236000D01*
X237800Y839750D02*Y838250D01*
Y839750D02*X238550Y840500D01*
X240050D01*
X240800Y839750D01*
Y838250D01*
X240050Y837500D02*X240800Y838250D01*
X238550Y837500D02*X240050D01*
X237800Y838250D02*X238550Y837500D01*
X243350Y839750D02*Y837500D01*
Y839750D02*X244100Y840500D01*
X244850D01*
X245600Y839750D01*
Y837500D01*
X242600Y840500D02*X243350Y839750D01*
X249650Y840500D02*X250400Y839750D01*
X248150Y840500D02*X249650D01*
X247400Y839750D02*X248150Y840500D01*
X247400Y839750D02*Y838250D01*
X248150Y837500D01*
X249650D01*
X250400Y838250D01*
X247400Y836000D02*X248150Y835250D01*
X249650D01*
X250400Y836000D01*
Y840500D02*Y836000D01*
X254900Y843500D02*Y837500D01*
X257900D01*
X259700Y842000D02*Y841250D01*
Y839750D02*Y837500D01*
X200000Y858500D02*X203000D01*
X201500D02*Y852500D01*
X204800Y857000D02*Y856250D01*
Y854750D02*Y852500D01*
X207050Y858500D02*Y853250D01*
X207800Y852500D01*
X206300Y856250D02*X207800D01*
X209300Y858500D02*Y853250D01*
X210050Y852500D01*
X212300D02*X214550D01*
X211550Y853250D02*X212300Y852500D01*
X211550Y854750D02*Y853250D01*
Y854750D02*X212300Y855500D01*
X213800D01*
X214550Y854750D01*
X211550Y854000D02*X214550D01*
Y854750D02*Y854000D01*
X216350Y856250D02*X217100D01*
X216350Y854750D02*X217100D01*
X221600Y853250D02*X222350Y852500D01*
X221600Y857750D02*X222350Y858500D01*
X221600Y857750D02*Y853250D01*
X224150Y855500D02*Y853250D01*
X224900Y852500D01*
X226400D01*
X227150Y853250D01*
Y855500D02*Y853250D01*
X229700Y854750D02*Y852500D01*
Y854750D02*X230450Y855500D01*
X231200D01*
X231950Y854750D01*
Y852500D01*
X228950Y855500D02*X229700Y854750D01*
X233750Y858500D02*Y852500D01*
Y854750D02*X236000Y852500D01*
X233750Y854750D02*X235250Y856250D01*
X238550Y854750D02*Y852500D01*
Y854750D02*X239300Y855500D01*
X240050D01*
X240800Y854750D01*
Y852500D01*
X237800Y855500D02*X238550Y854750D01*
X242600D02*Y853250D01*
Y854750D02*X243350Y855500D01*
X244850D01*
X245600Y854750D01*
Y853250D01*
X244850Y852500D02*X245600Y853250D01*
X243350Y852500D02*X244850D01*
X242600Y853250D02*X243350Y852500D01*
X247400Y855500D02*Y853250D01*
X248150Y852500D01*
X248900D01*
X249650Y853250D01*
Y855500D02*Y853250D01*
X250400Y852500D01*
X251150D01*
X251900Y853250D01*
Y855500D02*Y853250D01*
X254450Y854750D02*Y852500D01*
Y854750D02*X255200Y855500D01*
X255950D01*
X256700Y854750D01*
Y852500D01*
X253700Y855500D02*X254450Y854750D01*
X258500Y858500D02*X259250Y857750D01*
Y853250D01*
X258500Y852500D02*X259250Y853250D01*
X263750Y855500D02*X266750D01*
X271250Y858500D02*Y852500D01*
Y858500D02*X274250D01*
X271250Y855500D02*X273500D01*
X278300D02*X279050Y854750D01*
X276800Y855500D02*X278300D01*
X276050Y854750D02*X276800Y855500D01*
X276050Y854750D02*Y853250D01*
X276800Y852500D01*
X279050Y855500D02*Y853250D01*
X279800Y852500D01*
X276800D02*X278300D01*
X279050Y853250D01*
X281600Y858500D02*Y852500D01*
Y853250D02*X282350Y852500D01*
X283850D01*
X284600Y853250D01*
Y854750D02*Y853250D01*
X283850Y855500D02*X284600Y854750D01*
X282350Y855500D02*X283850D01*
X281600Y854750D02*X282350Y855500D01*
X287150Y854750D02*Y852500D01*
Y854750D02*X287900Y855500D01*
X289400D01*
X286400D02*X287150Y854750D01*
X291200Y857000D02*Y856250D01*
Y854750D02*Y852500D01*
X293450Y855500D02*X295700D01*
X292700Y854750D02*X293450Y855500D01*
X292700Y854750D02*Y853250D01*
X293450Y852500D01*
X295700D01*
X299750Y855500D02*X300500Y854750D01*
X298250Y855500D02*X299750D01*
X297500Y854750D02*X298250Y855500D01*
X297500Y854750D02*Y853250D01*
X298250Y852500D01*
X300500Y855500D02*Y853250D01*
X301250Y852500D01*
X298250D02*X299750D01*
X300500Y853250D01*
X303800Y858500D02*Y853250D01*
X304550Y852500D01*
X303050Y856250D02*X304550D01*
X306050Y857000D02*Y856250D01*
Y854750D02*Y852500D01*
X307550Y854750D02*Y853250D01*
Y854750D02*X308300Y855500D01*
X309800D01*
X310550Y854750D01*
Y853250D01*
X309800Y852500D02*X310550Y853250D01*
X308300Y852500D02*X309800D01*
X307550Y853250D02*X308300Y852500D01*
X313100Y854750D02*Y852500D01*
Y854750D02*X313850Y855500D01*
X314600D01*
X315350Y854750D01*
Y852500D01*
X312350Y855500D02*X313100Y854750D01*
X320600Y858500D02*Y852500D01*
X322850Y858500D02*X323600Y857750D01*
Y853250D01*
X322850Y852500D02*X323600Y853250D01*
X319850Y852500D02*X322850D01*
X319850Y858500D02*X322850D01*
X326150Y854750D02*Y852500D01*
Y854750D02*X326900Y855500D01*
X328400D01*
X325400D02*X326150Y854750D01*
X332450Y855500D02*X333200Y854750D01*
X330950Y855500D02*X332450D01*
X330200Y854750D02*X330950Y855500D01*
X330200Y854750D02*Y853250D01*
X330950Y852500D01*
X333200Y855500D02*Y853250D01*
X333950Y852500D01*
X330950D02*X332450D01*
X333200Y853250D01*
X335750Y855500D02*Y853250D01*
X336500Y852500D01*
X337250D01*
X338000Y853250D01*
Y855500D02*Y853250D01*
X338750Y852500D01*
X339500D01*
X340250Y853250D01*
Y855500D02*Y853250D01*
X342050Y857000D02*Y856250D01*
Y854750D02*Y852500D01*
X344300Y854750D02*Y852500D01*
Y854750D02*X345050Y855500D01*
X345800D01*
X346550Y854750D01*
Y852500D01*
X343550Y855500D02*X344300Y854750D01*
X350600Y855500D02*X351350Y854750D01*
X349100Y855500D02*X350600D01*
X348350Y854750D02*X349100Y855500D01*
X348350Y854750D02*Y853250D01*
X349100Y852500D01*
X350600D01*
X351350Y853250D01*
X348350Y851000D02*X349100Y850250D01*
X350600D01*
X351350Y851000D01*
Y855500D02*Y851000D01*
M02*
