G04 start of page 6 for group -4063 idx -4063 *
G04 Title: (unknown), componentmask *
G04 Creator: pcb 20140316 *
G04 CreationDate: Tue 18 Oct 2016 08:42:36 AM GMT UTC *
G04 For: atommann *
G04 Format: Gerber/RS-274X *
G04 PCB-Dimensions (mil): 8000.00 8000.00 *
G04 PCB-Coordinate-Origin: lower left *
%MOIN*%
%FSLAX25Y25*%
%LNTOPMASK*%
%ADD38C,0.0001*%
%ADD37C,0.1480*%
%ADD36C,0.0660*%
G54D36*X205000Y150000D03*
Y250000D03*
G54D37*X300000Y231500D03*
Y250000D03*
Y268500D03*
X250000Y231500D03*
Y250000D03*
Y268500D03*
G54D36*X645000Y250000D03*
Y150000D03*
G54D37*X600000Y131500D03*
Y150000D03*
Y168500D03*
X550000Y131500D03*
Y150000D03*
Y168500D03*
X500000Y131500D03*
Y150000D03*
Y168500D03*
X450000Y131500D03*
Y150000D03*
Y168500D03*
X400000Y131500D03*
X300000D03*
X250000D03*
X400000Y150000D03*
X300000D03*
X250000D03*
X400000Y168500D03*
X300000D03*
X250000D03*
X350000Y131500D03*
Y150000D03*
Y168500D03*
G54D38*G36*
X556700Y323300D02*Y316700D01*
X563300D01*
Y323300D01*
X556700D01*
G37*
G54D36*X560000Y330000D03*
X570000Y320000D03*
Y330000D03*
X580000Y320000D03*
Y330000D03*
X590000Y320000D03*
G54D37*X600000Y231500D03*
Y250000D03*
Y268500D03*
G54D36*X590000Y330000D03*
X600000D03*
X610000D03*
X620000D03*
X630000D03*
X600000Y320000D03*
X610000D03*
X620000D03*
X630000D03*
G54D37*X550000Y231500D03*
Y250000D03*
Y268500D03*
M02*
