G04 start of page 3 for group 1 idx 3 *
G04 Title: (unknown), bottom *
G04 Creator: pcb 20140316 *
G04 CreationDate: Tue 18 Oct 2016 08:42:36 AM GMT UTC *
G04 For: atommann *
G04 Format: Gerber/RS-274X *
G04 PCB-Dimensions (mil): 8000.00 8000.00 *
G04 PCB-Coordinate-Origin: lower left *
%MOIN*%
%FSLAX25Y25*%
%LNBOTTOM*%
%ADD30C,0.0380*%
%ADD29C,0.0870*%
%ADD28C,0.1200*%
%ADD27C,0.0200*%
%ADD26C,0.0400*%
%ADD25C,0.0600*%
%ADD24C,0.1280*%
%ADD23C,0.2400*%
%ADD22C,0.0100*%
%ADD21C,0.0001*%
G54D21*G36*
X644979Y300000D02*X660000D01*
Y100000D01*
X644979D01*
Y136460D01*
X645000Y136458D01*
X647118Y136625D01*
X649185Y137121D01*
X651148Y137934D01*
X652960Y139045D01*
X654575Y140425D01*
X655955Y142040D01*
X657066Y143852D01*
X657879Y145815D01*
X658375Y147882D01*
X658500Y150000D01*
X658375Y152118D01*
X657879Y154185D01*
X657066Y156148D01*
X655955Y157960D01*
X654575Y159575D01*
X652960Y160955D01*
X651148Y162066D01*
X649185Y162879D01*
X647118Y163375D01*
X645000Y163542D01*
X644979Y163540D01*
Y236460D01*
X645000Y236458D01*
X647118Y236625D01*
X649185Y237121D01*
X651148Y237934D01*
X652960Y239045D01*
X654575Y240425D01*
X655955Y242040D01*
X657066Y243852D01*
X657879Y245815D01*
X658375Y247882D01*
X658500Y250000D01*
X658375Y252118D01*
X657879Y254185D01*
X657066Y256148D01*
X655955Y257960D01*
X654575Y259575D01*
X652960Y260955D01*
X651148Y262066D01*
X649185Y262879D01*
X647118Y263375D01*
X645000Y263542D01*
X644979Y263540D01*
Y300000D01*
G37*
G36*
X606216Y269996D02*X606293Y269665D01*
X606373Y269085D01*
X606400Y268500D01*
X606373Y267915D01*
X606293Y267335D01*
X606216Y267004D01*
Y269996D01*
G37*
G36*
Y169996D02*X606293Y169665D01*
X606373Y169085D01*
X606400Y168500D01*
X606373Y167915D01*
X606293Y167335D01*
X606216Y167004D01*
Y169996D01*
G37*
G36*
Y300000D02*X644979D01*
Y263540D01*
X642882Y263375D01*
X640815Y262879D01*
X638852Y262066D01*
X637040Y260955D01*
X635425Y259575D01*
X634045Y257960D01*
X632934Y256148D01*
X632121Y254185D01*
X631625Y252118D01*
X631458Y250000D01*
X631625Y247882D01*
X632121Y245815D01*
X632934Y243852D01*
X634045Y242040D01*
X635425Y240425D01*
X637040Y239045D01*
X638852Y237934D01*
X640815Y237121D01*
X642882Y236625D01*
X644979Y236460D01*
Y163540D01*
X642882Y163375D01*
X640815Y162879D01*
X638852Y162066D01*
X637040Y160955D01*
X635425Y159575D01*
X634045Y157960D01*
X632934Y156148D01*
X632121Y154185D01*
X631625Y152118D01*
X631458Y150000D01*
X631625Y147882D01*
X632121Y145815D01*
X632934Y143852D01*
X634045Y142040D01*
X635425Y140425D01*
X637040Y139045D01*
X638852Y137934D01*
X640815Y137121D01*
X642882Y136625D01*
X644979Y136460D01*
Y100000D01*
X606216D01*
Y127481D01*
X606614Y128130D01*
X607060Y129206D01*
X607331Y130339D01*
X607400Y131500D01*
X607331Y132661D01*
X607060Y133794D01*
X606614Y134870D01*
X606216Y135519D01*
Y145981D01*
X606614Y146630D01*
X607060Y147706D01*
X607331Y148839D01*
X607400Y150000D01*
X607331Y151161D01*
X607060Y152294D01*
X606614Y153370D01*
X606216Y154019D01*
Y164486D01*
X606319Y164635D01*
X606646Y165228D01*
X606917Y165849D01*
X607130Y166492D01*
X607284Y167152D01*
X607377Y167823D01*
X607408Y168500D01*
X607377Y169177D01*
X607284Y169848D01*
X607130Y170508D01*
X606917Y171151D01*
X606646Y171772D01*
X606319Y172365D01*
X606216Y172518D01*
Y227481D01*
X606614Y228130D01*
X607060Y229206D01*
X607331Y230339D01*
X607400Y231500D01*
X607331Y232661D01*
X607060Y233794D01*
X606614Y234870D01*
X606216Y235519D01*
Y245981D01*
X606614Y246630D01*
X607060Y247706D01*
X607331Y248839D01*
X607400Y250000D01*
X607331Y251161D01*
X607060Y252294D01*
X606614Y253370D01*
X606216Y254019D01*
Y264486D01*
X606319Y264635D01*
X606646Y265228D01*
X606917Y265849D01*
X607130Y266492D01*
X607284Y267152D01*
X607377Y267823D01*
X607408Y268500D01*
X607377Y269177D01*
X607284Y269848D01*
X607130Y270508D01*
X606917Y271151D01*
X606646Y271772D01*
X606319Y272365D01*
X606216Y272518D01*
Y300000D01*
G37*
G36*
Y235519D02*X606005Y235863D01*
X605249Y236749D01*
X604363Y237505D01*
X603370Y238114D01*
X602294Y238560D01*
X601161Y238831D01*
X600000Y238923D01*
X599989Y238922D01*
Y242578D01*
X600000Y242577D01*
X601161Y242669D01*
X602294Y242940D01*
X603370Y243386D01*
X604363Y243995D01*
X605249Y244751D01*
X606005Y245637D01*
X606216Y245981D01*
Y235519D01*
G37*
G36*
Y154019D02*X606005Y154363D01*
X605249Y155249D01*
X604363Y156005D01*
X603370Y156614D01*
X602294Y157060D01*
X601161Y157331D01*
X600000Y157423D01*
X599989Y157422D01*
Y161093D01*
X600000Y161092D01*
X600677Y161123D01*
X601348Y161216D01*
X602008Y161370D01*
X602651Y161583D01*
X603272Y161854D01*
X603865Y162181D01*
X604427Y162560D01*
X604487Y162612D01*
X604538Y162674D01*
X604579Y162742D01*
X604609Y162816D01*
X604626Y162894D01*
X604631Y162974D01*
X604624Y163053D01*
X604605Y163130D01*
X604573Y163204D01*
X604531Y163271D01*
X604478Y163331D01*
X604417Y163382D01*
X604348Y163423D01*
X604274Y163453D01*
X604197Y163470D01*
X604117Y163476D01*
X604038Y163468D01*
X603960Y163449D01*
X603887Y163418D01*
X603820Y163374D01*
X603340Y163040D01*
X602827Y162758D01*
X602290Y162524D01*
X601735Y162340D01*
X601165Y162207D01*
X600585Y162127D01*
X600000Y162100D01*
X599989Y162101D01*
Y174899D01*
X600000Y174900D01*
X600585Y174873D01*
X601165Y174793D01*
X601735Y174660D01*
X602290Y174476D01*
X602827Y174242D01*
X603340Y173960D01*
X603824Y173632D01*
X603890Y173588D01*
X603962Y173557D01*
X604039Y173538D01*
X604117Y173531D01*
X604196Y173536D01*
X604272Y173554D01*
X604346Y173583D01*
X604413Y173623D01*
X604474Y173674D01*
X604525Y173733D01*
X604567Y173799D01*
X604598Y173872D01*
X604618Y173948D01*
X604625Y174026D01*
X604620Y174105D01*
X604602Y174182D01*
X604573Y174255D01*
X604533Y174322D01*
X604482Y174383D01*
X604422Y174433D01*
X603865Y174819D01*
X603272Y175146D01*
X602651Y175417D01*
X602008Y175630D01*
X601348Y175784D01*
X600677Y175877D01*
X600000Y175908D01*
X599989Y175907D01*
Y224078D01*
X600000Y224077D01*
X601161Y224169D01*
X602294Y224440D01*
X603370Y224886D01*
X604363Y225495D01*
X605249Y226251D01*
X606005Y227137D01*
X606216Y227481D01*
Y172518D01*
X605940Y172927D01*
X605888Y172987D01*
X605826Y173038D01*
X605758Y173079D01*
X605684Y173109D01*
X605606Y173126D01*
X605526Y173131D01*
X605447Y173124D01*
X605370Y173105D01*
X605296Y173073D01*
X605229Y173031D01*
X605169Y172978D01*
X605118Y172917D01*
X605077Y172848D01*
X605047Y172774D01*
X605030Y172697D01*
X605024Y172617D01*
X605032Y172538D01*
X605051Y172460D01*
X605082Y172387D01*
X605126Y172320D01*
X605460Y171840D01*
X605742Y171327D01*
X605976Y170790D01*
X606160Y170235D01*
X606216Y169996D01*
Y167004D01*
X606160Y166765D01*
X605976Y166210D01*
X605742Y165673D01*
X605460Y165160D01*
X605132Y164676D01*
X605088Y164610D01*
X605057Y164538D01*
X605038Y164461D01*
X605031Y164383D01*
X605036Y164304D01*
X605054Y164228D01*
X605083Y164154D01*
X605123Y164087D01*
X605174Y164026D01*
X605233Y163975D01*
X605299Y163933D01*
X605372Y163902D01*
X605448Y163882D01*
X605526Y163875D01*
X605605Y163880D01*
X605682Y163898D01*
X605755Y163927D01*
X605822Y163967D01*
X605883Y164018D01*
X605933Y164078D01*
X606216Y164486D01*
Y154019D01*
G37*
G36*
Y135519D02*X606005Y135863D01*
X605249Y136749D01*
X604363Y137505D01*
X603370Y138114D01*
X602294Y138560D01*
X601161Y138831D01*
X600000Y138923D01*
X599989Y138922D01*
Y142578D01*
X600000Y142577D01*
X601161Y142669D01*
X602294Y142940D01*
X603370Y143386D01*
X604363Y143995D01*
X605249Y144751D01*
X606005Y145637D01*
X606216Y145981D01*
Y135519D01*
G37*
G36*
Y100000D02*X599989D01*
Y124078D01*
X600000Y124077D01*
X601161Y124169D01*
X602294Y124440D01*
X603370Y124886D01*
X604363Y125495D01*
X605249Y126251D01*
X606005Y127137D01*
X606216Y127481D01*
Y100000D01*
G37*
G36*
X599989Y300000D02*X606216D01*
Y272518D01*
X605940Y272927D01*
X605888Y272987D01*
X605826Y273038D01*
X605758Y273079D01*
X605684Y273109D01*
X605606Y273126D01*
X605526Y273131D01*
X605447Y273124D01*
X605370Y273105D01*
X605296Y273073D01*
X605229Y273031D01*
X605169Y272978D01*
X605118Y272917D01*
X605077Y272848D01*
X605047Y272774D01*
X605030Y272697D01*
X605024Y272617D01*
X605032Y272538D01*
X605051Y272460D01*
X605082Y272387D01*
X605126Y272320D01*
X605460Y271840D01*
X605742Y271327D01*
X605976Y270790D01*
X606160Y270235D01*
X606216Y269996D01*
Y267004D01*
X606160Y266765D01*
X605976Y266210D01*
X605742Y265673D01*
X605460Y265160D01*
X605132Y264676D01*
X605088Y264610D01*
X605057Y264538D01*
X605038Y264461D01*
X605031Y264383D01*
X605036Y264304D01*
X605054Y264228D01*
X605083Y264154D01*
X605123Y264087D01*
X605174Y264026D01*
X605233Y263975D01*
X605299Y263933D01*
X605372Y263902D01*
X605448Y263882D01*
X605526Y263875D01*
X605605Y263880D01*
X605682Y263898D01*
X605755Y263927D01*
X605822Y263967D01*
X605883Y264018D01*
X605933Y264078D01*
X606216Y264486D01*
Y254019D01*
X606005Y254363D01*
X605249Y255249D01*
X604363Y256005D01*
X603370Y256614D01*
X602294Y257060D01*
X601161Y257331D01*
X600000Y257423D01*
X599989Y257422D01*
Y261093D01*
X600000Y261092D01*
X600677Y261123D01*
X601348Y261216D01*
X602008Y261370D01*
X602651Y261583D01*
X603272Y261854D01*
X603865Y262181D01*
X604427Y262560D01*
X604487Y262612D01*
X604538Y262674D01*
X604579Y262742D01*
X604609Y262816D01*
X604626Y262894D01*
X604631Y262974D01*
X604624Y263053D01*
X604605Y263130D01*
X604573Y263204D01*
X604531Y263271D01*
X604478Y263331D01*
X604417Y263382D01*
X604348Y263423D01*
X604274Y263453D01*
X604197Y263470D01*
X604117Y263476D01*
X604038Y263468D01*
X603960Y263449D01*
X603887Y263418D01*
X603820Y263374D01*
X603340Y263040D01*
X602827Y262758D01*
X602290Y262524D01*
X601735Y262340D01*
X601165Y262207D01*
X600585Y262127D01*
X600000Y262100D01*
X599989Y262101D01*
Y274899D01*
X600000Y274900D01*
X600585Y274873D01*
X601165Y274793D01*
X601735Y274660D01*
X602290Y274476D01*
X602827Y274242D01*
X603340Y273960D01*
X603824Y273632D01*
X603890Y273588D01*
X603962Y273557D01*
X604039Y273538D01*
X604117Y273531D01*
X604196Y273536D01*
X604272Y273554D01*
X604346Y273583D01*
X604413Y273623D01*
X604474Y273674D01*
X604525Y273733D01*
X604567Y273799D01*
X604598Y273872D01*
X604618Y273948D01*
X604625Y274026D01*
X604620Y274105D01*
X604602Y274182D01*
X604573Y274255D01*
X604533Y274322D01*
X604482Y274383D01*
X604422Y274433D01*
X603865Y274819D01*
X603272Y275146D01*
X602651Y275417D01*
X602008Y275630D01*
X601348Y275784D01*
X600677Y275877D01*
X600000Y275908D01*
X599989Y275907D01*
Y287500D01*
X600401D01*
X600565Y287231D01*
X600872Y286872D01*
X601231Y286565D01*
X601634Y286319D01*
X602070Y286138D01*
X602529Y286028D01*
X603000Y285991D01*
X603471Y286028D01*
X603930Y286138D01*
X604366Y286319D01*
X604769Y286565D01*
X605128Y286872D01*
X605435Y287231D01*
X605681Y287634D01*
X605862Y288070D01*
X605972Y288529D01*
X606000Y289000D01*
X605972Y289471D01*
X605862Y289930D01*
X605681Y290366D01*
X605435Y290769D01*
X605128Y291128D01*
X604769Y291435D01*
X604366Y291681D01*
X603930Y291862D01*
X603471Y291972D01*
X603000Y292009D01*
X602529Y291972D01*
X602070Y291862D01*
X601634Y291681D01*
X601231Y291435D01*
X600872Y291128D01*
X600565Y290769D01*
X600401Y290500D01*
X599989D01*
Y300000D01*
G37*
G36*
X593784Y145981D02*X593995Y145637D01*
X594751Y144751D01*
X595637Y143995D01*
X596630Y143386D01*
X597706Y142940D01*
X598839Y142669D01*
X599989Y142578D01*
Y138922D01*
X598839Y138831D01*
X597706Y138560D01*
X596630Y138114D01*
X595637Y137505D01*
X594751Y136749D01*
X593995Y135863D01*
X593784Y135519D01*
Y145981D01*
G37*
G36*
Y227481D02*X593995Y227137D01*
X594751Y226251D01*
X595637Y225495D01*
X596630Y224886D01*
X597706Y224440D01*
X598839Y224169D01*
X599989Y224078D01*
Y175907D01*
X599323Y175877D01*
X598652Y175784D01*
X597992Y175630D01*
X597349Y175417D01*
X596728Y175146D01*
X596135Y174819D01*
X595573Y174440D01*
X595513Y174388D01*
X595462Y174326D01*
X595421Y174258D01*
X595391Y174184D01*
X595374Y174106D01*
X595369Y174026D01*
X595376Y173947D01*
X595395Y173870D01*
X595427Y173796D01*
X595469Y173729D01*
X595522Y173669D01*
X595583Y173618D01*
X595652Y173577D01*
X595726Y173547D01*
X595803Y173530D01*
X595883Y173524D01*
X595962Y173532D01*
X596040Y173551D01*
X596113Y173582D01*
X596180Y173626D01*
X596660Y173960D01*
X597173Y174242D01*
X597710Y174476D01*
X598265Y174660D01*
X598835Y174793D01*
X599415Y174873D01*
X599989Y174899D01*
Y162101D01*
X599415Y162127D01*
X598835Y162207D01*
X598265Y162340D01*
X597710Y162524D01*
X597173Y162758D01*
X596660Y163040D01*
X596176Y163368D01*
X596110Y163412D01*
X596038Y163443D01*
X595961Y163462D01*
X595883Y163469D01*
X595804Y163464D01*
X595728Y163446D01*
X595654Y163417D01*
X595587Y163377D01*
X595526Y163326D01*
X595475Y163267D01*
X595433Y163201D01*
X595402Y163128D01*
X595382Y163052D01*
X595375Y162974D01*
X595380Y162895D01*
X595398Y162818D01*
X595427Y162745D01*
X595467Y162678D01*
X595518Y162617D01*
X595578Y162567D01*
X596135Y162181D01*
X596728Y161854D01*
X597349Y161583D01*
X597992Y161370D01*
X598652Y161216D01*
X599323Y161123D01*
X599989Y161093D01*
Y157422D01*
X598839Y157331D01*
X597706Y157060D01*
X596630Y156614D01*
X595637Y156005D01*
X594751Y155249D01*
X593995Y154363D01*
X593784Y154019D01*
Y164482D01*
X594060Y164073D01*
X594112Y164013D01*
X594174Y163962D01*
X594242Y163921D01*
X594316Y163891D01*
X594394Y163874D01*
X594474Y163869D01*
X594553Y163876D01*
X594630Y163895D01*
X594704Y163927D01*
X594771Y163969D01*
X594831Y164022D01*
X594882Y164083D01*
X594923Y164152D01*
X594953Y164226D01*
X594970Y164303D01*
X594976Y164383D01*
X594968Y164462D01*
X594949Y164540D01*
X594918Y164613D01*
X594874Y164680D01*
X594540Y165160D01*
X594258Y165673D01*
X594024Y166210D01*
X593840Y166765D01*
X593784Y167004D01*
Y169996D01*
X593840Y170235D01*
X594024Y170790D01*
X594258Y171327D01*
X594540Y171840D01*
X594868Y172324D01*
X594912Y172390D01*
X594943Y172462D01*
X594962Y172539D01*
X594969Y172617D01*
X594964Y172696D01*
X594946Y172772D01*
X594917Y172846D01*
X594877Y172913D01*
X594826Y172974D01*
X594767Y173025D01*
X594701Y173067D01*
X594628Y173098D01*
X594552Y173118D01*
X594474Y173125D01*
X594395Y173120D01*
X594318Y173102D01*
X594245Y173073D01*
X594178Y173033D01*
X594117Y172982D01*
X594067Y172922D01*
X593784Y172514D01*
Y227481D01*
G37*
G36*
Y245981D02*X593995Y245637D01*
X594751Y244751D01*
X595637Y243995D01*
X596630Y243386D01*
X597706Y242940D01*
X598839Y242669D01*
X599989Y242578D01*
Y238922D01*
X598839Y238831D01*
X597706Y238560D01*
X596630Y238114D01*
X595637Y237505D01*
X594751Y236749D01*
X593995Y235863D01*
X593784Y235519D01*
Y245981D01*
G37*
G36*
Y287500D02*X599989D01*
Y275907D01*
X599323Y275877D01*
X598652Y275784D01*
X597992Y275630D01*
X597349Y275417D01*
X596728Y275146D01*
X596135Y274819D01*
X595573Y274440D01*
X595513Y274388D01*
X595462Y274326D01*
X595421Y274258D01*
X595391Y274184D01*
X595374Y274106D01*
X595369Y274026D01*
X595376Y273947D01*
X595395Y273870D01*
X595427Y273796D01*
X595469Y273729D01*
X595522Y273669D01*
X595583Y273618D01*
X595652Y273577D01*
X595726Y273547D01*
X595803Y273530D01*
X595883Y273524D01*
X595962Y273532D01*
X596040Y273551D01*
X596113Y273582D01*
X596180Y273626D01*
X596660Y273960D01*
X597173Y274242D01*
X597710Y274476D01*
X598265Y274660D01*
X598835Y274793D01*
X599415Y274873D01*
X599989Y274899D01*
Y262101D01*
X599415Y262127D01*
X598835Y262207D01*
X598265Y262340D01*
X597710Y262524D01*
X597173Y262758D01*
X596660Y263040D01*
X596176Y263368D01*
X596110Y263412D01*
X596038Y263443D01*
X595961Y263462D01*
X595883Y263469D01*
X595804Y263464D01*
X595728Y263446D01*
X595654Y263417D01*
X595587Y263377D01*
X595526Y263326D01*
X595475Y263267D01*
X595433Y263201D01*
X595402Y263128D01*
X595382Y263052D01*
X595375Y262974D01*
X595380Y262895D01*
X595398Y262818D01*
X595427Y262745D01*
X595467Y262678D01*
X595518Y262617D01*
X595578Y262567D01*
X596135Y262181D01*
X596728Y261854D01*
X597349Y261583D01*
X597992Y261370D01*
X598652Y261216D01*
X599323Y261123D01*
X599989Y261093D01*
Y257422D01*
X598839Y257331D01*
X597706Y257060D01*
X596630Y256614D01*
X595637Y256005D01*
X594751Y255249D01*
X593995Y254363D01*
X593784Y254019D01*
Y264482D01*
X594060Y264073D01*
X594112Y264013D01*
X594174Y263962D01*
X594242Y263921D01*
X594316Y263891D01*
X594394Y263874D01*
X594474Y263869D01*
X594553Y263876D01*
X594630Y263895D01*
X594704Y263927D01*
X594771Y263969D01*
X594831Y264022D01*
X594882Y264083D01*
X594923Y264152D01*
X594953Y264226D01*
X594970Y264303D01*
X594976Y264383D01*
X594968Y264462D01*
X594949Y264540D01*
X594918Y264613D01*
X594874Y264680D01*
X594540Y265160D01*
X594258Y265673D01*
X594024Y266210D01*
X593840Y266765D01*
X593784Y267004D01*
Y269996D01*
X593840Y270235D01*
X594024Y270790D01*
X594258Y271327D01*
X594540Y271840D01*
X594868Y272324D01*
X594912Y272390D01*
X594943Y272462D01*
X594962Y272539D01*
X594969Y272617D01*
X594964Y272696D01*
X594946Y272772D01*
X594917Y272846D01*
X594877Y272913D01*
X594826Y272974D01*
X594767Y273025D01*
X594701Y273067D01*
X594628Y273098D01*
X594552Y273118D01*
X594474Y273125D01*
X594395Y273120D01*
X594318Y273102D01*
X594245Y273073D01*
X594178Y273033D01*
X594117Y272982D01*
X594067Y272922D01*
X593784Y272514D01*
Y287500D01*
G37*
G36*
X599989Y100000D02*X593784D01*
Y127481D01*
X593995Y127137D01*
X594751Y126251D01*
X595637Y125495D01*
X596630Y124886D01*
X597706Y124440D01*
X598839Y124169D01*
X599989Y124078D01*
Y100000D01*
G37*
G36*
X593784Y267004D02*X593707Y267335D01*
X593627Y267915D01*
X593600Y268500D01*
X593627Y269085D01*
X593707Y269665D01*
X593784Y269996D01*
Y267004D01*
G37*
G36*
Y167004D02*X593707Y167335D01*
X593627Y167915D01*
X593600Y168500D01*
X593627Y169085D01*
X593707Y169665D01*
X593784Y169996D01*
Y167004D01*
G37*
G36*
Y100000D02*X561995D01*
Y287500D01*
X593784D01*
Y272514D01*
X593681Y272365D01*
X593354Y271772D01*
X593083Y271151D01*
X592870Y270508D01*
X592716Y269848D01*
X592623Y269177D01*
X592592Y268500D01*
X592623Y267823D01*
X592716Y267152D01*
X592870Y266492D01*
X593083Y265849D01*
X593354Y265228D01*
X593681Y264635D01*
X593784Y264482D01*
Y254019D01*
X593386Y253370D01*
X592940Y252294D01*
X592669Y251161D01*
X592577Y250000D01*
X592669Y248839D01*
X592940Y247706D01*
X593386Y246630D01*
X593784Y245981D01*
Y235519D01*
X593386Y234870D01*
X592940Y233794D01*
X592669Y232661D01*
X592577Y231500D01*
X592669Y230339D01*
X592940Y229206D01*
X593386Y228130D01*
X593784Y227481D01*
Y172514D01*
X593681Y172365D01*
X593354Y171772D01*
X593083Y171151D01*
X592870Y170508D01*
X592716Y169848D01*
X592623Y169177D01*
X592592Y168500D01*
X592623Y167823D01*
X592716Y167152D01*
X592870Y166492D01*
X593083Y165849D01*
X593354Y165228D01*
X593681Y164635D01*
X593784Y164482D01*
Y154019D01*
X593386Y153370D01*
X592940Y152294D01*
X592669Y151161D01*
X592577Y150000D01*
X592669Y148839D01*
X592940Y147706D01*
X593386Y146630D01*
X593784Y145981D01*
Y135519D01*
X593386Y134870D01*
X592940Y133794D01*
X592669Y132661D01*
X592577Y131500D01*
X592669Y130339D01*
X592940Y129206D01*
X593386Y128130D01*
X593784Y127481D01*
Y100000D01*
G37*
G36*
X561995Y300000D02*X599989D01*
Y290500D01*
X561995D01*
Y293500D01*
X593401D01*
X593565Y293231D01*
X593872Y292872D01*
X594231Y292565D01*
X594634Y292319D01*
X595070Y292138D01*
X595529Y292028D01*
X596000Y291991D01*
X596471Y292028D01*
X596930Y292138D01*
X597366Y292319D01*
X597769Y292565D01*
X598128Y292872D01*
X598435Y293231D01*
X598681Y293634D01*
X598862Y294070D01*
X598972Y294529D01*
X599000Y295000D01*
X598972Y295471D01*
X598862Y295930D01*
X598681Y296366D01*
X598435Y296769D01*
X598128Y297128D01*
X597769Y297435D01*
X597366Y297681D01*
X596930Y297862D01*
X596471Y297972D01*
X596000Y298009D01*
X595529Y297972D01*
X595070Y297862D01*
X594634Y297681D01*
X594231Y297435D01*
X593872Y297128D01*
X593565Y296769D01*
X593401Y296500D01*
X561995D01*
Y300000D01*
G37*
G36*
X556216Y169996D02*X556293Y169665D01*
X556373Y169085D01*
X556400Y168500D01*
X556373Y167915D01*
X556293Y167335D01*
X556216Y167004D01*
Y169996D01*
G37*
G36*
Y287500D02*X561995D01*
Y100000D01*
X556216D01*
Y127481D01*
X556614Y128130D01*
X557060Y129206D01*
X557331Y130339D01*
X557400Y131500D01*
X557331Y132661D01*
X557060Y133794D01*
X556614Y134870D01*
X556216Y135519D01*
Y145981D01*
X556614Y146630D01*
X557060Y147706D01*
X557331Y148839D01*
X557400Y150000D01*
X557331Y151161D01*
X557060Y152294D01*
X556614Y153370D01*
X556216Y154019D01*
Y164486D01*
X556319Y164635D01*
X556646Y165228D01*
X556917Y165849D01*
X557130Y166492D01*
X557284Y167152D01*
X557377Y167823D01*
X557408Y168500D01*
X557377Y169177D01*
X557284Y169848D01*
X557130Y170508D01*
X556917Y171151D01*
X556646Y171772D01*
X556319Y172365D01*
X556216Y172518D01*
Y227481D01*
X556614Y228130D01*
X557060Y229206D01*
X557331Y230339D01*
X557400Y231500D01*
X557331Y232661D01*
X557060Y233794D01*
X556614Y234870D01*
X556216Y235519D01*
Y245981D01*
X556614Y246630D01*
X557060Y247706D01*
X557331Y248839D01*
X557400Y250000D01*
X557331Y251161D01*
X557060Y252294D01*
X556614Y253370D01*
X556216Y254019D01*
Y264481D01*
X556614Y265130D01*
X557060Y266206D01*
X557331Y267339D01*
X557400Y268500D01*
X557331Y269661D01*
X557060Y270794D01*
X556614Y271870D01*
X556216Y272519D01*
Y287500D01*
G37*
G36*
Y254019D02*X556005Y254363D01*
X555249Y255249D01*
X554363Y256005D01*
X553370Y256614D01*
X552294Y257060D01*
X551161Y257331D01*
X550000Y257423D01*
X549989Y257422D01*
Y261078D01*
X550000Y261077D01*
X551161Y261169D01*
X552294Y261440D01*
X553370Y261886D01*
X554363Y262495D01*
X555249Y263251D01*
X556005Y264137D01*
X556216Y264481D01*
Y254019D01*
G37*
G36*
Y235519D02*X556005Y235863D01*
X555249Y236749D01*
X554363Y237505D01*
X553370Y238114D01*
X552294Y238560D01*
X551161Y238831D01*
X550000Y238923D01*
X549989Y238922D01*
Y242578D01*
X550000Y242577D01*
X551161Y242669D01*
X552294Y242940D01*
X553370Y243386D01*
X554363Y243995D01*
X555249Y244751D01*
X556005Y245637D01*
X556216Y245981D01*
Y235519D01*
G37*
G36*
Y154019D02*X556005Y154363D01*
X555249Y155249D01*
X554363Y156005D01*
X553370Y156614D01*
X552294Y157060D01*
X551161Y157331D01*
X550000Y157423D01*
X549989Y157422D01*
Y161093D01*
X550000Y161092D01*
X550677Y161123D01*
X551348Y161216D01*
X552008Y161370D01*
X552651Y161583D01*
X553272Y161854D01*
X553865Y162181D01*
X554427Y162560D01*
X554487Y162612D01*
X554538Y162674D01*
X554579Y162742D01*
X554609Y162816D01*
X554626Y162894D01*
X554631Y162974D01*
X554624Y163053D01*
X554605Y163130D01*
X554573Y163204D01*
X554531Y163271D01*
X554478Y163331D01*
X554417Y163382D01*
X554348Y163423D01*
X554274Y163453D01*
X554197Y163470D01*
X554117Y163476D01*
X554038Y163468D01*
X553960Y163449D01*
X553887Y163418D01*
X553820Y163374D01*
X553340Y163040D01*
X552827Y162758D01*
X552290Y162524D01*
X551735Y162340D01*
X551165Y162207D01*
X550585Y162127D01*
X550000Y162100D01*
X549989Y162101D01*
Y174899D01*
X550000Y174900D01*
X550585Y174873D01*
X551165Y174793D01*
X551735Y174660D01*
X552290Y174476D01*
X552827Y174242D01*
X553340Y173960D01*
X553824Y173632D01*
X553890Y173588D01*
X553962Y173557D01*
X554039Y173538D01*
X554117Y173531D01*
X554196Y173536D01*
X554272Y173554D01*
X554346Y173583D01*
X554413Y173623D01*
X554474Y173674D01*
X554525Y173733D01*
X554567Y173799D01*
X554598Y173872D01*
X554618Y173948D01*
X554625Y174026D01*
X554620Y174105D01*
X554602Y174182D01*
X554573Y174255D01*
X554533Y174322D01*
X554482Y174383D01*
X554422Y174433D01*
X553865Y174819D01*
X553272Y175146D01*
X552651Y175417D01*
X552008Y175630D01*
X551348Y175784D01*
X550677Y175877D01*
X550000Y175908D01*
X549989Y175907D01*
Y224078D01*
X550000Y224077D01*
X551161Y224169D01*
X552294Y224440D01*
X553370Y224886D01*
X554363Y225495D01*
X555249Y226251D01*
X556005Y227137D01*
X556216Y227481D01*
Y172518D01*
X555940Y172927D01*
X555888Y172987D01*
X555826Y173038D01*
X555758Y173079D01*
X555684Y173109D01*
X555606Y173126D01*
X555526Y173131D01*
X555447Y173124D01*
X555370Y173105D01*
X555296Y173073D01*
X555229Y173031D01*
X555169Y172978D01*
X555118Y172917D01*
X555077Y172848D01*
X555047Y172774D01*
X555030Y172697D01*
X555024Y172617D01*
X555032Y172538D01*
X555051Y172460D01*
X555082Y172387D01*
X555126Y172320D01*
X555460Y171840D01*
X555742Y171327D01*
X555976Y170790D01*
X556160Y170235D01*
X556216Y169996D01*
Y167004D01*
X556160Y166765D01*
X555976Y166210D01*
X555742Y165673D01*
X555460Y165160D01*
X555132Y164676D01*
X555088Y164610D01*
X555057Y164538D01*
X555038Y164461D01*
X555031Y164383D01*
X555036Y164304D01*
X555054Y164228D01*
X555083Y164154D01*
X555123Y164087D01*
X555174Y164026D01*
X555233Y163975D01*
X555299Y163933D01*
X555372Y163902D01*
X555448Y163882D01*
X555526Y163875D01*
X555605Y163880D01*
X555682Y163898D01*
X555755Y163927D01*
X555822Y163967D01*
X555883Y164018D01*
X555933Y164078D01*
X556216Y164486D01*
Y154019D01*
G37*
G36*
Y135519D02*X556005Y135863D01*
X555249Y136749D01*
X554363Y137505D01*
X553370Y138114D01*
X552294Y138560D01*
X551161Y138831D01*
X550000Y138923D01*
X549989Y138922D01*
Y142578D01*
X550000Y142577D01*
X551161Y142669D01*
X552294Y142940D01*
X553370Y143386D01*
X554363Y143995D01*
X555249Y144751D01*
X556005Y145637D01*
X556216Y145981D01*
Y135519D01*
G37*
G36*
Y100000D02*X549989D01*
Y124078D01*
X550000Y124077D01*
X551161Y124169D01*
X552294Y124440D01*
X553370Y124886D01*
X554363Y125495D01*
X555249Y126251D01*
X556005Y127137D01*
X556216Y127481D01*
Y100000D01*
G37*
G36*
X549989Y287500D02*X556216D01*
Y272519D01*
X556005Y272863D01*
X555249Y273749D01*
X554363Y274505D01*
X553370Y275114D01*
X552294Y275560D01*
X551161Y275831D01*
X550000Y275923D01*
X549989Y275922D01*
Y287500D01*
G37*
G36*
Y293500D02*X561995D01*
Y290500D01*
X549989D01*
Y293500D01*
G37*
G36*
Y300000D02*X561995D01*
Y296500D01*
X549989D01*
Y300000D01*
G37*
G36*
X543784Y127481D02*X543995Y127137D01*
X544751Y126251D01*
X545637Y125495D01*
X546630Y124886D01*
X547706Y124440D01*
X548839Y124169D01*
X549989Y124078D01*
Y100000D01*
X543784D01*
Y127481D01*
G37*
G36*
Y145981D02*X543995Y145637D01*
X544751Y144751D01*
X545637Y143995D01*
X546630Y143386D01*
X547706Y142940D01*
X548839Y142669D01*
X549989Y142578D01*
Y138922D01*
X548839Y138831D01*
X547706Y138560D01*
X546630Y138114D01*
X545637Y137505D01*
X544751Y136749D01*
X543995Y135863D01*
X543784Y135519D01*
Y145981D01*
G37*
G36*
Y227481D02*X543995Y227137D01*
X544751Y226251D01*
X545637Y225495D01*
X546630Y224886D01*
X547706Y224440D01*
X548839Y224169D01*
X549989Y224078D01*
Y175907D01*
X549323Y175877D01*
X548652Y175784D01*
X547992Y175630D01*
X547349Y175417D01*
X546728Y175146D01*
X546135Y174819D01*
X545573Y174440D01*
X545513Y174388D01*
X545462Y174326D01*
X545421Y174258D01*
X545391Y174184D01*
X545374Y174106D01*
X545369Y174026D01*
X545376Y173947D01*
X545395Y173870D01*
X545427Y173796D01*
X545469Y173729D01*
X545522Y173669D01*
X545583Y173618D01*
X545652Y173577D01*
X545726Y173547D01*
X545803Y173530D01*
X545883Y173524D01*
X545962Y173532D01*
X546040Y173551D01*
X546113Y173582D01*
X546180Y173626D01*
X546660Y173960D01*
X547173Y174242D01*
X547710Y174476D01*
X548265Y174660D01*
X548835Y174793D01*
X549415Y174873D01*
X549989Y174899D01*
Y162101D01*
X549415Y162127D01*
X548835Y162207D01*
X548265Y162340D01*
X547710Y162524D01*
X547173Y162758D01*
X546660Y163040D01*
X546176Y163368D01*
X546110Y163412D01*
X546038Y163443D01*
X545961Y163462D01*
X545883Y163469D01*
X545804Y163464D01*
X545728Y163446D01*
X545654Y163417D01*
X545587Y163377D01*
X545526Y163326D01*
X545475Y163267D01*
X545433Y163201D01*
X545402Y163128D01*
X545382Y163052D01*
X545375Y162974D01*
X545380Y162895D01*
X545398Y162818D01*
X545427Y162745D01*
X545467Y162678D01*
X545518Y162617D01*
X545578Y162567D01*
X546135Y162181D01*
X546728Y161854D01*
X547349Y161583D01*
X547992Y161370D01*
X548652Y161216D01*
X549323Y161123D01*
X549989Y161093D01*
Y157422D01*
X548839Y157331D01*
X547706Y157060D01*
X546630Y156614D01*
X545637Y156005D01*
X544751Y155249D01*
X543995Y154363D01*
X543784Y154019D01*
Y164482D01*
X544060Y164073D01*
X544112Y164013D01*
X544174Y163962D01*
X544242Y163921D01*
X544316Y163891D01*
X544394Y163874D01*
X544474Y163869D01*
X544553Y163876D01*
X544630Y163895D01*
X544704Y163927D01*
X544771Y163969D01*
X544831Y164022D01*
X544882Y164083D01*
X544923Y164152D01*
X544953Y164226D01*
X544970Y164303D01*
X544976Y164383D01*
X544968Y164462D01*
X544949Y164540D01*
X544918Y164613D01*
X544874Y164680D01*
X544540Y165160D01*
X544258Y165673D01*
X544024Y166210D01*
X543840Y166765D01*
X543784Y167004D01*
Y169996D01*
X543840Y170235D01*
X544024Y170790D01*
X544258Y171327D01*
X544540Y171840D01*
X544868Y172324D01*
X544912Y172390D01*
X544943Y172462D01*
X544962Y172539D01*
X544969Y172617D01*
X544964Y172696D01*
X544946Y172772D01*
X544917Y172846D01*
X544877Y172913D01*
X544826Y172974D01*
X544767Y173025D01*
X544701Y173067D01*
X544628Y173098D01*
X544552Y173118D01*
X544474Y173125D01*
X544395Y173120D01*
X544318Y173102D01*
X544245Y173073D01*
X544178Y173033D01*
X544117Y172982D01*
X544067Y172922D01*
X543784Y172514D01*
Y227481D01*
G37*
G36*
Y245981D02*X543995Y245637D01*
X544751Y244751D01*
X545637Y243995D01*
X546630Y243386D01*
X547706Y242940D01*
X548839Y242669D01*
X549989Y242578D01*
Y238922D01*
X548839Y238831D01*
X547706Y238560D01*
X546630Y238114D01*
X545637Y237505D01*
X544751Y236749D01*
X543995Y235863D01*
X543784Y235519D01*
Y245981D01*
G37*
G36*
Y264481D02*X543995Y264137D01*
X544751Y263251D01*
X545637Y262495D01*
X546630Y261886D01*
X547706Y261440D01*
X548839Y261169D01*
X549989Y261078D01*
Y257422D01*
X548839Y257331D01*
X547706Y257060D01*
X546630Y256614D01*
X545637Y256005D01*
X544751Y255249D01*
X543995Y254363D01*
X543784Y254019D01*
Y264481D01*
G37*
G36*
Y287500D02*X549989D01*
Y275922D01*
X548839Y275831D01*
X547706Y275560D01*
X546630Y275114D01*
X545637Y274505D01*
X544751Y273749D01*
X543995Y272863D01*
X543784Y272519D01*
Y287500D01*
G37*
G36*
Y293500D02*X549989D01*
Y290500D01*
X543784D01*
Y293500D01*
G37*
G36*
Y300000D02*X549989D01*
Y296500D01*
X543784D01*
Y300000D01*
G37*
G36*
Y167004D02*X543707Y167335D01*
X543627Y167915D01*
X543600Y168500D01*
X543627Y169085D01*
X543707Y169665D01*
X543784Y169996D01*
Y167004D01*
G37*
G36*
X509289Y300000D02*X543784D01*
Y296500D01*
X535599D01*
X535435Y296769D01*
X535128Y297128D01*
X534769Y297435D01*
X534366Y297681D01*
X533930Y297862D01*
X533471Y297972D01*
X533000Y298009D01*
X532529Y297972D01*
X532070Y297862D01*
X531634Y297681D01*
X531231Y297435D01*
X530872Y297128D01*
X530565Y296769D01*
X530319Y296366D01*
X530138Y295930D01*
X530028Y295471D01*
X529991Y295000D01*
X530028Y294529D01*
X530138Y294070D01*
X530319Y293634D01*
X530565Y293231D01*
X530872Y292872D01*
X531231Y292565D01*
X531634Y292319D01*
X532070Y292138D01*
X532529Y292028D01*
X533000Y291991D01*
X533471Y292028D01*
X533930Y292138D01*
X534366Y292319D01*
X534769Y292565D01*
X535128Y292872D01*
X535435Y293231D01*
X535599Y293500D01*
X543784D01*
Y290500D01*
X523599D01*
X523435Y290769D01*
X523128Y291128D01*
X522769Y291435D01*
X522366Y291681D01*
X521930Y291862D01*
X521471Y291972D01*
X521000Y292009D01*
X520529Y291972D01*
X520070Y291862D01*
X519634Y291681D01*
X519231Y291435D01*
X518872Y291128D01*
X518565Y290769D01*
X518319Y290366D01*
X518138Y289930D01*
X518028Y289471D01*
X517991Y289000D01*
X518028Y288529D01*
X518138Y288070D01*
X518319Y287634D01*
X518565Y287231D01*
X518872Y286872D01*
X519231Y286565D01*
X519634Y286319D01*
X520070Y286138D01*
X520529Y286028D01*
X521000Y285991D01*
X521471Y286028D01*
X521930Y286138D01*
X522366Y286319D01*
X522769Y286565D01*
X523128Y286872D01*
X523435Y287231D01*
X523599Y287500D01*
X543784D01*
Y272519D01*
X543386Y271870D01*
X542940Y270794D01*
X542669Y269661D01*
X542577Y268500D01*
X542669Y267339D01*
X542940Y266206D01*
X543386Y265130D01*
X543784Y264481D01*
Y254019D01*
X543386Y253370D01*
X542940Y252294D01*
X542669Y251161D01*
X542577Y250000D01*
X542669Y248839D01*
X542940Y247706D01*
X543386Y246630D01*
X543784Y245981D01*
Y235519D01*
X543386Y234870D01*
X542940Y233794D01*
X542669Y232661D01*
X542577Y231500D01*
X542669Y230339D01*
X542940Y229206D01*
X543386Y228130D01*
X543784Y227481D01*
Y172514D01*
X543681Y172365D01*
X543354Y171772D01*
X543083Y171151D01*
X542870Y170508D01*
X542716Y169848D01*
X542623Y169177D01*
X542592Y168500D01*
X542623Y167823D01*
X542716Y167152D01*
X542870Y166492D01*
X543083Y165849D01*
X543354Y165228D01*
X543681Y164635D01*
X543784Y164482D01*
Y154019D01*
X543386Y153370D01*
X542940Y152294D01*
X542669Y151161D01*
X542577Y150000D01*
X542669Y148839D01*
X542940Y147706D01*
X543386Y146630D01*
X543784Y145981D01*
Y135519D01*
X543386Y134870D01*
X542940Y133794D01*
X542669Y132661D01*
X542577Y131500D01*
X542669Y130339D01*
X542940Y129206D01*
X543386Y128130D01*
X543784Y127481D01*
Y100000D01*
X509289D01*
Y148500D01*
X516941D01*
X517000Y148495D01*
X517235Y148514D01*
X517235Y148514D01*
X517465Y148569D01*
X517683Y148659D01*
X517884Y148783D01*
X518064Y148936D01*
X518102Y148981D01*
X524019Y154898D01*
X524064Y154936D01*
X524217Y155115D01*
X524217Y155116D01*
X524341Y155317D01*
X524431Y155535D01*
X524486Y155765D01*
X524505Y156000D01*
X524500Y156059D01*
Y160401D01*
X524769Y160565D01*
X525128Y160872D01*
X525435Y161231D01*
X525681Y161634D01*
X525862Y162070D01*
X525972Y162529D01*
X526000Y163000D01*
X525972Y163471D01*
X525862Y163930D01*
X525681Y164366D01*
X525435Y164769D01*
X525128Y165128D01*
X524769Y165435D01*
X524366Y165681D01*
X523930Y165862D01*
X523471Y165972D01*
X523000Y166009D01*
X522529Y165972D01*
X522070Y165862D01*
X521634Y165681D01*
X521231Y165435D01*
X520872Y165128D01*
X520565Y164769D01*
X520319Y164366D01*
X520138Y163930D01*
X520028Y163471D01*
X519991Y163000D01*
X520028Y162529D01*
X520138Y162070D01*
X520319Y161634D01*
X520565Y161231D01*
X520872Y160872D01*
X521231Y160565D01*
X521500Y160401D01*
Y156621D01*
X516379Y151500D01*
X509289D01*
Y300000D01*
G37*
G36*
X306216Y169996D02*X306293Y169665D01*
X306373Y169085D01*
X306400Y168500D01*
X306373Y167915D01*
X306293Y167335D01*
X306216Y167004D01*
Y169996D01*
G37*
G36*
Y269996D02*X306293Y269665D01*
X306373Y269085D01*
X306400Y268500D01*
X306373Y267915D01*
X306293Y267335D01*
X306216Y267004D01*
Y269996D01*
G37*
G36*
X499989Y142578D02*X500000Y142577D01*
X501161Y142669D01*
X502294Y142940D01*
X503370Y143386D01*
X504363Y143995D01*
X505249Y144751D01*
X506005Y145637D01*
X506614Y146630D01*
X507060Y147706D01*
X507250Y148500D01*
X509289D01*
Y100000D01*
X499989D01*
Y124078D01*
X500000Y124077D01*
X501161Y124169D01*
X502294Y124440D01*
X503370Y124886D01*
X504363Y125495D01*
X505249Y126251D01*
X506005Y127137D01*
X506614Y128130D01*
X507060Y129206D01*
X507331Y130339D01*
X507400Y131500D01*
X507331Y132661D01*
X507060Y133794D01*
X506614Y134870D01*
X506005Y135863D01*
X505249Y136749D01*
X504363Y137505D01*
X503370Y138114D01*
X502294Y138560D01*
X501161Y138831D01*
X500000Y138923D01*
X499989Y138922D01*
Y142578D01*
G37*
G36*
X506216Y169996D02*X506293Y169665D01*
X506373Y169085D01*
X506400Y168500D01*
X506373Y167915D01*
X506293Y167335D01*
X506216Y167004D01*
Y169996D01*
G37*
G36*
Y300000D02*X509289D01*
Y151500D01*
X507250D01*
X507060Y152294D01*
X506614Y153370D01*
X506216Y154019D01*
Y164486D01*
X506319Y164635D01*
X506646Y165228D01*
X506917Y165849D01*
X507130Y166492D01*
X507284Y167152D01*
X507377Y167823D01*
X507408Y168500D01*
X507377Y169177D01*
X507284Y169848D01*
X507130Y170508D01*
X506917Y171151D01*
X506646Y171772D01*
X506319Y172365D01*
X506216Y172518D01*
Y300000D01*
G37*
G36*
X499989D02*X506216D01*
Y172518D01*
X505940Y172927D01*
X505888Y172987D01*
X505826Y173038D01*
X505758Y173079D01*
X505684Y173109D01*
X505606Y173126D01*
X505526Y173131D01*
X505447Y173124D01*
X505370Y173105D01*
X505296Y173073D01*
X505229Y173031D01*
X505169Y172978D01*
X505118Y172917D01*
X505077Y172848D01*
X505047Y172774D01*
X505030Y172697D01*
X505024Y172617D01*
X505032Y172538D01*
X505051Y172460D01*
X505082Y172387D01*
X505126Y172320D01*
X505460Y171840D01*
X505742Y171327D01*
X505976Y170790D01*
X506160Y170235D01*
X506216Y169996D01*
Y167004D01*
X506160Y166765D01*
X505976Y166210D01*
X505742Y165673D01*
X505460Y165160D01*
X505132Y164676D01*
X505088Y164610D01*
X505057Y164538D01*
X505038Y164461D01*
X505031Y164383D01*
X505036Y164304D01*
X505054Y164228D01*
X505083Y164154D01*
X505123Y164087D01*
X505174Y164026D01*
X505233Y163975D01*
X505299Y163933D01*
X505372Y163902D01*
X505448Y163882D01*
X505526Y163875D01*
X505605Y163880D01*
X505682Y163898D01*
X505755Y163927D01*
X505822Y163967D01*
X505883Y164018D01*
X505933Y164078D01*
X506216Y164486D01*
Y154019D01*
X506005Y154363D01*
X505249Y155249D01*
X504363Y156005D01*
X503370Y156614D01*
X502294Y157060D01*
X501161Y157331D01*
X500000Y157423D01*
X499989Y157422D01*
Y161093D01*
X500000Y161092D01*
X500677Y161123D01*
X501348Y161216D01*
X502008Y161370D01*
X502651Y161583D01*
X503272Y161854D01*
X503865Y162181D01*
X504427Y162560D01*
X504487Y162612D01*
X504538Y162674D01*
X504579Y162742D01*
X504609Y162816D01*
X504626Y162894D01*
X504631Y162974D01*
X504624Y163053D01*
X504605Y163130D01*
X504573Y163204D01*
X504531Y163271D01*
X504478Y163331D01*
X504417Y163382D01*
X504348Y163423D01*
X504274Y163453D01*
X504197Y163470D01*
X504117Y163476D01*
X504038Y163468D01*
X503960Y163449D01*
X503887Y163418D01*
X503820Y163374D01*
X503340Y163040D01*
X502827Y162758D01*
X502290Y162524D01*
X501735Y162340D01*
X501165Y162207D01*
X500585Y162127D01*
X500000Y162100D01*
X499989Y162101D01*
Y174899D01*
X500000Y174900D01*
X500585Y174873D01*
X501165Y174793D01*
X501735Y174660D01*
X502290Y174476D01*
X502827Y174242D01*
X503340Y173960D01*
X503824Y173632D01*
X503890Y173588D01*
X503962Y173557D01*
X504039Y173538D01*
X504117Y173531D01*
X504196Y173536D01*
X504272Y173554D01*
X504346Y173583D01*
X504413Y173623D01*
X504474Y173674D01*
X504525Y173733D01*
X504567Y173799D01*
X504598Y173872D01*
X504618Y173948D01*
X504625Y174026D01*
X504620Y174105D01*
X504602Y174182D01*
X504573Y174255D01*
X504533Y174322D01*
X504482Y174383D01*
X504422Y174433D01*
X503865Y174819D01*
X503272Y175146D01*
X502651Y175417D01*
X502008Y175630D01*
X501348Y175784D01*
X500677Y175877D01*
X500000Y175908D01*
X499989Y175907D01*
Y300000D01*
G37*
G36*
X493784Y127481D02*X493995Y127137D01*
X494751Y126251D01*
X495637Y125495D01*
X496630Y124886D01*
X497706Y124440D01*
X498839Y124169D01*
X499989Y124078D01*
Y100000D01*
X493784D01*
Y127481D01*
G37*
G36*
Y145981D02*X493995Y145637D01*
X494751Y144751D01*
X495637Y143995D01*
X496630Y143386D01*
X497706Y142940D01*
X498839Y142669D01*
X499989Y142578D01*
Y138922D01*
X498839Y138831D01*
X497706Y138560D01*
X496630Y138114D01*
X495637Y137505D01*
X494751Y136749D01*
X493995Y135863D01*
X493784Y135519D01*
Y145981D01*
G37*
G36*
Y300000D02*X499989D01*
Y175907D01*
X499323Y175877D01*
X498652Y175784D01*
X497992Y175630D01*
X497349Y175417D01*
X496728Y175146D01*
X496135Y174819D01*
X495573Y174440D01*
X495513Y174388D01*
X495462Y174326D01*
X495421Y174258D01*
X495391Y174184D01*
X495374Y174106D01*
X495369Y174026D01*
X495376Y173947D01*
X495395Y173870D01*
X495427Y173796D01*
X495469Y173729D01*
X495522Y173669D01*
X495583Y173618D01*
X495652Y173577D01*
X495726Y173547D01*
X495803Y173530D01*
X495883Y173524D01*
X495962Y173532D01*
X496040Y173551D01*
X496113Y173582D01*
X496180Y173626D01*
X496660Y173960D01*
X497173Y174242D01*
X497710Y174476D01*
X498265Y174660D01*
X498835Y174793D01*
X499415Y174873D01*
X499989Y174899D01*
Y162101D01*
X499415Y162127D01*
X498835Y162207D01*
X498265Y162340D01*
X497710Y162524D01*
X497173Y162758D01*
X496660Y163040D01*
X496176Y163368D01*
X496110Y163412D01*
X496038Y163443D01*
X495961Y163462D01*
X495883Y163469D01*
X495804Y163464D01*
X495728Y163446D01*
X495654Y163417D01*
X495587Y163377D01*
X495526Y163326D01*
X495475Y163267D01*
X495433Y163201D01*
X495402Y163128D01*
X495382Y163052D01*
X495375Y162974D01*
X495380Y162895D01*
X495398Y162818D01*
X495427Y162745D01*
X495467Y162678D01*
X495518Y162617D01*
X495578Y162567D01*
X496135Y162181D01*
X496728Y161854D01*
X497349Y161583D01*
X497992Y161370D01*
X498652Y161216D01*
X499323Y161123D01*
X499989Y161093D01*
Y157422D01*
X498839Y157331D01*
X497706Y157060D01*
X496630Y156614D01*
X495637Y156005D01*
X494751Y155249D01*
X493995Y154363D01*
X493784Y154019D01*
Y164482D01*
X494060Y164073D01*
X494112Y164013D01*
X494174Y163962D01*
X494242Y163921D01*
X494316Y163891D01*
X494394Y163874D01*
X494474Y163869D01*
X494553Y163876D01*
X494630Y163895D01*
X494704Y163927D01*
X494771Y163969D01*
X494831Y164022D01*
X494882Y164083D01*
X494923Y164152D01*
X494953Y164226D01*
X494970Y164303D01*
X494976Y164383D01*
X494968Y164462D01*
X494949Y164540D01*
X494918Y164613D01*
X494874Y164680D01*
X494540Y165160D01*
X494258Y165673D01*
X494024Y166210D01*
X493840Y166765D01*
X493784Y167004D01*
Y169996D01*
X493840Y170235D01*
X494024Y170790D01*
X494258Y171327D01*
X494540Y171840D01*
X494868Y172324D01*
X494912Y172390D01*
X494943Y172462D01*
X494962Y172539D01*
X494969Y172617D01*
X494964Y172696D01*
X494946Y172772D01*
X494917Y172846D01*
X494877Y172913D01*
X494826Y172974D01*
X494767Y173025D01*
X494701Y173067D01*
X494628Y173098D01*
X494552Y173118D01*
X494474Y173125D01*
X494395Y173120D01*
X494318Y173102D01*
X494245Y173073D01*
X494178Y173033D01*
X494117Y172982D01*
X494067Y172922D01*
X493784Y172514D01*
Y300000D01*
G37*
G36*
Y167004D02*X493707Y167335D01*
X493627Y167915D01*
X493600Y168500D01*
X493627Y169085D01*
X493707Y169665D01*
X493784Y169996D01*
Y167004D01*
G37*
G36*
X456216Y169996D02*X456293Y169665D01*
X456373Y169085D01*
X456400Y168500D01*
X456373Y167915D01*
X456293Y167335D01*
X456216Y167004D01*
Y169996D01*
G37*
G36*
Y300000D02*X493784D01*
Y172514D01*
X493681Y172365D01*
X493354Y171772D01*
X493083Y171151D01*
X492870Y170508D01*
X492716Y169848D01*
X492623Y169177D01*
X492592Y168500D01*
X492623Y167823D01*
X492716Y167152D01*
X492870Y166492D01*
X493083Y165849D01*
X493354Y165228D01*
X493681Y164635D01*
X493784Y164482D01*
Y154019D01*
X493386Y153370D01*
X492940Y152294D01*
X492669Y151161D01*
X492577Y150000D01*
X492669Y148839D01*
X492940Y147706D01*
X493386Y146630D01*
X493784Y145981D01*
Y135519D01*
X493386Y134870D01*
X492940Y133794D01*
X492669Y132661D01*
X492577Y131500D01*
X492669Y130339D01*
X492940Y129206D01*
X493386Y128130D01*
X493784Y127481D01*
Y100000D01*
X456216D01*
Y127481D01*
X456614Y128130D01*
X457060Y129206D01*
X457331Y130339D01*
X457400Y131500D01*
X457331Y132661D01*
X457060Y133794D01*
X456614Y134870D01*
X456216Y135519D01*
Y145981D01*
X456614Y146630D01*
X457060Y147706D01*
X457331Y148839D01*
X457400Y150000D01*
X457331Y151161D01*
X457060Y152294D01*
X456614Y153370D01*
X456216Y154019D01*
Y164486D01*
X456319Y164635D01*
X456646Y165228D01*
X456917Y165849D01*
X457130Y166492D01*
X457284Y167152D01*
X457377Y167823D01*
X457408Y168500D01*
X457377Y169177D01*
X457284Y169848D01*
X457130Y170508D01*
X456917Y171151D01*
X456646Y171772D01*
X456319Y172365D01*
X456216Y172518D01*
Y300000D01*
G37*
G36*
Y135519D02*X456005Y135863D01*
X455249Y136749D01*
X454363Y137505D01*
X453370Y138114D01*
X452294Y138560D01*
X451161Y138831D01*
X450000Y138923D01*
X449989Y138922D01*
Y142578D01*
X450000Y142577D01*
X451161Y142669D01*
X452294Y142940D01*
X453370Y143386D01*
X454363Y143995D01*
X455249Y144751D01*
X456005Y145637D01*
X456216Y145981D01*
Y135519D01*
G37*
G36*
Y100000D02*X449989D01*
Y124078D01*
X450000Y124077D01*
X451161Y124169D01*
X452294Y124440D01*
X453370Y124886D01*
X454363Y125495D01*
X455249Y126251D01*
X456005Y127137D01*
X456216Y127481D01*
Y100000D01*
G37*
G36*
X449989Y300000D02*X456216D01*
Y172518D01*
X455940Y172927D01*
X455888Y172987D01*
X455826Y173038D01*
X455758Y173079D01*
X455684Y173109D01*
X455606Y173126D01*
X455526Y173131D01*
X455447Y173124D01*
X455370Y173105D01*
X455296Y173073D01*
X455229Y173031D01*
X455169Y172978D01*
X455118Y172917D01*
X455077Y172848D01*
X455047Y172774D01*
X455030Y172697D01*
X455024Y172617D01*
X455032Y172538D01*
X455051Y172460D01*
X455082Y172387D01*
X455126Y172320D01*
X455460Y171840D01*
X455742Y171327D01*
X455976Y170790D01*
X456160Y170235D01*
X456216Y169996D01*
Y167004D01*
X456160Y166765D01*
X455976Y166210D01*
X455742Y165673D01*
X455460Y165160D01*
X455132Y164676D01*
X455088Y164610D01*
X455057Y164538D01*
X455038Y164461D01*
X455031Y164383D01*
X455036Y164304D01*
X455054Y164228D01*
X455083Y164154D01*
X455123Y164087D01*
X455174Y164026D01*
X455233Y163975D01*
X455299Y163933D01*
X455372Y163902D01*
X455448Y163882D01*
X455526Y163875D01*
X455605Y163880D01*
X455682Y163898D01*
X455755Y163927D01*
X455822Y163967D01*
X455883Y164018D01*
X455933Y164078D01*
X456216Y164486D01*
Y154019D01*
X456005Y154363D01*
X455249Y155249D01*
X454363Y156005D01*
X453370Y156614D01*
X452294Y157060D01*
X451161Y157331D01*
X450000Y157423D01*
X449989Y157422D01*
Y161093D01*
X450000Y161092D01*
X450677Y161123D01*
X451348Y161216D01*
X452008Y161370D01*
X452651Y161583D01*
X453272Y161854D01*
X453865Y162181D01*
X454427Y162560D01*
X454487Y162612D01*
X454538Y162674D01*
X454579Y162742D01*
X454609Y162816D01*
X454626Y162894D01*
X454631Y162974D01*
X454624Y163053D01*
X454605Y163130D01*
X454573Y163204D01*
X454531Y163271D01*
X454478Y163331D01*
X454417Y163382D01*
X454348Y163423D01*
X454274Y163453D01*
X454197Y163470D01*
X454117Y163476D01*
X454038Y163468D01*
X453960Y163449D01*
X453887Y163418D01*
X453820Y163374D01*
X453340Y163040D01*
X452827Y162758D01*
X452290Y162524D01*
X451735Y162340D01*
X451165Y162207D01*
X450585Y162127D01*
X450000Y162100D01*
X449989Y162101D01*
Y174899D01*
X450000Y174900D01*
X450585Y174873D01*
X451165Y174793D01*
X451735Y174660D01*
X452290Y174476D01*
X452827Y174242D01*
X453340Y173960D01*
X453824Y173632D01*
X453890Y173588D01*
X453962Y173557D01*
X454039Y173538D01*
X454117Y173531D01*
X454196Y173536D01*
X454272Y173554D01*
X454346Y173583D01*
X454413Y173623D01*
X454474Y173674D01*
X454525Y173733D01*
X454567Y173799D01*
X454598Y173872D01*
X454618Y173948D01*
X454625Y174026D01*
X454620Y174105D01*
X454602Y174182D01*
X454573Y174255D01*
X454533Y174322D01*
X454482Y174383D01*
X454422Y174433D01*
X453865Y174819D01*
X453272Y175146D01*
X452651Y175417D01*
X452008Y175630D01*
X451348Y175784D01*
X450677Y175877D01*
X450000Y175908D01*
X449989Y175907D01*
Y300000D01*
G37*
G36*
X443784Y127481D02*X443995Y127137D01*
X444751Y126251D01*
X445637Y125495D01*
X446630Y124886D01*
X447706Y124440D01*
X448839Y124169D01*
X449989Y124078D01*
Y100000D01*
X443784D01*
Y127481D01*
G37*
G36*
Y145981D02*X443995Y145637D01*
X444751Y144751D01*
X445637Y143995D01*
X446630Y143386D01*
X447706Y142940D01*
X448839Y142669D01*
X449989Y142578D01*
Y138922D01*
X448839Y138831D01*
X447706Y138560D01*
X446630Y138114D01*
X445637Y137505D01*
X444751Y136749D01*
X443995Y135863D01*
X443784Y135519D01*
Y145981D01*
G37*
G36*
Y300000D02*X449989D01*
Y175907D01*
X449323Y175877D01*
X448652Y175784D01*
X447992Y175630D01*
X447349Y175417D01*
X446728Y175146D01*
X446135Y174819D01*
X445573Y174440D01*
X445513Y174388D01*
X445462Y174326D01*
X445421Y174258D01*
X445391Y174184D01*
X445374Y174106D01*
X445369Y174026D01*
X445376Y173947D01*
X445395Y173870D01*
X445427Y173796D01*
X445469Y173729D01*
X445522Y173669D01*
X445583Y173618D01*
X445652Y173577D01*
X445726Y173547D01*
X445803Y173530D01*
X445883Y173524D01*
X445962Y173532D01*
X446040Y173551D01*
X446113Y173582D01*
X446180Y173626D01*
X446660Y173960D01*
X447173Y174242D01*
X447710Y174476D01*
X448265Y174660D01*
X448835Y174793D01*
X449415Y174873D01*
X449989Y174899D01*
Y162101D01*
X449415Y162127D01*
X448835Y162207D01*
X448265Y162340D01*
X447710Y162524D01*
X447173Y162758D01*
X446660Y163040D01*
X446176Y163368D01*
X446110Y163412D01*
X446038Y163443D01*
X445961Y163462D01*
X445883Y163469D01*
X445804Y163464D01*
X445728Y163446D01*
X445654Y163417D01*
X445587Y163377D01*
X445526Y163326D01*
X445475Y163267D01*
X445433Y163201D01*
X445402Y163128D01*
X445382Y163052D01*
X445375Y162974D01*
X445380Y162895D01*
X445398Y162818D01*
X445427Y162745D01*
X445467Y162678D01*
X445518Y162617D01*
X445578Y162567D01*
X446135Y162181D01*
X446728Y161854D01*
X447349Y161583D01*
X447992Y161370D01*
X448652Y161216D01*
X449323Y161123D01*
X449989Y161093D01*
Y157422D01*
X448839Y157331D01*
X447706Y157060D01*
X446630Y156614D01*
X445637Y156005D01*
X444751Y155249D01*
X443995Y154363D01*
X443784Y154019D01*
Y164482D01*
X444060Y164073D01*
X444112Y164013D01*
X444174Y163962D01*
X444242Y163921D01*
X444316Y163891D01*
X444394Y163874D01*
X444474Y163869D01*
X444553Y163876D01*
X444630Y163895D01*
X444704Y163927D01*
X444771Y163969D01*
X444831Y164022D01*
X444882Y164083D01*
X444923Y164152D01*
X444953Y164226D01*
X444970Y164303D01*
X444976Y164383D01*
X444968Y164462D01*
X444949Y164540D01*
X444918Y164613D01*
X444874Y164680D01*
X444540Y165160D01*
X444258Y165673D01*
X444024Y166210D01*
X443840Y166765D01*
X443784Y167004D01*
Y169996D01*
X443840Y170235D01*
X444024Y170790D01*
X444258Y171327D01*
X444540Y171840D01*
X444868Y172324D01*
X444912Y172390D01*
X444943Y172462D01*
X444962Y172539D01*
X444969Y172617D01*
X444964Y172696D01*
X444946Y172772D01*
X444917Y172846D01*
X444877Y172913D01*
X444826Y172974D01*
X444767Y173025D01*
X444701Y173067D01*
X444628Y173098D01*
X444552Y173118D01*
X444474Y173125D01*
X444395Y173120D01*
X444318Y173102D01*
X444245Y173073D01*
X444178Y173033D01*
X444117Y172982D01*
X444067Y172922D01*
X443784Y172514D01*
Y300000D01*
G37*
G36*
Y167004D02*X443707Y167335D01*
X443627Y167915D01*
X443600Y168500D01*
X443627Y169085D01*
X443707Y169665D01*
X443784Y169996D01*
Y167004D01*
G37*
G36*
X406216Y169996D02*X406293Y169665D01*
X406373Y169085D01*
X406400Y168500D01*
X406373Y167915D01*
X406293Y167335D01*
X406216Y167004D01*
Y169996D01*
G37*
G36*
Y300000D02*X443784D01*
Y172514D01*
X443681Y172365D01*
X443354Y171772D01*
X443083Y171151D01*
X442870Y170508D01*
X442716Y169848D01*
X442623Y169177D01*
X442592Y168500D01*
X442623Y167823D01*
X442716Y167152D01*
X442870Y166492D01*
X443083Y165849D01*
X443354Y165228D01*
X443681Y164635D01*
X443784Y164482D01*
Y154019D01*
X443386Y153370D01*
X442940Y152294D01*
X442669Y151161D01*
X442577Y150000D01*
X442669Y148839D01*
X442940Y147706D01*
X443386Y146630D01*
X443784Y145981D01*
Y135519D01*
X443386Y134870D01*
X442940Y133794D01*
X442669Y132661D01*
X442577Y131500D01*
X442669Y130339D01*
X442940Y129206D01*
X443386Y128130D01*
X443784Y127481D01*
Y100000D01*
X406216D01*
Y127481D01*
X406614Y128130D01*
X407060Y129206D01*
X407331Y130339D01*
X407400Y131500D01*
X407331Y132661D01*
X407060Y133794D01*
X406614Y134870D01*
X406216Y135519D01*
Y145981D01*
X406614Y146630D01*
X407060Y147706D01*
X407331Y148839D01*
X407400Y150000D01*
X407331Y151161D01*
X407060Y152294D01*
X406614Y153370D01*
X406216Y154019D01*
Y164486D01*
X406319Y164635D01*
X406646Y165228D01*
X406917Y165849D01*
X407130Y166492D01*
X407284Y167152D01*
X407377Y167823D01*
X407408Y168500D01*
X407377Y169177D01*
X407284Y169848D01*
X407130Y170508D01*
X406917Y171151D01*
X406646Y171772D01*
X406319Y172365D01*
X406216Y172518D01*
Y300000D01*
G37*
G36*
Y135519D02*X406005Y135863D01*
X405249Y136749D01*
X404363Y137505D01*
X403370Y138114D01*
X402294Y138560D01*
X401161Y138831D01*
X400000Y138923D01*
X399989Y138922D01*
Y142578D01*
X400000Y142577D01*
X401161Y142669D01*
X402294Y142940D01*
X403370Y143386D01*
X404363Y143995D01*
X405249Y144751D01*
X406005Y145637D01*
X406216Y145981D01*
Y135519D01*
G37*
G36*
Y100000D02*X399989D01*
Y124078D01*
X400000Y124077D01*
X401161Y124169D01*
X402294Y124440D01*
X403370Y124886D01*
X404363Y125495D01*
X405249Y126251D01*
X406005Y127137D01*
X406216Y127481D01*
Y100000D01*
G37*
G36*
X399989Y300000D02*X406216D01*
Y172518D01*
X405940Y172927D01*
X405888Y172987D01*
X405826Y173038D01*
X405758Y173079D01*
X405684Y173109D01*
X405606Y173126D01*
X405526Y173131D01*
X405447Y173124D01*
X405370Y173105D01*
X405296Y173073D01*
X405229Y173031D01*
X405169Y172978D01*
X405118Y172917D01*
X405077Y172848D01*
X405047Y172774D01*
X405030Y172697D01*
X405024Y172617D01*
X405032Y172538D01*
X405051Y172460D01*
X405082Y172387D01*
X405126Y172320D01*
X405460Y171840D01*
X405742Y171327D01*
X405976Y170790D01*
X406160Y170235D01*
X406216Y169996D01*
Y167004D01*
X406160Y166765D01*
X405976Y166210D01*
X405742Y165673D01*
X405460Y165160D01*
X405132Y164676D01*
X405088Y164610D01*
X405057Y164538D01*
X405038Y164461D01*
X405031Y164383D01*
X405036Y164304D01*
X405054Y164228D01*
X405083Y164154D01*
X405123Y164087D01*
X405174Y164026D01*
X405233Y163975D01*
X405299Y163933D01*
X405372Y163902D01*
X405448Y163882D01*
X405526Y163875D01*
X405605Y163880D01*
X405682Y163898D01*
X405755Y163927D01*
X405822Y163967D01*
X405883Y164018D01*
X405933Y164078D01*
X406216Y164486D01*
Y154019D01*
X406005Y154363D01*
X405249Y155249D01*
X404363Y156005D01*
X403370Y156614D01*
X402294Y157060D01*
X401161Y157331D01*
X400000Y157423D01*
X399989Y157422D01*
Y161093D01*
X400000Y161092D01*
X400677Y161123D01*
X401348Y161216D01*
X402008Y161370D01*
X402651Y161583D01*
X403272Y161854D01*
X403865Y162181D01*
X404427Y162560D01*
X404487Y162612D01*
X404538Y162674D01*
X404579Y162742D01*
X404609Y162816D01*
X404626Y162894D01*
X404631Y162974D01*
X404624Y163053D01*
X404605Y163130D01*
X404573Y163204D01*
X404531Y163271D01*
X404478Y163331D01*
X404417Y163382D01*
X404348Y163423D01*
X404274Y163453D01*
X404197Y163470D01*
X404117Y163476D01*
X404038Y163468D01*
X403960Y163449D01*
X403887Y163418D01*
X403820Y163374D01*
X403340Y163040D01*
X402827Y162758D01*
X402290Y162524D01*
X401735Y162340D01*
X401165Y162207D01*
X400585Y162127D01*
X400000Y162100D01*
X399989Y162101D01*
Y174899D01*
X400000Y174900D01*
X400585Y174873D01*
X401165Y174793D01*
X401735Y174660D01*
X402290Y174476D01*
X402827Y174242D01*
X403340Y173960D01*
X403824Y173632D01*
X403890Y173588D01*
X403962Y173557D01*
X404039Y173538D01*
X404117Y173531D01*
X404196Y173536D01*
X404272Y173554D01*
X404346Y173583D01*
X404413Y173623D01*
X404474Y173674D01*
X404525Y173733D01*
X404567Y173799D01*
X404598Y173872D01*
X404618Y173948D01*
X404625Y174026D01*
X404620Y174105D01*
X404602Y174182D01*
X404573Y174255D01*
X404533Y174322D01*
X404482Y174383D01*
X404422Y174433D01*
X403865Y174819D01*
X403272Y175146D01*
X402651Y175417D01*
X402008Y175630D01*
X401348Y175784D01*
X400677Y175877D01*
X400000Y175908D01*
X399989Y175907D01*
Y300000D01*
G37*
G36*
X393784Y127481D02*X393995Y127137D01*
X394751Y126251D01*
X395637Y125495D01*
X396630Y124886D01*
X397706Y124440D01*
X398839Y124169D01*
X399989Y124078D01*
Y100000D01*
X393784D01*
Y127481D01*
G37*
G36*
Y145981D02*X393995Y145637D01*
X394751Y144751D01*
X395637Y143995D01*
X396630Y143386D01*
X397706Y142940D01*
X398839Y142669D01*
X399989Y142578D01*
Y138922D01*
X398839Y138831D01*
X397706Y138560D01*
X396630Y138114D01*
X395637Y137505D01*
X394751Y136749D01*
X393995Y135863D01*
X393784Y135519D01*
Y145981D01*
G37*
G36*
Y300000D02*X399989D01*
Y175907D01*
X399323Y175877D01*
X398652Y175784D01*
X397992Y175630D01*
X397349Y175417D01*
X396728Y175146D01*
X396135Y174819D01*
X395573Y174440D01*
X395513Y174388D01*
X395462Y174326D01*
X395421Y174258D01*
X395391Y174184D01*
X395374Y174106D01*
X395369Y174026D01*
X395376Y173947D01*
X395395Y173870D01*
X395427Y173796D01*
X395469Y173729D01*
X395522Y173669D01*
X395583Y173618D01*
X395652Y173577D01*
X395726Y173547D01*
X395803Y173530D01*
X395883Y173524D01*
X395962Y173532D01*
X396040Y173551D01*
X396113Y173582D01*
X396180Y173626D01*
X396660Y173960D01*
X397173Y174242D01*
X397710Y174476D01*
X398265Y174660D01*
X398835Y174793D01*
X399415Y174873D01*
X399989Y174899D01*
Y162101D01*
X399415Y162127D01*
X398835Y162207D01*
X398265Y162340D01*
X397710Y162524D01*
X397173Y162758D01*
X396660Y163040D01*
X396176Y163368D01*
X396110Y163412D01*
X396038Y163443D01*
X395961Y163462D01*
X395883Y163469D01*
X395804Y163464D01*
X395728Y163446D01*
X395654Y163417D01*
X395587Y163377D01*
X395526Y163326D01*
X395475Y163267D01*
X395433Y163201D01*
X395402Y163128D01*
X395382Y163052D01*
X395375Y162974D01*
X395380Y162895D01*
X395398Y162818D01*
X395427Y162745D01*
X395467Y162678D01*
X395518Y162617D01*
X395578Y162567D01*
X396135Y162181D01*
X396728Y161854D01*
X397349Y161583D01*
X397992Y161370D01*
X398652Y161216D01*
X399323Y161123D01*
X399989Y161093D01*
Y157422D01*
X398839Y157331D01*
X397706Y157060D01*
X396630Y156614D01*
X395637Y156005D01*
X394751Y155249D01*
X393995Y154363D01*
X393784Y154019D01*
Y164482D01*
X394060Y164073D01*
X394112Y164013D01*
X394174Y163962D01*
X394242Y163921D01*
X394316Y163891D01*
X394394Y163874D01*
X394474Y163869D01*
X394553Y163876D01*
X394630Y163895D01*
X394704Y163927D01*
X394771Y163969D01*
X394831Y164022D01*
X394882Y164083D01*
X394923Y164152D01*
X394953Y164226D01*
X394970Y164303D01*
X394976Y164383D01*
X394968Y164462D01*
X394949Y164540D01*
X394918Y164613D01*
X394874Y164680D01*
X394540Y165160D01*
X394258Y165673D01*
X394024Y166210D01*
X393840Y166765D01*
X393784Y167004D01*
Y169996D01*
X393840Y170235D01*
X394024Y170790D01*
X394258Y171327D01*
X394540Y171840D01*
X394868Y172324D01*
X394912Y172390D01*
X394943Y172462D01*
X394962Y172539D01*
X394969Y172617D01*
X394964Y172696D01*
X394946Y172772D01*
X394917Y172846D01*
X394877Y172913D01*
X394826Y172974D01*
X394767Y173025D01*
X394701Y173067D01*
X394628Y173098D01*
X394552Y173118D01*
X394474Y173125D01*
X394395Y173120D01*
X394318Y173102D01*
X394245Y173073D01*
X394178Y173033D01*
X394117Y172982D01*
X394067Y172922D01*
X393784Y172514D01*
Y300000D01*
G37*
G36*
Y167004D02*X393707Y167335D01*
X393627Y167915D01*
X393600Y168500D01*
X393627Y169085D01*
X393707Y169665D01*
X393784Y169996D01*
Y167004D01*
G37*
G36*
X356216Y169996D02*X356293Y169665D01*
X356373Y169085D01*
X356400Y168500D01*
X356373Y167915D01*
X356293Y167335D01*
X356216Y167004D01*
Y169996D01*
G37*
G36*
Y300000D02*X393784D01*
Y172514D01*
X393681Y172365D01*
X393354Y171772D01*
X393083Y171151D01*
X392870Y170508D01*
X392716Y169848D01*
X392623Y169177D01*
X392592Y168500D01*
X392623Y167823D01*
X392716Y167152D01*
X392870Y166492D01*
X393083Y165849D01*
X393354Y165228D01*
X393681Y164635D01*
X393784Y164482D01*
Y154019D01*
X393386Y153370D01*
X392940Y152294D01*
X392669Y151161D01*
X392577Y150000D01*
X392669Y148839D01*
X392940Y147706D01*
X393386Y146630D01*
X393784Y145981D01*
Y135519D01*
X393386Y134870D01*
X392940Y133794D01*
X392669Y132661D01*
X392577Y131500D01*
X392669Y130339D01*
X392940Y129206D01*
X393386Y128130D01*
X393784Y127481D01*
Y100000D01*
X356216D01*
Y127481D01*
X356614Y128130D01*
X357060Y129206D01*
X357331Y130339D01*
X357400Y131500D01*
X357331Y132661D01*
X357060Y133794D01*
X356614Y134870D01*
X356216Y135519D01*
Y145981D01*
X356614Y146630D01*
X357060Y147706D01*
X357331Y148839D01*
X357400Y150000D01*
X357331Y151161D01*
X357060Y152294D01*
X356614Y153370D01*
X356216Y154019D01*
Y164486D01*
X356319Y164635D01*
X356646Y165228D01*
X356917Y165849D01*
X357130Y166492D01*
X357284Y167152D01*
X357377Y167823D01*
X357408Y168500D01*
X357377Y169177D01*
X357284Y169848D01*
X357130Y170508D01*
X356917Y171151D01*
X356646Y171772D01*
X356319Y172365D01*
X356216Y172518D01*
Y300000D01*
G37*
G36*
Y135519D02*X356005Y135863D01*
X355249Y136749D01*
X354363Y137505D01*
X353370Y138114D01*
X352294Y138560D01*
X351161Y138831D01*
X350000Y138923D01*
X349989Y138922D01*
Y142578D01*
X350000Y142577D01*
X351161Y142669D01*
X352294Y142940D01*
X353370Y143386D01*
X354363Y143995D01*
X355249Y144751D01*
X356005Y145637D01*
X356216Y145981D01*
Y135519D01*
G37*
G36*
Y100000D02*X349989D01*
Y124078D01*
X350000Y124077D01*
X351161Y124169D01*
X352294Y124440D01*
X353370Y124886D01*
X354363Y125495D01*
X355249Y126251D01*
X356005Y127137D01*
X356216Y127481D01*
Y100000D01*
G37*
G36*
X349989Y300000D02*X356216D01*
Y172518D01*
X355940Y172927D01*
X355888Y172987D01*
X355826Y173038D01*
X355758Y173079D01*
X355684Y173109D01*
X355606Y173126D01*
X355526Y173131D01*
X355447Y173124D01*
X355370Y173105D01*
X355296Y173073D01*
X355229Y173031D01*
X355169Y172978D01*
X355118Y172917D01*
X355077Y172848D01*
X355047Y172774D01*
X355030Y172697D01*
X355024Y172617D01*
X355032Y172538D01*
X355051Y172460D01*
X355082Y172387D01*
X355126Y172320D01*
X355460Y171840D01*
X355742Y171327D01*
X355976Y170790D01*
X356160Y170235D01*
X356216Y169996D01*
Y167004D01*
X356160Y166765D01*
X355976Y166210D01*
X355742Y165673D01*
X355460Y165160D01*
X355132Y164676D01*
X355088Y164610D01*
X355057Y164538D01*
X355038Y164461D01*
X355031Y164383D01*
X355036Y164304D01*
X355054Y164228D01*
X355083Y164154D01*
X355123Y164087D01*
X355174Y164026D01*
X355233Y163975D01*
X355299Y163933D01*
X355372Y163902D01*
X355448Y163882D01*
X355526Y163875D01*
X355605Y163880D01*
X355682Y163898D01*
X355755Y163927D01*
X355822Y163967D01*
X355883Y164018D01*
X355933Y164078D01*
X356216Y164486D01*
Y154019D01*
X356005Y154363D01*
X355249Y155249D01*
X354363Y156005D01*
X353370Y156614D01*
X352294Y157060D01*
X351161Y157331D01*
X350000Y157423D01*
X349989Y157422D01*
Y161093D01*
X350000Y161092D01*
X350677Y161123D01*
X351348Y161216D01*
X352008Y161370D01*
X352651Y161583D01*
X353272Y161854D01*
X353865Y162181D01*
X354427Y162560D01*
X354487Y162612D01*
X354538Y162674D01*
X354579Y162742D01*
X354609Y162816D01*
X354626Y162894D01*
X354631Y162974D01*
X354624Y163053D01*
X354605Y163130D01*
X354573Y163204D01*
X354531Y163271D01*
X354478Y163331D01*
X354417Y163382D01*
X354348Y163423D01*
X354274Y163453D01*
X354197Y163470D01*
X354117Y163476D01*
X354038Y163468D01*
X353960Y163449D01*
X353887Y163418D01*
X353820Y163374D01*
X353340Y163040D01*
X352827Y162758D01*
X352290Y162524D01*
X351735Y162340D01*
X351165Y162207D01*
X350585Y162127D01*
X350000Y162100D01*
X349989Y162101D01*
Y174899D01*
X350000Y174900D01*
X350585Y174873D01*
X351165Y174793D01*
X351735Y174660D01*
X352290Y174476D01*
X352827Y174242D01*
X353340Y173960D01*
X353824Y173632D01*
X353890Y173588D01*
X353962Y173557D01*
X354039Y173538D01*
X354117Y173531D01*
X354196Y173536D01*
X354272Y173554D01*
X354346Y173583D01*
X354413Y173623D01*
X354474Y173674D01*
X354525Y173733D01*
X354567Y173799D01*
X354598Y173872D01*
X354618Y173948D01*
X354625Y174026D01*
X354620Y174105D01*
X354602Y174182D01*
X354573Y174255D01*
X354533Y174322D01*
X354482Y174383D01*
X354422Y174433D01*
X353865Y174819D01*
X353272Y175146D01*
X352651Y175417D01*
X352008Y175630D01*
X351348Y175784D01*
X350677Y175877D01*
X350000Y175908D01*
X349989Y175907D01*
Y300000D01*
G37*
G36*
X343784Y127481D02*X343995Y127137D01*
X344751Y126251D01*
X345637Y125495D01*
X346630Y124886D01*
X347706Y124440D01*
X348839Y124169D01*
X349989Y124078D01*
Y100000D01*
X343784D01*
Y127481D01*
G37*
G36*
Y145981D02*X343995Y145637D01*
X344751Y144751D01*
X345637Y143995D01*
X346630Y143386D01*
X347706Y142940D01*
X348839Y142669D01*
X349989Y142578D01*
Y138922D01*
X348839Y138831D01*
X347706Y138560D01*
X346630Y138114D01*
X345637Y137505D01*
X344751Y136749D01*
X343995Y135863D01*
X343784Y135519D01*
Y145981D01*
G37*
G36*
Y300000D02*X349989D01*
Y175907D01*
X349323Y175877D01*
X348652Y175784D01*
X347992Y175630D01*
X347349Y175417D01*
X346728Y175146D01*
X346135Y174819D01*
X345573Y174440D01*
X345513Y174388D01*
X345462Y174326D01*
X345421Y174258D01*
X345391Y174184D01*
X345374Y174106D01*
X345369Y174026D01*
X345376Y173947D01*
X345395Y173870D01*
X345427Y173796D01*
X345469Y173729D01*
X345522Y173669D01*
X345583Y173618D01*
X345652Y173577D01*
X345726Y173547D01*
X345803Y173530D01*
X345883Y173524D01*
X345962Y173532D01*
X346040Y173551D01*
X346113Y173582D01*
X346180Y173626D01*
X346660Y173960D01*
X347173Y174242D01*
X347710Y174476D01*
X348265Y174660D01*
X348835Y174793D01*
X349415Y174873D01*
X349989Y174899D01*
Y162101D01*
X349415Y162127D01*
X348835Y162207D01*
X348265Y162340D01*
X347710Y162524D01*
X347173Y162758D01*
X346660Y163040D01*
X346176Y163368D01*
X346110Y163412D01*
X346038Y163443D01*
X345961Y163462D01*
X345883Y163469D01*
X345804Y163464D01*
X345728Y163446D01*
X345654Y163417D01*
X345587Y163377D01*
X345526Y163326D01*
X345475Y163267D01*
X345433Y163201D01*
X345402Y163128D01*
X345382Y163052D01*
X345375Y162974D01*
X345380Y162895D01*
X345398Y162818D01*
X345427Y162745D01*
X345467Y162678D01*
X345518Y162617D01*
X345578Y162567D01*
X346135Y162181D01*
X346728Y161854D01*
X347349Y161583D01*
X347992Y161370D01*
X348652Y161216D01*
X349323Y161123D01*
X349989Y161093D01*
Y157422D01*
X348839Y157331D01*
X347706Y157060D01*
X346630Y156614D01*
X345637Y156005D01*
X344751Y155249D01*
X343995Y154363D01*
X343784Y154019D01*
Y164482D01*
X344060Y164073D01*
X344112Y164013D01*
X344174Y163962D01*
X344242Y163921D01*
X344316Y163891D01*
X344394Y163874D01*
X344474Y163869D01*
X344553Y163876D01*
X344630Y163895D01*
X344704Y163927D01*
X344771Y163969D01*
X344831Y164022D01*
X344882Y164083D01*
X344923Y164152D01*
X344953Y164226D01*
X344970Y164303D01*
X344976Y164383D01*
X344968Y164462D01*
X344949Y164540D01*
X344918Y164613D01*
X344874Y164680D01*
X344540Y165160D01*
X344258Y165673D01*
X344024Y166210D01*
X343840Y166765D01*
X343784Y167004D01*
Y169996D01*
X343840Y170235D01*
X344024Y170790D01*
X344258Y171327D01*
X344540Y171840D01*
X344868Y172324D01*
X344912Y172390D01*
X344943Y172462D01*
X344962Y172539D01*
X344969Y172617D01*
X344964Y172696D01*
X344946Y172772D01*
X344917Y172846D01*
X344877Y172913D01*
X344826Y172974D01*
X344767Y173025D01*
X344701Y173067D01*
X344628Y173098D01*
X344552Y173118D01*
X344474Y173125D01*
X344395Y173120D01*
X344318Y173102D01*
X344245Y173073D01*
X344178Y173033D01*
X344117Y172982D01*
X344067Y172922D01*
X343784Y172514D01*
Y300000D01*
G37*
G36*
Y167004D02*X343707Y167335D01*
X343627Y167915D01*
X343600Y168500D01*
X343627Y169085D01*
X343707Y169665D01*
X343784Y169996D01*
Y167004D01*
G37*
G36*
X306216Y300000D02*X343784D01*
Y172514D01*
X343681Y172365D01*
X343354Y171772D01*
X343083Y171151D01*
X342870Y170508D01*
X342716Y169848D01*
X342623Y169177D01*
X342592Y168500D01*
X342623Y167823D01*
X342716Y167152D01*
X342870Y166492D01*
X343083Y165849D01*
X343354Y165228D01*
X343681Y164635D01*
X343784Y164482D01*
Y154019D01*
X343386Y153370D01*
X342940Y152294D01*
X342669Y151161D01*
X342577Y150000D01*
X342669Y148839D01*
X342940Y147706D01*
X343386Y146630D01*
X343784Y145981D01*
Y135519D01*
X343386Y134870D01*
X342940Y133794D01*
X342669Y132661D01*
X342577Y131500D01*
X342669Y130339D01*
X342940Y129206D01*
X343386Y128130D01*
X343784Y127481D01*
Y100000D01*
X306216D01*
Y127481D01*
X306614Y128130D01*
X307060Y129206D01*
X307331Y130339D01*
X307400Y131500D01*
X307331Y132661D01*
X307060Y133794D01*
X306614Y134870D01*
X306216Y135519D01*
Y145981D01*
X306614Y146630D01*
X307060Y147706D01*
X307331Y148839D01*
X307400Y150000D01*
X307331Y151161D01*
X307060Y152294D01*
X306614Y153370D01*
X306216Y154019D01*
Y164486D01*
X306319Y164635D01*
X306646Y165228D01*
X306917Y165849D01*
X307130Y166492D01*
X307284Y167152D01*
X307377Y167823D01*
X307408Y168500D01*
X307377Y169177D01*
X307284Y169848D01*
X307130Y170508D01*
X306917Y171151D01*
X306646Y171772D01*
X306319Y172365D01*
X306216Y172518D01*
Y227481D01*
X306614Y228130D01*
X307060Y229206D01*
X307331Y230339D01*
X307400Y231500D01*
X307331Y232661D01*
X307060Y233794D01*
X306614Y234870D01*
X306216Y235519D01*
Y245981D01*
X306614Y246630D01*
X307060Y247706D01*
X307331Y248839D01*
X307400Y250000D01*
X307331Y251161D01*
X307060Y252294D01*
X306614Y253370D01*
X306216Y254019D01*
Y264486D01*
X306319Y264635D01*
X306646Y265228D01*
X306917Y265849D01*
X307130Y266492D01*
X307284Y267152D01*
X307377Y267823D01*
X307408Y268500D01*
X307377Y269177D01*
X307284Y269848D01*
X307130Y270508D01*
X306917Y271151D01*
X306646Y271772D01*
X306319Y272365D01*
X306216Y272518D01*
Y300000D01*
G37*
G36*
Y235519D02*X306005Y235863D01*
X305249Y236749D01*
X304363Y237505D01*
X303370Y238114D01*
X302294Y238560D01*
X301161Y238831D01*
X300000Y238923D01*
X299989Y238922D01*
Y242578D01*
X300000Y242577D01*
X301161Y242669D01*
X302294Y242940D01*
X303370Y243386D01*
X304363Y243995D01*
X305249Y244751D01*
X306005Y245637D01*
X306216Y245981D01*
Y235519D01*
G37*
G36*
Y154019D02*X306005Y154363D01*
X305249Y155249D01*
X304363Y156005D01*
X303370Y156614D01*
X302294Y157060D01*
X301161Y157331D01*
X300000Y157423D01*
X299989Y157422D01*
Y161093D01*
X300000Y161092D01*
X300677Y161123D01*
X301348Y161216D01*
X302008Y161370D01*
X302651Y161583D01*
X303272Y161854D01*
X303865Y162181D01*
X304427Y162560D01*
X304487Y162612D01*
X304538Y162674D01*
X304579Y162742D01*
X304609Y162816D01*
X304626Y162894D01*
X304631Y162974D01*
X304624Y163053D01*
X304605Y163130D01*
X304573Y163204D01*
X304531Y163271D01*
X304478Y163331D01*
X304417Y163382D01*
X304348Y163423D01*
X304274Y163453D01*
X304197Y163470D01*
X304117Y163476D01*
X304038Y163468D01*
X303960Y163449D01*
X303887Y163418D01*
X303820Y163374D01*
X303340Y163040D01*
X302827Y162758D01*
X302290Y162524D01*
X301735Y162340D01*
X301165Y162207D01*
X300585Y162127D01*
X300000Y162100D01*
X299989Y162101D01*
Y174899D01*
X300000Y174900D01*
X300585Y174873D01*
X301165Y174793D01*
X301735Y174660D01*
X302290Y174476D01*
X302827Y174242D01*
X303340Y173960D01*
X303824Y173632D01*
X303890Y173588D01*
X303962Y173557D01*
X304039Y173538D01*
X304117Y173531D01*
X304196Y173536D01*
X304272Y173554D01*
X304346Y173583D01*
X304413Y173623D01*
X304474Y173674D01*
X304525Y173733D01*
X304567Y173799D01*
X304598Y173872D01*
X304618Y173948D01*
X304625Y174026D01*
X304620Y174105D01*
X304602Y174182D01*
X304573Y174255D01*
X304533Y174322D01*
X304482Y174383D01*
X304422Y174433D01*
X303865Y174819D01*
X303272Y175146D01*
X302651Y175417D01*
X302008Y175630D01*
X301348Y175784D01*
X300677Y175877D01*
X300000Y175908D01*
X299989Y175907D01*
Y224078D01*
X300000Y224077D01*
X301161Y224169D01*
X302294Y224440D01*
X303370Y224886D01*
X304363Y225495D01*
X305249Y226251D01*
X306005Y227137D01*
X306216Y227481D01*
Y172518D01*
X305940Y172927D01*
X305888Y172987D01*
X305826Y173038D01*
X305758Y173079D01*
X305684Y173109D01*
X305606Y173126D01*
X305526Y173131D01*
X305447Y173124D01*
X305370Y173105D01*
X305296Y173073D01*
X305229Y173031D01*
X305169Y172978D01*
X305118Y172917D01*
X305077Y172848D01*
X305047Y172774D01*
X305030Y172697D01*
X305024Y172617D01*
X305032Y172538D01*
X305051Y172460D01*
X305082Y172387D01*
X305126Y172320D01*
X305460Y171840D01*
X305742Y171327D01*
X305976Y170790D01*
X306160Y170235D01*
X306216Y169996D01*
Y167004D01*
X306160Y166765D01*
X305976Y166210D01*
X305742Y165673D01*
X305460Y165160D01*
X305132Y164676D01*
X305088Y164610D01*
X305057Y164538D01*
X305038Y164461D01*
X305031Y164383D01*
X305036Y164304D01*
X305054Y164228D01*
X305083Y164154D01*
X305123Y164087D01*
X305174Y164026D01*
X305233Y163975D01*
X305299Y163933D01*
X305372Y163902D01*
X305448Y163882D01*
X305526Y163875D01*
X305605Y163880D01*
X305682Y163898D01*
X305755Y163927D01*
X305822Y163967D01*
X305883Y164018D01*
X305933Y164078D01*
X306216Y164486D01*
Y154019D01*
G37*
G36*
Y135519D02*X306005Y135863D01*
X305249Y136749D01*
X304363Y137505D01*
X303370Y138114D01*
X302294Y138560D01*
X301161Y138831D01*
X300000Y138923D01*
X299989Y138922D01*
Y142578D01*
X300000Y142577D01*
X301161Y142669D01*
X302294Y142940D01*
X303370Y143386D01*
X304363Y143995D01*
X305249Y144751D01*
X306005Y145637D01*
X306216Y145981D01*
Y135519D01*
G37*
G36*
Y100000D02*X299989D01*
Y124078D01*
X300000Y124077D01*
X301161Y124169D01*
X302294Y124440D01*
X303370Y124886D01*
X304363Y125495D01*
X305249Y126251D01*
X306005Y127137D01*
X306216Y127481D01*
Y100000D01*
G37*
G36*
X299989Y300000D02*X306216D01*
Y272518D01*
X305940Y272927D01*
X305888Y272987D01*
X305826Y273038D01*
X305758Y273079D01*
X305684Y273109D01*
X305606Y273126D01*
X305526Y273131D01*
X305447Y273124D01*
X305370Y273105D01*
X305296Y273073D01*
X305229Y273031D01*
X305169Y272978D01*
X305118Y272917D01*
X305077Y272848D01*
X305047Y272774D01*
X305030Y272697D01*
X305024Y272617D01*
X305032Y272538D01*
X305051Y272460D01*
X305082Y272387D01*
X305126Y272320D01*
X305460Y271840D01*
X305742Y271327D01*
X305976Y270790D01*
X306160Y270235D01*
X306216Y269996D01*
Y267004D01*
X306160Y266765D01*
X305976Y266210D01*
X305742Y265673D01*
X305460Y265160D01*
X305132Y264676D01*
X305088Y264610D01*
X305057Y264538D01*
X305038Y264461D01*
X305031Y264383D01*
X305036Y264304D01*
X305054Y264228D01*
X305083Y264154D01*
X305123Y264087D01*
X305174Y264026D01*
X305233Y263975D01*
X305299Y263933D01*
X305372Y263902D01*
X305448Y263882D01*
X305526Y263875D01*
X305605Y263880D01*
X305682Y263898D01*
X305755Y263927D01*
X305822Y263967D01*
X305883Y264018D01*
X305933Y264078D01*
X306216Y264486D01*
Y254019D01*
X306005Y254363D01*
X305249Y255249D01*
X304363Y256005D01*
X303370Y256614D01*
X302294Y257060D01*
X301161Y257331D01*
X300000Y257423D01*
X299989Y257422D01*
Y261093D01*
X300000Y261092D01*
X300677Y261123D01*
X301348Y261216D01*
X302008Y261370D01*
X302651Y261583D01*
X303272Y261854D01*
X303865Y262181D01*
X304427Y262560D01*
X304487Y262612D01*
X304538Y262674D01*
X304579Y262742D01*
X304609Y262816D01*
X304626Y262894D01*
X304631Y262974D01*
X304624Y263053D01*
X304605Y263130D01*
X304573Y263204D01*
X304531Y263271D01*
X304478Y263331D01*
X304417Y263382D01*
X304348Y263423D01*
X304274Y263453D01*
X304197Y263470D01*
X304117Y263476D01*
X304038Y263468D01*
X303960Y263449D01*
X303887Y263418D01*
X303820Y263374D01*
X303340Y263040D01*
X302827Y262758D01*
X302290Y262524D01*
X301735Y262340D01*
X301165Y262207D01*
X300585Y262127D01*
X300000Y262100D01*
X299989Y262101D01*
Y274899D01*
X300000Y274900D01*
X300585Y274873D01*
X301165Y274793D01*
X301735Y274660D01*
X302290Y274476D01*
X302827Y274242D01*
X303340Y273960D01*
X303824Y273632D01*
X303890Y273588D01*
X303962Y273557D01*
X304039Y273538D01*
X304117Y273531D01*
X304196Y273536D01*
X304272Y273554D01*
X304346Y273583D01*
X304413Y273623D01*
X304474Y273674D01*
X304525Y273733D01*
X304567Y273799D01*
X304598Y273872D01*
X304618Y273948D01*
X304625Y274026D01*
X304620Y274105D01*
X304602Y274182D01*
X304573Y274255D01*
X304533Y274322D01*
X304482Y274383D01*
X304422Y274433D01*
X303865Y274819D01*
X303272Y275146D01*
X302651Y275417D01*
X302008Y275630D01*
X301348Y275784D01*
X300677Y275877D01*
X300000Y275908D01*
X299989Y275907D01*
Y300000D01*
G37*
G36*
X293784Y127481D02*X293995Y127137D01*
X294751Y126251D01*
X295637Y125495D01*
X296630Y124886D01*
X297706Y124440D01*
X298839Y124169D01*
X299989Y124078D01*
Y100000D01*
X293784D01*
Y127481D01*
G37*
G36*
Y145981D02*X293995Y145637D01*
X294751Y144751D01*
X295637Y143995D01*
X296630Y143386D01*
X297706Y142940D01*
X298839Y142669D01*
X299989Y142578D01*
Y138922D01*
X298839Y138831D01*
X297706Y138560D01*
X296630Y138114D01*
X295637Y137505D01*
X294751Y136749D01*
X293995Y135863D01*
X293784Y135519D01*
Y145981D01*
G37*
G36*
Y227481D02*X293995Y227137D01*
X294751Y226251D01*
X295637Y225495D01*
X296630Y224886D01*
X297706Y224440D01*
X298839Y224169D01*
X299989Y224078D01*
Y175907D01*
X299323Y175877D01*
X298652Y175784D01*
X297992Y175630D01*
X297349Y175417D01*
X296728Y175146D01*
X296135Y174819D01*
X295573Y174440D01*
X295513Y174388D01*
X295462Y174326D01*
X295421Y174258D01*
X295391Y174184D01*
X295374Y174106D01*
X295369Y174026D01*
X295376Y173947D01*
X295395Y173870D01*
X295427Y173796D01*
X295469Y173729D01*
X295522Y173669D01*
X295583Y173618D01*
X295652Y173577D01*
X295726Y173547D01*
X295803Y173530D01*
X295883Y173524D01*
X295962Y173532D01*
X296040Y173551D01*
X296113Y173582D01*
X296180Y173626D01*
X296660Y173960D01*
X297173Y174242D01*
X297710Y174476D01*
X298265Y174660D01*
X298835Y174793D01*
X299415Y174873D01*
X299989Y174899D01*
Y162101D01*
X299415Y162127D01*
X298835Y162207D01*
X298265Y162340D01*
X297710Y162524D01*
X297173Y162758D01*
X296660Y163040D01*
X296176Y163368D01*
X296110Y163412D01*
X296038Y163443D01*
X295961Y163462D01*
X295883Y163469D01*
X295804Y163464D01*
X295728Y163446D01*
X295654Y163417D01*
X295587Y163377D01*
X295526Y163326D01*
X295475Y163267D01*
X295433Y163201D01*
X295402Y163128D01*
X295382Y163052D01*
X295375Y162974D01*
X295380Y162895D01*
X295398Y162818D01*
X295427Y162745D01*
X295467Y162678D01*
X295518Y162617D01*
X295578Y162567D01*
X296135Y162181D01*
X296728Y161854D01*
X297349Y161583D01*
X297992Y161370D01*
X298652Y161216D01*
X299323Y161123D01*
X299989Y161093D01*
Y157422D01*
X298839Y157331D01*
X297706Y157060D01*
X296630Y156614D01*
X295637Y156005D01*
X294751Y155249D01*
X293995Y154363D01*
X293784Y154019D01*
Y164482D01*
X294060Y164073D01*
X294112Y164013D01*
X294174Y163962D01*
X294242Y163921D01*
X294316Y163891D01*
X294394Y163874D01*
X294474Y163869D01*
X294553Y163876D01*
X294630Y163895D01*
X294704Y163927D01*
X294771Y163969D01*
X294831Y164022D01*
X294882Y164083D01*
X294923Y164152D01*
X294953Y164226D01*
X294970Y164303D01*
X294976Y164383D01*
X294968Y164462D01*
X294949Y164540D01*
X294918Y164613D01*
X294874Y164680D01*
X294540Y165160D01*
X294258Y165673D01*
X294024Y166210D01*
X293840Y166765D01*
X293784Y167004D01*
Y169996D01*
X293840Y170235D01*
X294024Y170790D01*
X294258Y171327D01*
X294540Y171840D01*
X294868Y172324D01*
X294912Y172390D01*
X294943Y172462D01*
X294962Y172539D01*
X294969Y172617D01*
X294964Y172696D01*
X294946Y172772D01*
X294917Y172846D01*
X294877Y172913D01*
X294826Y172974D01*
X294767Y173025D01*
X294701Y173067D01*
X294628Y173098D01*
X294552Y173118D01*
X294474Y173125D01*
X294395Y173120D01*
X294318Y173102D01*
X294245Y173073D01*
X294178Y173033D01*
X294117Y172982D01*
X294067Y172922D01*
X293784Y172514D01*
Y227481D01*
G37*
G36*
Y245981D02*X293995Y245637D01*
X294751Y244751D01*
X295637Y243995D01*
X296630Y243386D01*
X297706Y242940D01*
X298839Y242669D01*
X299989Y242578D01*
Y238922D01*
X298839Y238831D01*
X297706Y238560D01*
X296630Y238114D01*
X295637Y237505D01*
X294751Y236749D01*
X293995Y235863D01*
X293784Y235519D01*
Y245981D01*
G37*
G36*
Y300000D02*X299989D01*
Y275907D01*
X299323Y275877D01*
X298652Y275784D01*
X297992Y275630D01*
X297349Y275417D01*
X296728Y275146D01*
X296135Y274819D01*
X295573Y274440D01*
X295513Y274388D01*
X295462Y274326D01*
X295421Y274258D01*
X295391Y274184D01*
X295374Y274106D01*
X295369Y274026D01*
X295376Y273947D01*
X295395Y273870D01*
X295427Y273796D01*
X295469Y273729D01*
X295522Y273669D01*
X295583Y273618D01*
X295652Y273577D01*
X295726Y273547D01*
X295803Y273530D01*
X295883Y273524D01*
X295962Y273532D01*
X296040Y273551D01*
X296113Y273582D01*
X296180Y273626D01*
X296660Y273960D01*
X297173Y274242D01*
X297710Y274476D01*
X298265Y274660D01*
X298835Y274793D01*
X299415Y274873D01*
X299989Y274899D01*
Y262101D01*
X299415Y262127D01*
X298835Y262207D01*
X298265Y262340D01*
X297710Y262524D01*
X297173Y262758D01*
X296660Y263040D01*
X296176Y263368D01*
X296110Y263412D01*
X296038Y263443D01*
X295961Y263462D01*
X295883Y263469D01*
X295804Y263464D01*
X295728Y263446D01*
X295654Y263417D01*
X295587Y263377D01*
X295526Y263326D01*
X295475Y263267D01*
X295433Y263201D01*
X295402Y263128D01*
X295382Y263052D01*
X295375Y262974D01*
X295380Y262895D01*
X295398Y262818D01*
X295427Y262745D01*
X295467Y262678D01*
X295518Y262617D01*
X295578Y262567D01*
X296135Y262181D01*
X296728Y261854D01*
X297349Y261583D01*
X297992Y261370D01*
X298652Y261216D01*
X299323Y261123D01*
X299989Y261093D01*
Y257422D01*
X298839Y257331D01*
X297706Y257060D01*
X296630Y256614D01*
X295637Y256005D01*
X294751Y255249D01*
X293995Y254363D01*
X293784Y254019D01*
Y264482D01*
X294060Y264073D01*
X294112Y264013D01*
X294174Y263962D01*
X294242Y263921D01*
X294316Y263891D01*
X294394Y263874D01*
X294474Y263869D01*
X294553Y263876D01*
X294630Y263895D01*
X294704Y263927D01*
X294771Y263969D01*
X294831Y264022D01*
X294882Y264083D01*
X294923Y264152D01*
X294953Y264226D01*
X294970Y264303D01*
X294976Y264383D01*
X294968Y264462D01*
X294949Y264540D01*
X294918Y264613D01*
X294874Y264680D01*
X294540Y265160D01*
X294258Y265673D01*
X294024Y266210D01*
X293840Y266765D01*
X293784Y267004D01*
Y269996D01*
X293840Y270235D01*
X294024Y270790D01*
X294258Y271327D01*
X294540Y271840D01*
X294868Y272324D01*
X294912Y272390D01*
X294943Y272462D01*
X294962Y272539D01*
X294969Y272617D01*
X294964Y272696D01*
X294946Y272772D01*
X294917Y272846D01*
X294877Y272913D01*
X294826Y272974D01*
X294767Y273025D01*
X294701Y273067D01*
X294628Y273098D01*
X294552Y273118D01*
X294474Y273125D01*
X294395Y273120D01*
X294318Y273102D01*
X294245Y273073D01*
X294178Y273033D01*
X294117Y272982D01*
X294067Y272922D01*
X293784Y272514D01*
Y300000D01*
G37*
G36*
Y167004D02*X293707Y167335D01*
X293627Y167915D01*
X293600Y168500D01*
X293627Y169085D01*
X293707Y169665D01*
X293784Y169996D01*
Y167004D01*
G37*
G36*
Y267004D02*X293707Y267335D01*
X293627Y267915D01*
X293600Y268500D01*
X293627Y269085D01*
X293707Y269665D01*
X293784Y269996D01*
Y267004D01*
G37*
G36*
X256216Y169996D02*X256293Y169665D01*
X256373Y169085D01*
X256400Y168500D01*
X256373Y167915D01*
X256293Y167335D01*
X256216Y167004D01*
Y169996D01*
G37*
G36*
Y269996D02*X256293Y269665D01*
X256373Y269085D01*
X256400Y268500D01*
X256373Y267915D01*
X256293Y267335D01*
X256216Y267004D01*
Y269996D01*
G37*
G36*
Y300000D02*X293784D01*
Y272514D01*
X293681Y272365D01*
X293354Y271772D01*
X293083Y271151D01*
X292870Y270508D01*
X292716Y269848D01*
X292623Y269177D01*
X292592Y268500D01*
X292623Y267823D01*
X292716Y267152D01*
X292870Y266492D01*
X293083Y265849D01*
X293354Y265228D01*
X293681Y264635D01*
X293784Y264482D01*
Y254019D01*
X293386Y253370D01*
X292940Y252294D01*
X292669Y251161D01*
X292577Y250000D01*
X292669Y248839D01*
X292940Y247706D01*
X293386Y246630D01*
X293784Y245981D01*
Y235519D01*
X293386Y234870D01*
X292940Y233794D01*
X292669Y232661D01*
X292577Y231500D01*
X292669Y230339D01*
X292940Y229206D01*
X293386Y228130D01*
X293784Y227481D01*
Y172514D01*
X293681Y172365D01*
X293354Y171772D01*
X293083Y171151D01*
X292870Y170508D01*
X292716Y169848D01*
X292623Y169177D01*
X292592Y168500D01*
X292623Y167823D01*
X292716Y167152D01*
X292870Y166492D01*
X293083Y165849D01*
X293354Y165228D01*
X293681Y164635D01*
X293784Y164482D01*
Y154019D01*
X293386Y153370D01*
X292940Y152294D01*
X292669Y151161D01*
X292577Y150000D01*
X292669Y148839D01*
X292940Y147706D01*
X293386Y146630D01*
X293784Y145981D01*
Y135519D01*
X293386Y134870D01*
X292940Y133794D01*
X292669Y132661D01*
X292577Y131500D01*
X292669Y130339D01*
X292940Y129206D01*
X293386Y128130D01*
X293784Y127481D01*
Y100000D01*
X256216D01*
Y127481D01*
X256614Y128130D01*
X257060Y129206D01*
X257331Y130339D01*
X257400Y131500D01*
X257331Y132661D01*
X257060Y133794D01*
X256614Y134870D01*
X256216Y135519D01*
Y145981D01*
X256614Y146630D01*
X257060Y147706D01*
X257331Y148839D01*
X257400Y150000D01*
X257331Y151161D01*
X257060Y152294D01*
X256614Y153370D01*
X256216Y154019D01*
Y164486D01*
X256319Y164635D01*
X256646Y165228D01*
X256917Y165849D01*
X257130Y166492D01*
X257284Y167152D01*
X257377Y167823D01*
X257408Y168500D01*
X257377Y169177D01*
X257284Y169848D01*
X257130Y170508D01*
X256917Y171151D01*
X256646Y171772D01*
X256319Y172365D01*
X256216Y172518D01*
Y227481D01*
X256614Y228130D01*
X257060Y229206D01*
X257331Y230339D01*
X257400Y231500D01*
X257331Y232661D01*
X257060Y233794D01*
X256614Y234870D01*
X256216Y235519D01*
Y245981D01*
X256614Y246630D01*
X257060Y247706D01*
X257331Y248839D01*
X257400Y250000D01*
X257331Y251161D01*
X257060Y252294D01*
X256614Y253370D01*
X256216Y254019D01*
Y264486D01*
X256319Y264635D01*
X256646Y265228D01*
X256917Y265849D01*
X257130Y266492D01*
X257284Y267152D01*
X257377Y267823D01*
X257408Y268500D01*
X257377Y269177D01*
X257284Y269848D01*
X257130Y270508D01*
X256917Y271151D01*
X256646Y271772D01*
X256319Y272365D01*
X256216Y272518D01*
Y300000D01*
G37*
G36*
Y235519D02*X256005Y235863D01*
X255249Y236749D01*
X254363Y237505D01*
X253370Y238114D01*
X252294Y238560D01*
X251161Y238831D01*
X250000Y238923D01*
X249989Y238922D01*
Y242578D01*
X250000Y242577D01*
X251161Y242669D01*
X252294Y242940D01*
X253370Y243386D01*
X254363Y243995D01*
X255249Y244751D01*
X256005Y245637D01*
X256216Y245981D01*
Y235519D01*
G37*
G36*
Y154019D02*X256005Y154363D01*
X255249Y155249D01*
X254363Y156005D01*
X253370Y156614D01*
X252294Y157060D01*
X251161Y157331D01*
X250000Y157423D01*
X249989Y157422D01*
Y161093D01*
X250000Y161092D01*
X250677Y161123D01*
X251348Y161216D01*
X252008Y161370D01*
X252651Y161583D01*
X253272Y161854D01*
X253865Y162181D01*
X254427Y162560D01*
X254487Y162612D01*
X254538Y162674D01*
X254579Y162742D01*
X254609Y162816D01*
X254626Y162894D01*
X254631Y162974D01*
X254624Y163053D01*
X254605Y163130D01*
X254573Y163204D01*
X254531Y163271D01*
X254478Y163331D01*
X254417Y163382D01*
X254348Y163423D01*
X254274Y163453D01*
X254197Y163470D01*
X254117Y163476D01*
X254038Y163468D01*
X253960Y163449D01*
X253887Y163418D01*
X253820Y163374D01*
X253340Y163040D01*
X252827Y162758D01*
X252290Y162524D01*
X251735Y162340D01*
X251165Y162207D01*
X250585Y162127D01*
X250000Y162100D01*
X249989Y162101D01*
Y174899D01*
X250000Y174900D01*
X250585Y174873D01*
X251165Y174793D01*
X251735Y174660D01*
X252290Y174476D01*
X252827Y174242D01*
X253340Y173960D01*
X253824Y173632D01*
X253890Y173588D01*
X253962Y173557D01*
X254039Y173538D01*
X254117Y173531D01*
X254196Y173536D01*
X254272Y173554D01*
X254346Y173583D01*
X254413Y173623D01*
X254474Y173674D01*
X254525Y173733D01*
X254567Y173799D01*
X254598Y173872D01*
X254618Y173948D01*
X254625Y174026D01*
X254620Y174105D01*
X254602Y174182D01*
X254573Y174255D01*
X254533Y174322D01*
X254482Y174383D01*
X254422Y174433D01*
X253865Y174819D01*
X253272Y175146D01*
X252651Y175417D01*
X252008Y175630D01*
X251348Y175784D01*
X250677Y175877D01*
X250000Y175908D01*
X249989Y175907D01*
Y224078D01*
X250000Y224077D01*
X251161Y224169D01*
X252294Y224440D01*
X253370Y224886D01*
X254363Y225495D01*
X255249Y226251D01*
X256005Y227137D01*
X256216Y227481D01*
Y172518D01*
X255940Y172927D01*
X255888Y172987D01*
X255826Y173038D01*
X255758Y173079D01*
X255684Y173109D01*
X255606Y173126D01*
X255526Y173131D01*
X255447Y173124D01*
X255370Y173105D01*
X255296Y173073D01*
X255229Y173031D01*
X255169Y172978D01*
X255118Y172917D01*
X255077Y172848D01*
X255047Y172774D01*
X255030Y172697D01*
X255024Y172617D01*
X255032Y172538D01*
X255051Y172460D01*
X255082Y172387D01*
X255126Y172320D01*
X255460Y171840D01*
X255742Y171327D01*
X255976Y170790D01*
X256160Y170235D01*
X256216Y169996D01*
Y167004D01*
X256160Y166765D01*
X255976Y166210D01*
X255742Y165673D01*
X255460Y165160D01*
X255132Y164676D01*
X255088Y164610D01*
X255057Y164538D01*
X255038Y164461D01*
X255031Y164383D01*
X255036Y164304D01*
X255054Y164228D01*
X255083Y164154D01*
X255123Y164087D01*
X255174Y164026D01*
X255233Y163975D01*
X255299Y163933D01*
X255372Y163902D01*
X255448Y163882D01*
X255526Y163875D01*
X255605Y163880D01*
X255682Y163898D01*
X255755Y163927D01*
X255822Y163967D01*
X255883Y164018D01*
X255933Y164078D01*
X256216Y164486D01*
Y154019D01*
G37*
G36*
Y135519D02*X256005Y135863D01*
X255249Y136749D01*
X254363Y137505D01*
X253370Y138114D01*
X252294Y138560D01*
X251161Y138831D01*
X250000Y138923D01*
X249989Y138922D01*
Y142578D01*
X250000Y142577D01*
X251161Y142669D01*
X252294Y142940D01*
X253370Y143386D01*
X254363Y143995D01*
X255249Y144751D01*
X256005Y145637D01*
X256216Y145981D01*
Y135519D01*
G37*
G36*
Y100000D02*X249989D01*
Y124078D01*
X250000Y124077D01*
X251161Y124169D01*
X252294Y124440D01*
X253370Y124886D01*
X254363Y125495D01*
X255249Y126251D01*
X256005Y127137D01*
X256216Y127481D01*
Y100000D01*
G37*
G36*
X249989Y300000D02*X256216D01*
Y272518D01*
X255940Y272927D01*
X255888Y272987D01*
X255826Y273038D01*
X255758Y273079D01*
X255684Y273109D01*
X255606Y273126D01*
X255526Y273131D01*
X255447Y273124D01*
X255370Y273105D01*
X255296Y273073D01*
X255229Y273031D01*
X255169Y272978D01*
X255118Y272917D01*
X255077Y272848D01*
X255047Y272774D01*
X255030Y272697D01*
X255024Y272617D01*
X255032Y272538D01*
X255051Y272460D01*
X255082Y272387D01*
X255126Y272320D01*
X255460Y271840D01*
X255742Y271327D01*
X255976Y270790D01*
X256160Y270235D01*
X256216Y269996D01*
Y267004D01*
X256160Y266765D01*
X255976Y266210D01*
X255742Y265673D01*
X255460Y265160D01*
X255132Y264676D01*
X255088Y264610D01*
X255057Y264538D01*
X255038Y264461D01*
X255031Y264383D01*
X255036Y264304D01*
X255054Y264228D01*
X255083Y264154D01*
X255123Y264087D01*
X255174Y264026D01*
X255233Y263975D01*
X255299Y263933D01*
X255372Y263902D01*
X255448Y263882D01*
X255526Y263875D01*
X255605Y263880D01*
X255682Y263898D01*
X255755Y263927D01*
X255822Y263967D01*
X255883Y264018D01*
X255933Y264078D01*
X256216Y264486D01*
Y254019D01*
X256005Y254363D01*
X255249Y255249D01*
X254363Y256005D01*
X253370Y256614D01*
X252294Y257060D01*
X251161Y257331D01*
X250000Y257423D01*
X249989Y257422D01*
Y261093D01*
X250000Y261092D01*
X250677Y261123D01*
X251348Y261216D01*
X252008Y261370D01*
X252651Y261583D01*
X253272Y261854D01*
X253865Y262181D01*
X254427Y262560D01*
X254487Y262612D01*
X254538Y262674D01*
X254579Y262742D01*
X254609Y262816D01*
X254626Y262894D01*
X254631Y262974D01*
X254624Y263053D01*
X254605Y263130D01*
X254573Y263204D01*
X254531Y263271D01*
X254478Y263331D01*
X254417Y263382D01*
X254348Y263423D01*
X254274Y263453D01*
X254197Y263470D01*
X254117Y263476D01*
X254038Y263468D01*
X253960Y263449D01*
X253887Y263418D01*
X253820Y263374D01*
X253340Y263040D01*
X252827Y262758D01*
X252290Y262524D01*
X251735Y262340D01*
X251165Y262207D01*
X250585Y262127D01*
X250000Y262100D01*
X249989Y262101D01*
Y274899D01*
X250000Y274900D01*
X250585Y274873D01*
X251165Y274793D01*
X251735Y274660D01*
X252290Y274476D01*
X252827Y274242D01*
X253340Y273960D01*
X253824Y273632D01*
X253890Y273588D01*
X253962Y273557D01*
X254039Y273538D01*
X254117Y273531D01*
X254196Y273536D01*
X254272Y273554D01*
X254346Y273583D01*
X254413Y273623D01*
X254474Y273674D01*
X254525Y273733D01*
X254567Y273799D01*
X254598Y273872D01*
X254618Y273948D01*
X254625Y274026D01*
X254620Y274105D01*
X254602Y274182D01*
X254573Y274255D01*
X254533Y274322D01*
X254482Y274383D01*
X254422Y274433D01*
X253865Y274819D01*
X253272Y275146D01*
X252651Y275417D01*
X252008Y275630D01*
X251348Y275784D01*
X250677Y275877D01*
X250000Y275908D01*
X249989Y275907D01*
Y300000D01*
G37*
G36*
X243784Y127481D02*X243995Y127137D01*
X244751Y126251D01*
X245637Y125495D01*
X246630Y124886D01*
X247706Y124440D01*
X248839Y124169D01*
X249989Y124078D01*
Y100000D01*
X243784D01*
Y127481D01*
G37*
G36*
Y145981D02*X243995Y145637D01*
X244751Y144751D01*
X245637Y143995D01*
X246630Y143386D01*
X247706Y142940D01*
X248839Y142669D01*
X249989Y142578D01*
Y138922D01*
X248839Y138831D01*
X247706Y138560D01*
X246630Y138114D01*
X245637Y137505D01*
X244751Y136749D01*
X243995Y135863D01*
X243784Y135519D01*
Y145981D01*
G37*
G36*
Y227481D02*X243995Y227137D01*
X244751Y226251D01*
X245637Y225495D01*
X246630Y224886D01*
X247706Y224440D01*
X248839Y224169D01*
X249989Y224078D01*
Y175907D01*
X249323Y175877D01*
X248652Y175784D01*
X247992Y175630D01*
X247349Y175417D01*
X246728Y175146D01*
X246135Y174819D01*
X245573Y174440D01*
X245513Y174388D01*
X245462Y174326D01*
X245421Y174258D01*
X245391Y174184D01*
X245374Y174106D01*
X245369Y174026D01*
X245376Y173947D01*
X245395Y173870D01*
X245427Y173796D01*
X245469Y173729D01*
X245522Y173669D01*
X245583Y173618D01*
X245652Y173577D01*
X245726Y173547D01*
X245803Y173530D01*
X245883Y173524D01*
X245962Y173532D01*
X246040Y173551D01*
X246113Y173582D01*
X246180Y173626D01*
X246660Y173960D01*
X247173Y174242D01*
X247710Y174476D01*
X248265Y174660D01*
X248835Y174793D01*
X249415Y174873D01*
X249989Y174899D01*
Y162101D01*
X249415Y162127D01*
X248835Y162207D01*
X248265Y162340D01*
X247710Y162524D01*
X247173Y162758D01*
X246660Y163040D01*
X246176Y163368D01*
X246110Y163412D01*
X246038Y163443D01*
X245961Y163462D01*
X245883Y163469D01*
X245804Y163464D01*
X245728Y163446D01*
X245654Y163417D01*
X245587Y163377D01*
X245526Y163326D01*
X245475Y163267D01*
X245433Y163201D01*
X245402Y163128D01*
X245382Y163052D01*
X245375Y162974D01*
X245380Y162895D01*
X245398Y162818D01*
X245427Y162745D01*
X245467Y162678D01*
X245518Y162617D01*
X245578Y162567D01*
X246135Y162181D01*
X246728Y161854D01*
X247349Y161583D01*
X247992Y161370D01*
X248652Y161216D01*
X249323Y161123D01*
X249989Y161093D01*
Y157422D01*
X248839Y157331D01*
X247706Y157060D01*
X246630Y156614D01*
X245637Y156005D01*
X244751Y155249D01*
X243995Y154363D01*
X243784Y154019D01*
Y164482D01*
X244060Y164073D01*
X244112Y164013D01*
X244174Y163962D01*
X244242Y163921D01*
X244316Y163891D01*
X244394Y163874D01*
X244474Y163869D01*
X244553Y163876D01*
X244630Y163895D01*
X244704Y163927D01*
X244771Y163969D01*
X244831Y164022D01*
X244882Y164083D01*
X244923Y164152D01*
X244953Y164226D01*
X244970Y164303D01*
X244976Y164383D01*
X244968Y164462D01*
X244949Y164540D01*
X244918Y164613D01*
X244874Y164680D01*
X244540Y165160D01*
X244258Y165673D01*
X244024Y166210D01*
X243840Y166765D01*
X243784Y167004D01*
Y169996D01*
X243840Y170235D01*
X244024Y170790D01*
X244258Y171327D01*
X244540Y171840D01*
X244868Y172324D01*
X244912Y172390D01*
X244943Y172462D01*
X244962Y172539D01*
X244969Y172617D01*
X244964Y172696D01*
X244946Y172772D01*
X244917Y172846D01*
X244877Y172913D01*
X244826Y172974D01*
X244767Y173025D01*
X244701Y173067D01*
X244628Y173098D01*
X244552Y173118D01*
X244474Y173125D01*
X244395Y173120D01*
X244318Y173102D01*
X244245Y173073D01*
X244178Y173033D01*
X244117Y172982D01*
X244067Y172922D01*
X243784Y172514D01*
Y227481D01*
G37*
G36*
Y245981D02*X243995Y245637D01*
X244751Y244751D01*
X245637Y243995D01*
X246630Y243386D01*
X247706Y242940D01*
X248839Y242669D01*
X249989Y242578D01*
Y238922D01*
X248839Y238831D01*
X247706Y238560D01*
X246630Y238114D01*
X245637Y237505D01*
X244751Y236749D01*
X243995Y235863D01*
X243784Y235519D01*
Y245981D01*
G37*
G36*
Y300000D02*X249989D01*
Y275907D01*
X249323Y275877D01*
X248652Y275784D01*
X247992Y275630D01*
X247349Y275417D01*
X246728Y275146D01*
X246135Y274819D01*
X245573Y274440D01*
X245513Y274388D01*
X245462Y274326D01*
X245421Y274258D01*
X245391Y274184D01*
X245374Y274106D01*
X245369Y274026D01*
X245376Y273947D01*
X245395Y273870D01*
X245427Y273796D01*
X245469Y273729D01*
X245522Y273669D01*
X245583Y273618D01*
X245652Y273577D01*
X245726Y273547D01*
X245803Y273530D01*
X245883Y273524D01*
X245962Y273532D01*
X246040Y273551D01*
X246113Y273582D01*
X246180Y273626D01*
X246660Y273960D01*
X247173Y274242D01*
X247710Y274476D01*
X248265Y274660D01*
X248835Y274793D01*
X249415Y274873D01*
X249989Y274899D01*
Y262101D01*
X249415Y262127D01*
X248835Y262207D01*
X248265Y262340D01*
X247710Y262524D01*
X247173Y262758D01*
X246660Y263040D01*
X246176Y263368D01*
X246110Y263412D01*
X246038Y263443D01*
X245961Y263462D01*
X245883Y263469D01*
X245804Y263464D01*
X245728Y263446D01*
X245654Y263417D01*
X245587Y263377D01*
X245526Y263326D01*
X245475Y263267D01*
X245433Y263201D01*
X245402Y263128D01*
X245382Y263052D01*
X245375Y262974D01*
X245380Y262895D01*
X245398Y262818D01*
X245427Y262745D01*
X245467Y262678D01*
X245518Y262617D01*
X245578Y262567D01*
X246135Y262181D01*
X246728Y261854D01*
X247349Y261583D01*
X247992Y261370D01*
X248652Y261216D01*
X249323Y261123D01*
X249989Y261093D01*
Y257422D01*
X248839Y257331D01*
X247706Y257060D01*
X246630Y256614D01*
X245637Y256005D01*
X244751Y255249D01*
X243995Y254363D01*
X243784Y254019D01*
Y264482D01*
X244060Y264073D01*
X244112Y264013D01*
X244174Y263962D01*
X244242Y263921D01*
X244316Y263891D01*
X244394Y263874D01*
X244474Y263869D01*
X244553Y263876D01*
X244630Y263895D01*
X244704Y263927D01*
X244771Y263969D01*
X244831Y264022D01*
X244882Y264083D01*
X244923Y264152D01*
X244953Y264226D01*
X244970Y264303D01*
X244976Y264383D01*
X244968Y264462D01*
X244949Y264540D01*
X244918Y264613D01*
X244874Y264680D01*
X244540Y265160D01*
X244258Y265673D01*
X244024Y266210D01*
X243840Y266765D01*
X243784Y267004D01*
Y269996D01*
X243840Y270235D01*
X244024Y270790D01*
X244258Y271327D01*
X244540Y271840D01*
X244868Y272324D01*
X244912Y272390D01*
X244943Y272462D01*
X244962Y272539D01*
X244969Y272617D01*
X244964Y272696D01*
X244946Y272772D01*
X244917Y272846D01*
X244877Y272913D01*
X244826Y272974D01*
X244767Y273025D01*
X244701Y273067D01*
X244628Y273098D01*
X244552Y273118D01*
X244474Y273125D01*
X244395Y273120D01*
X244318Y273102D01*
X244245Y273073D01*
X244178Y273033D01*
X244117Y272982D01*
X244067Y272922D01*
X243784Y272514D01*
Y300000D01*
G37*
G36*
Y167004D02*X243707Y167335D01*
X243627Y167915D01*
X243600Y168500D01*
X243627Y169085D01*
X243707Y169665D01*
X243784Y169996D01*
Y167004D01*
G37*
G36*
Y267004D02*X243707Y267335D01*
X243627Y267915D01*
X243600Y268500D01*
X243627Y269085D01*
X243707Y269665D01*
X243784Y269996D01*
Y267004D01*
G37*
G36*
X204979Y300000D02*X243784D01*
Y272514D01*
X243681Y272365D01*
X243354Y271772D01*
X243083Y271151D01*
X242870Y270508D01*
X242716Y269848D01*
X242623Y269177D01*
X242592Y268500D01*
X242623Y267823D01*
X242716Y267152D01*
X242870Y266492D01*
X243083Y265849D01*
X243354Y265228D01*
X243681Y264635D01*
X243784Y264482D01*
Y254019D01*
X243386Y253370D01*
X242940Y252294D01*
X242669Y251161D01*
X242577Y250000D01*
X242669Y248839D01*
X242940Y247706D01*
X243386Y246630D01*
X243784Y245981D01*
Y235519D01*
X243386Y234870D01*
X242940Y233794D01*
X242669Y232661D01*
X242577Y231500D01*
X242669Y230339D01*
X242940Y229206D01*
X243386Y228130D01*
X243784Y227481D01*
Y172514D01*
X243681Y172365D01*
X243354Y171772D01*
X243083Y171151D01*
X242870Y170508D01*
X242716Y169848D01*
X242623Y169177D01*
X242592Y168500D01*
X242623Y167823D01*
X242716Y167152D01*
X242870Y166492D01*
X243083Y165849D01*
X243354Y165228D01*
X243681Y164635D01*
X243784Y164482D01*
Y154019D01*
X243386Y153370D01*
X242940Y152294D01*
X242669Y151161D01*
X242577Y150000D01*
X242669Y148839D01*
X242940Y147706D01*
X243386Y146630D01*
X243784Y145981D01*
Y135519D01*
X243386Y134870D01*
X242940Y133794D01*
X242669Y132661D01*
X242577Y131500D01*
X242669Y130339D01*
X242940Y129206D01*
X243386Y128130D01*
X243784Y127481D01*
Y100000D01*
X204979D01*
Y136460D01*
X205000Y136458D01*
X207118Y136625D01*
X209185Y137121D01*
X211148Y137934D01*
X212960Y139045D01*
X214575Y140425D01*
X215955Y142040D01*
X217066Y143852D01*
X217879Y145815D01*
X218375Y147882D01*
X218500Y150000D01*
X218375Y152118D01*
X217879Y154185D01*
X217066Y156148D01*
X215955Y157960D01*
X214575Y159575D01*
X212960Y160955D01*
X211148Y162066D01*
X209185Y162879D01*
X207118Y163375D01*
X205000Y163542D01*
X204979Y163540D01*
Y236360D01*
X205000Y236358D01*
X207134Y236526D01*
X209216Y237026D01*
X211193Y237845D01*
X213019Y238963D01*
X214646Y240354D01*
X216037Y241981D01*
X217155Y243807D01*
X217974Y245784D01*
X218474Y247866D01*
X218600Y250000D01*
X218474Y252134D01*
X217974Y254216D01*
X217155Y256193D01*
X216037Y258019D01*
X214646Y259646D01*
X213019Y261037D01*
X211193Y262155D01*
X209216Y262974D01*
X207134Y263474D01*
X205000Y263642D01*
X204979Y263640D01*
Y300000D01*
G37*
G36*
X190000Y100000D02*Y300000D01*
X204979D01*
Y263640D01*
X202866Y263474D01*
X200784Y262974D01*
X198807Y262155D01*
X196981Y261037D01*
X195354Y259646D01*
X193963Y258019D01*
X192845Y256193D01*
X192026Y254216D01*
X191526Y252134D01*
X191358Y250000D01*
X191526Y247866D01*
X192026Y245784D01*
X192845Y243807D01*
X193963Y241981D01*
X195354Y240354D01*
X196981Y238963D01*
X198807Y237845D01*
X200784Y237026D01*
X202866Y236526D01*
X204979Y236360D01*
Y163540D01*
X202882Y163375D01*
X200815Y162879D01*
X198852Y162066D01*
X197040Y160955D01*
X195425Y159575D01*
X194045Y157960D01*
X192934Y156148D01*
X192121Y154185D01*
X191625Y152118D01*
X191458Y150000D01*
X191625Y147882D01*
X192121Y145815D01*
X192934Y143852D01*
X194045Y142040D01*
X195425Y140425D01*
X197040Y139045D01*
X198852Y137934D01*
X200815Y137121D01*
X202882Y136625D01*
X204979Y136460D01*
Y100000D01*
X190000D01*
G37*
G36*
X629993Y350000D02*X660000D01*
Y290000D01*
X629993D01*
Y315487D01*
X630000Y315486D01*
X630706Y315542D01*
X631395Y315707D01*
X632049Y315978D01*
X632653Y316348D01*
X633192Y316808D01*
X633652Y317347D01*
X634022Y317951D01*
X634293Y318605D01*
X634458Y319294D01*
X634500Y320000D01*
X634458Y320706D01*
X634293Y321395D01*
X634022Y322049D01*
X633652Y322653D01*
X633192Y323192D01*
X632653Y323652D01*
X632049Y324022D01*
X631395Y324293D01*
X630706Y324458D01*
X630000Y324514D01*
X629993Y324513D01*
Y325487D01*
X630000Y325486D01*
X630706Y325542D01*
X631395Y325707D01*
X632049Y325978D01*
X632653Y326348D01*
X633192Y326808D01*
X633652Y327347D01*
X634022Y327951D01*
X634293Y328605D01*
X634458Y329294D01*
X634500Y330000D01*
X634458Y330706D01*
X634293Y331395D01*
X634022Y332049D01*
X633652Y332653D01*
X633192Y333192D01*
X632653Y333652D01*
X632049Y334022D01*
X631395Y334293D01*
X630706Y334458D01*
X630000Y334514D01*
X629993Y334513D01*
Y350000D01*
G37*
G36*
X623613D02*X629993D01*
Y334513D01*
X629294Y334458D01*
X628605Y334293D01*
X627951Y334022D01*
X627347Y333652D01*
X626808Y333192D01*
X626348Y332653D01*
X625978Y332049D01*
X625707Y331395D01*
X625542Y330706D01*
X625486Y330000D01*
X625542Y329294D01*
X625707Y328605D01*
X625978Y327951D01*
X626348Y327347D01*
X626808Y326808D01*
X627347Y326348D01*
X627951Y325978D01*
X628605Y325707D01*
X629294Y325542D01*
X629993Y325487D01*
Y324513D01*
X629294Y324458D01*
X628605Y324293D01*
X627951Y324022D01*
X627347Y323652D01*
X626808Y323192D01*
X626348Y322653D01*
X625978Y322049D01*
X625707Y321395D01*
X625542Y320706D01*
X625486Y320000D01*
X625542Y319294D01*
X625707Y318605D01*
X625978Y317951D01*
X626348Y317347D01*
X626808Y316808D01*
X627347Y316348D01*
X627951Y315978D01*
X628605Y315707D01*
X629294Y315542D01*
X629993Y315487D01*
Y290000D01*
X623613D01*
Y317853D01*
X623656Y317860D01*
X623768Y317897D01*
X623873Y317952D01*
X623968Y318022D01*
X624051Y318106D01*
X624119Y318202D01*
X624170Y318308D01*
X624318Y318716D01*
X624422Y319137D01*
X624484Y319567D01*
X624505Y320000D01*
X624484Y320433D01*
X624422Y320863D01*
X624318Y321284D01*
X624175Y321694D01*
X624122Y321800D01*
X624053Y321896D01*
X623970Y321981D01*
X623875Y322051D01*
X623769Y322106D01*
X623657Y322143D01*
X623613Y322151D01*
Y327302D01*
X623652Y327347D01*
X624022Y327951D01*
X624293Y328605D01*
X624458Y329294D01*
X624500Y330000D01*
X624458Y330706D01*
X624293Y331395D01*
X624022Y332049D01*
X623652Y332653D01*
X623613Y332698D01*
Y350000D01*
G37*
G36*
Y290000D02*X619993D01*
Y315495D01*
X620000Y315495D01*
X620433Y315516D01*
X620863Y315578D01*
X621284Y315682D01*
X621694Y315825D01*
X621800Y315878D01*
X621896Y315947D01*
X621981Y316030D01*
X622051Y316125D01*
X622106Y316231D01*
X622143Y316343D01*
X622163Y316460D01*
X622164Y316579D01*
X622146Y316696D01*
X622110Y316809D01*
X622057Y316915D01*
X621988Y317012D01*
X621905Y317096D01*
X621809Y317167D01*
X621704Y317221D01*
X621592Y317259D01*
X621475Y317278D01*
X621356Y317279D01*
X621239Y317261D01*
X621126Y317223D01*
X620855Y317124D01*
X620575Y317056D01*
X620289Y317014D01*
X620000Y317000D01*
X619993Y317000D01*
Y323000D01*
X620000Y323000D01*
X620289Y322986D01*
X620575Y322944D01*
X620855Y322876D01*
X621128Y322780D01*
X621239Y322742D01*
X621356Y322725D01*
X621474Y322725D01*
X621591Y322745D01*
X621703Y322782D01*
X621807Y322836D01*
X621902Y322906D01*
X621985Y322991D01*
X622054Y323087D01*
X622107Y323192D01*
X622143Y323305D01*
X622160Y323421D01*
X622159Y323539D01*
X622140Y323656D01*
X622103Y323768D01*
X622048Y323873D01*
X621978Y323968D01*
X621894Y324051D01*
X621798Y324119D01*
X621692Y324170D01*
X621284Y324318D01*
X620863Y324422D01*
X620433Y324484D01*
X620000Y324505D01*
X619993Y324505D01*
Y325487D01*
X620000Y325486D01*
X620706Y325542D01*
X621395Y325707D01*
X622049Y325978D01*
X622653Y326348D01*
X623192Y326808D01*
X623613Y327302D01*
Y322151D01*
X623540Y322163D01*
X623421Y322164D01*
X623304Y322146D01*
X623191Y322110D01*
X623085Y322057D01*
X622988Y321988D01*
X622904Y321905D01*
X622833Y321809D01*
X622779Y321704D01*
X622741Y321592D01*
X622722Y321475D01*
X622721Y321356D01*
X622739Y321239D01*
X622777Y321126D01*
X622876Y320855D01*
X622944Y320575D01*
X622986Y320289D01*
X623000Y320000D01*
X622986Y319711D01*
X622944Y319425D01*
X622876Y319145D01*
X622780Y318872D01*
X622742Y318761D01*
X622725Y318644D01*
X622725Y318526D01*
X622745Y318409D01*
X622782Y318297D01*
X622836Y318193D01*
X622906Y318098D01*
X622991Y318015D01*
X623087Y317946D01*
X623192Y317893D01*
X623305Y317857D01*
X623421Y317840D01*
X623539Y317841D01*
X623613Y317853D01*
Y290000D01*
G37*
G36*
X619993Y350000D02*X623613D01*
Y332698D01*
X623192Y333192D01*
X622653Y333652D01*
X622049Y334022D01*
X621395Y334293D01*
X620706Y334458D01*
X620000Y334514D01*
X619993Y334513D01*
Y350000D01*
G37*
G36*
X616387Y327302D02*X616808Y326808D01*
X617347Y326348D01*
X617951Y325978D01*
X618605Y325707D01*
X619294Y325542D01*
X619993Y325487D01*
Y324505D01*
X619567Y324484D01*
X619137Y324422D01*
X618716Y324318D01*
X618306Y324175D01*
X618200Y324122D01*
X618104Y324053D01*
X618019Y323970D01*
X617949Y323875D01*
X617894Y323769D01*
X617857Y323657D01*
X617837Y323540D01*
X617836Y323421D01*
X617854Y323304D01*
X617890Y323191D01*
X617943Y323085D01*
X618012Y322988D01*
X618095Y322904D01*
X618191Y322833D01*
X618296Y322779D01*
X618408Y322741D01*
X618525Y322722D01*
X618644Y322721D01*
X618761Y322739D01*
X618874Y322777D01*
X619145Y322876D01*
X619425Y322944D01*
X619711Y322986D01*
X619993Y323000D01*
Y317000D01*
X619711Y317014D01*
X619425Y317056D01*
X619145Y317124D01*
X618872Y317220D01*
X618761Y317258D01*
X618644Y317275D01*
X618526Y317275D01*
X618409Y317255D01*
X618297Y317218D01*
X618193Y317164D01*
X618098Y317094D01*
X618015Y317009D01*
X617946Y316913D01*
X617893Y316808D01*
X617857Y316695D01*
X617840Y316579D01*
X617841Y316461D01*
X617860Y316344D01*
X617897Y316232D01*
X617952Y316127D01*
X618022Y316032D01*
X618106Y315949D01*
X618202Y315881D01*
X618308Y315830D01*
X618716Y315682D01*
X619137Y315578D01*
X619567Y315516D01*
X619993Y315495D01*
Y290000D01*
X616387D01*
Y317849D01*
X616460Y317837D01*
X616579Y317836D01*
X616696Y317854D01*
X616809Y317890D01*
X616915Y317943D01*
X617012Y318012D01*
X617096Y318095D01*
X617167Y318191D01*
X617221Y318296D01*
X617259Y318408D01*
X617278Y318525D01*
X617279Y318644D01*
X617261Y318761D01*
X617223Y318874D01*
X617124Y319145D01*
X617056Y319425D01*
X617014Y319711D01*
X617000Y320000D01*
X617014Y320289D01*
X617056Y320575D01*
X617124Y320855D01*
X617220Y321128D01*
X617258Y321239D01*
X617275Y321356D01*
X617275Y321474D01*
X617255Y321591D01*
X617218Y321703D01*
X617164Y321807D01*
X617094Y321902D01*
X617009Y321985D01*
X616913Y322054D01*
X616808Y322107D01*
X616695Y322143D01*
X616579Y322160D01*
X616461Y322159D01*
X616387Y322147D01*
Y327302D01*
G37*
G36*
Y350000D02*X619993D01*
Y334513D01*
X619294Y334458D01*
X618605Y334293D01*
X617951Y334022D01*
X617347Y333652D01*
X616808Y333192D01*
X616387Y332698D01*
Y350000D01*
G37*
G36*
X609993D02*X616387D01*
Y332698D01*
X616348Y332653D01*
X615978Y332049D01*
X615707Y331395D01*
X615542Y330706D01*
X615486Y330000D01*
X615542Y329294D01*
X615707Y328605D01*
X615978Y327951D01*
X616348Y327347D01*
X616387Y327302D01*
Y322147D01*
X616344Y322140D01*
X616232Y322103D01*
X616127Y322048D01*
X616032Y321978D01*
X615949Y321894D01*
X615881Y321798D01*
X615830Y321692D01*
X615682Y321284D01*
X615578Y320863D01*
X615516Y320433D01*
X615495Y320000D01*
X615516Y319567D01*
X615578Y319137D01*
X615682Y318716D01*
X615825Y318306D01*
X615878Y318200D01*
X615947Y318104D01*
X616030Y318019D01*
X616125Y317949D01*
X616231Y317894D01*
X616343Y317857D01*
X616387Y317849D01*
Y290000D01*
X609993D01*
Y315487D01*
X610000Y315486D01*
X610706Y315542D01*
X611395Y315707D01*
X612049Y315978D01*
X612653Y316348D01*
X613192Y316808D01*
X613652Y317347D01*
X614022Y317951D01*
X614293Y318605D01*
X614458Y319294D01*
X614500Y320000D01*
X614458Y320706D01*
X614293Y321395D01*
X614022Y322049D01*
X613652Y322653D01*
X613192Y323192D01*
X612653Y323652D01*
X612049Y324022D01*
X611395Y324293D01*
X610706Y324458D01*
X610000Y324514D01*
X609993Y324513D01*
Y325487D01*
X610000Y325486D01*
X610706Y325542D01*
X611395Y325707D01*
X612049Y325978D01*
X612653Y326348D01*
X613192Y326808D01*
X613652Y327347D01*
X614022Y327951D01*
X614293Y328605D01*
X614458Y329294D01*
X614500Y330000D01*
X614458Y330706D01*
X614293Y331395D01*
X614022Y332049D01*
X613652Y332653D01*
X613192Y333192D01*
X612653Y333652D01*
X612049Y334022D01*
X611395Y334293D01*
X610706Y334458D01*
X610000Y334514D01*
X609993Y334513D01*
Y350000D01*
G37*
G36*
X599993D02*X609993D01*
Y334513D01*
X609294Y334458D01*
X608605Y334293D01*
X607951Y334022D01*
X607347Y333652D01*
X606808Y333192D01*
X606348Y332653D01*
X605978Y332049D01*
X605707Y331395D01*
X605542Y330706D01*
X605486Y330000D01*
X605542Y329294D01*
X605707Y328605D01*
X605978Y327951D01*
X606348Y327347D01*
X606808Y326808D01*
X607347Y326348D01*
X607951Y325978D01*
X608605Y325707D01*
X609294Y325542D01*
X609993Y325487D01*
Y324513D01*
X609294Y324458D01*
X608605Y324293D01*
X607951Y324022D01*
X607347Y323652D01*
X606808Y323192D01*
X606348Y322653D01*
X605978Y322049D01*
X605707Y321395D01*
X605542Y320706D01*
X605486Y320000D01*
X605542Y319294D01*
X605707Y318605D01*
X605978Y317951D01*
X606348Y317347D01*
X606808Y316808D01*
X607347Y316348D01*
X607951Y315978D01*
X608605Y315707D01*
X609294Y315542D01*
X609993Y315487D01*
Y290000D01*
X605833D01*
X605681Y290366D01*
X605435Y290769D01*
X605128Y291128D01*
X604769Y291435D01*
X604366Y291681D01*
X603930Y291862D01*
X603471Y291972D01*
X603000Y292009D01*
X602529Y291972D01*
X602070Y291862D01*
X601634Y291681D01*
X601231Y291435D01*
X600872Y291128D01*
X600565Y290769D01*
X600401Y290500D01*
X599993D01*
Y315487D01*
X600000Y315486D01*
X600706Y315542D01*
X601395Y315707D01*
X602049Y315978D01*
X602653Y316348D01*
X603192Y316808D01*
X603652Y317347D01*
X604022Y317951D01*
X604293Y318605D01*
X604458Y319294D01*
X604500Y320000D01*
X604458Y320706D01*
X604293Y321395D01*
X604022Y322049D01*
X603652Y322653D01*
X603192Y323192D01*
X602653Y323652D01*
X602049Y324022D01*
X601395Y324293D01*
X600706Y324458D01*
X600000Y324514D01*
X599993Y324513D01*
Y325487D01*
X600000Y325486D01*
X600706Y325542D01*
X601395Y325707D01*
X602049Y325978D01*
X602653Y326348D01*
X603192Y326808D01*
X603652Y327347D01*
X604022Y327951D01*
X604293Y328605D01*
X604458Y329294D01*
X604500Y330000D01*
X604458Y330706D01*
X604293Y331395D01*
X604022Y332049D01*
X603652Y332653D01*
X603192Y333192D01*
X602653Y333652D01*
X602049Y334022D01*
X601395Y334293D01*
X600706Y334458D01*
X600000Y334514D01*
X599993Y334513D01*
Y350000D01*
G37*
G36*
X589993Y293500D02*X593401D01*
X593565Y293231D01*
X593872Y292872D01*
X594231Y292565D01*
X594634Y292319D01*
X595070Y292138D01*
X595529Y292028D01*
X596000Y291991D01*
X596471Y292028D01*
X596930Y292138D01*
X597366Y292319D01*
X597769Y292565D01*
X598128Y292872D01*
X598435Y293231D01*
X598681Y293634D01*
X598862Y294070D01*
X598972Y294529D01*
X599000Y295000D01*
X598972Y295471D01*
X598862Y295930D01*
X598681Y296366D01*
X598435Y296769D01*
X598128Y297128D01*
X597769Y297435D01*
X597366Y297681D01*
X596930Y297862D01*
X596471Y297972D01*
X596000Y298009D01*
X595529Y297972D01*
X595070Y297862D01*
X594634Y297681D01*
X594231Y297435D01*
X593872Y297128D01*
X593565Y296769D01*
X593401Y296500D01*
X589993D01*
Y315487D01*
X590000Y315486D01*
X590706Y315542D01*
X591395Y315707D01*
X592049Y315978D01*
X592653Y316348D01*
X593192Y316808D01*
X593652Y317347D01*
X594022Y317951D01*
X594293Y318605D01*
X594458Y319294D01*
X594500Y320000D01*
X594458Y320706D01*
X594293Y321395D01*
X594022Y322049D01*
X593652Y322653D01*
X593192Y323192D01*
X592653Y323652D01*
X592049Y324022D01*
X591395Y324293D01*
X590706Y324458D01*
X590000Y324514D01*
X589993Y324513D01*
Y325487D01*
X590000Y325486D01*
X590706Y325542D01*
X591395Y325707D01*
X592049Y325978D01*
X592653Y326348D01*
X593192Y326808D01*
X593652Y327347D01*
X594022Y327951D01*
X594293Y328605D01*
X594458Y329294D01*
X594500Y330000D01*
X594458Y330706D01*
X594293Y331395D01*
X594022Y332049D01*
X593652Y332653D01*
X593192Y333192D01*
X592653Y333652D01*
X592049Y334022D01*
X591395Y334293D01*
X590706Y334458D01*
X590000Y334514D01*
X589993Y334513D01*
Y350000D01*
X599993D01*
Y334513D01*
X599294Y334458D01*
X598605Y334293D01*
X597951Y334022D01*
X597347Y333652D01*
X596808Y333192D01*
X596348Y332653D01*
X595978Y332049D01*
X595707Y331395D01*
X595542Y330706D01*
X595486Y330000D01*
X595542Y329294D01*
X595707Y328605D01*
X595978Y327951D01*
X596348Y327347D01*
X596808Y326808D01*
X597347Y326348D01*
X597951Y325978D01*
X598605Y325707D01*
X599294Y325542D01*
X599993Y325487D01*
Y324513D01*
X599294Y324458D01*
X598605Y324293D01*
X597951Y324022D01*
X597347Y323652D01*
X596808Y323192D01*
X596348Y322653D01*
X595978Y322049D01*
X595707Y321395D01*
X595542Y320706D01*
X595486Y320000D01*
X595542Y319294D01*
X595707Y318605D01*
X595978Y317951D01*
X596348Y317347D01*
X596808Y316808D01*
X597347Y316348D01*
X597951Y315978D01*
X598605Y315707D01*
X599294Y315542D01*
X599993Y315487D01*
Y290500D01*
X589993D01*
Y293500D01*
G37*
G36*
Y296500D02*X579993D01*
Y315487D01*
X580000Y315486D01*
X580706Y315542D01*
X581395Y315707D01*
X582049Y315978D01*
X582653Y316348D01*
X583192Y316808D01*
X583652Y317347D01*
X584022Y317951D01*
X584293Y318605D01*
X584458Y319294D01*
X584500Y320000D01*
X584458Y320706D01*
X584293Y321395D01*
X584022Y322049D01*
X583652Y322653D01*
X583192Y323192D01*
X582653Y323652D01*
X582049Y324022D01*
X581395Y324293D01*
X580706Y324458D01*
X580000Y324514D01*
X579993Y324513D01*
Y325487D01*
X580000Y325486D01*
X580706Y325542D01*
X581395Y325707D01*
X582049Y325978D01*
X582653Y326348D01*
X583192Y326808D01*
X583652Y327347D01*
X584022Y327951D01*
X584293Y328605D01*
X584458Y329294D01*
X584500Y330000D01*
X584458Y330706D01*
X584293Y331395D01*
X584022Y332049D01*
X583652Y332653D01*
X583192Y333192D01*
X582653Y333652D01*
X582049Y334022D01*
X581395Y334293D01*
X580706Y334458D01*
X580000Y334514D01*
X579993Y334513D01*
Y350000D01*
X589993D01*
Y334513D01*
X589294Y334458D01*
X588605Y334293D01*
X587951Y334022D01*
X587347Y333652D01*
X586808Y333192D01*
X586348Y332653D01*
X585978Y332049D01*
X585707Y331395D01*
X585542Y330706D01*
X585486Y330000D01*
X585542Y329294D01*
X585707Y328605D01*
X585978Y327951D01*
X586348Y327347D01*
X586808Y326808D01*
X587347Y326348D01*
X587951Y325978D01*
X588605Y325707D01*
X589294Y325542D01*
X589993Y325487D01*
Y324513D01*
X589294Y324458D01*
X588605Y324293D01*
X587951Y324022D01*
X587347Y323652D01*
X586808Y323192D01*
X586348Y322653D01*
X585978Y322049D01*
X585707Y321395D01*
X585542Y320706D01*
X585486Y320000D01*
X585542Y319294D01*
X585707Y318605D01*
X585978Y317951D01*
X586348Y317347D01*
X586808Y316808D01*
X587347Y316348D01*
X587951Y315978D01*
X588605Y315707D01*
X589294Y315542D01*
X589993Y315487D01*
Y296500D01*
G37*
G36*
X579993Y293500D02*X589993D01*
Y290500D01*
X579993D01*
Y293500D01*
G37*
G36*
Y296500D02*X569993D01*
Y315487D01*
X570000Y315486D01*
X570706Y315542D01*
X571395Y315707D01*
X572049Y315978D01*
X572653Y316348D01*
X573192Y316808D01*
X573652Y317347D01*
X574022Y317951D01*
X574293Y318605D01*
X574458Y319294D01*
X574500Y320000D01*
X574458Y320706D01*
X574293Y321395D01*
X574022Y322049D01*
X573652Y322653D01*
X573192Y323192D01*
X572653Y323652D01*
X572049Y324022D01*
X571395Y324293D01*
X570706Y324458D01*
X570000Y324514D01*
X569993Y324513D01*
Y325487D01*
X570000Y325486D01*
X570706Y325542D01*
X571395Y325707D01*
X572049Y325978D01*
X572653Y326348D01*
X573192Y326808D01*
X573652Y327347D01*
X574022Y327951D01*
X574293Y328605D01*
X574458Y329294D01*
X574500Y330000D01*
X574458Y330706D01*
X574293Y331395D01*
X574022Y332049D01*
X573652Y332653D01*
X573192Y333192D01*
X572653Y333652D01*
X572049Y334022D01*
X571395Y334293D01*
X570706Y334458D01*
X570000Y334514D01*
X569993Y334513D01*
Y350000D01*
X579993D01*
Y334513D01*
X579294Y334458D01*
X578605Y334293D01*
X577951Y334022D01*
X577347Y333652D01*
X576808Y333192D01*
X576348Y332653D01*
X575978Y332049D01*
X575707Y331395D01*
X575542Y330706D01*
X575486Y330000D01*
X575542Y329294D01*
X575707Y328605D01*
X575978Y327951D01*
X576348Y327347D01*
X576808Y326808D01*
X577347Y326348D01*
X577951Y325978D01*
X578605Y325707D01*
X579294Y325542D01*
X579993Y325487D01*
Y324513D01*
X579294Y324458D01*
X578605Y324293D01*
X577951Y324022D01*
X577347Y323652D01*
X576808Y323192D01*
X576348Y322653D01*
X575978Y322049D01*
X575707Y321395D01*
X575542Y320706D01*
X575486Y320000D01*
X575542Y319294D01*
X575707Y318605D01*
X575978Y317951D01*
X576348Y317347D01*
X576808Y316808D01*
X577347Y316348D01*
X577951Y315978D01*
X578605Y315707D01*
X579294Y315542D01*
X579993Y315487D01*
Y296500D01*
G37*
G36*
X569993Y293500D02*X579993D01*
Y290500D01*
X569993D01*
Y293500D01*
G37*
G36*
Y296500D02*X560000D01*
Y315507D01*
X563235Y315514D01*
X563465Y315569D01*
X563683Y315659D01*
X563884Y315783D01*
X564064Y315936D01*
X564217Y316116D01*
X564341Y316317D01*
X564431Y316535D01*
X564486Y316765D01*
X564500Y317000D01*
X564486Y323235D01*
X564431Y323465D01*
X564341Y323683D01*
X564217Y323884D01*
X564064Y324064D01*
X563884Y324217D01*
X563683Y324341D01*
X563465Y324431D01*
X563235Y324486D01*
X563000Y324500D01*
X560000Y324493D01*
Y325486D01*
X560706Y325542D01*
X561395Y325707D01*
X562049Y325978D01*
X562653Y326348D01*
X563192Y326808D01*
X563652Y327347D01*
X564022Y327951D01*
X564293Y328605D01*
X564458Y329294D01*
X564500Y330000D01*
X564458Y330706D01*
X564293Y331395D01*
X564022Y332049D01*
X563652Y332653D01*
X563192Y333192D01*
X562653Y333652D01*
X562049Y334022D01*
X561395Y334293D01*
X560706Y334458D01*
X560000Y334514D01*
Y350000D01*
X569993D01*
Y334513D01*
X569294Y334458D01*
X568605Y334293D01*
X567951Y334022D01*
X567347Y333652D01*
X566808Y333192D01*
X566348Y332653D01*
X565978Y332049D01*
X565707Y331395D01*
X565542Y330706D01*
X565486Y330000D01*
X565542Y329294D01*
X565707Y328605D01*
X565978Y327951D01*
X566348Y327347D01*
X566808Y326808D01*
X567347Y326348D01*
X567951Y325978D01*
X568605Y325707D01*
X569294Y325542D01*
X569993Y325487D01*
Y324513D01*
X569294Y324458D01*
X568605Y324293D01*
X567951Y324022D01*
X567347Y323652D01*
X566808Y323192D01*
X566348Y322653D01*
X565978Y322049D01*
X565707Y321395D01*
X565542Y320706D01*
X565486Y320000D01*
X565542Y319294D01*
X565707Y318605D01*
X565978Y317951D01*
X566348Y317347D01*
X566808Y316808D01*
X567347Y316348D01*
X567951Y315978D01*
X568605Y315707D01*
X569294Y315542D01*
X569993Y315487D01*
Y296500D01*
G37*
G36*
X560000Y293500D02*X569993D01*
Y290500D01*
X560000D01*
Y293500D01*
G37*
G36*
Y296500D02*X535599D01*
X535435Y296769D01*
X535128Y297128D01*
X534769Y297435D01*
X534366Y297681D01*
X533930Y297862D01*
X533471Y297972D01*
X533000Y298009D01*
X532529Y297972D01*
X532070Y297862D01*
X531634Y297681D01*
X531231Y297435D01*
X530872Y297128D01*
X530565Y296769D01*
X530319Y296366D01*
X530138Y295930D01*
X530028Y295471D01*
X530000Y295118D01*
Y350000D01*
X560000D01*
Y334514D01*
X559294Y334458D01*
X558605Y334293D01*
X557951Y334022D01*
X557347Y333652D01*
X556808Y333192D01*
X556348Y332653D01*
X555978Y332049D01*
X555707Y331395D01*
X555542Y330706D01*
X555486Y330000D01*
X555542Y329294D01*
X555707Y328605D01*
X555978Y327951D01*
X556348Y327347D01*
X556808Y326808D01*
X557347Y326348D01*
X557951Y325978D01*
X558605Y325707D01*
X559294Y325542D01*
X560000Y325486D01*
Y324493D01*
X556765Y324486D01*
X556535Y324431D01*
X556317Y324341D01*
X556116Y324217D01*
X555936Y324064D01*
X555783Y323884D01*
X555659Y323683D01*
X555569Y323465D01*
X555514Y323235D01*
X555500Y323000D01*
X555514Y316765D01*
X555569Y316535D01*
X555659Y316317D01*
X555783Y316116D01*
X555936Y315936D01*
X556116Y315783D01*
X556317Y315659D01*
X556535Y315569D01*
X556765Y315514D01*
X557000Y315500D01*
X560000Y315507D01*
Y296500D01*
G37*
G36*
X535599Y293500D02*X560000D01*
Y290500D01*
X530000D01*
Y294882D01*
X530028Y294529D01*
X530138Y294070D01*
X530319Y293634D01*
X530565Y293231D01*
X530872Y292872D01*
X531231Y292565D01*
X531634Y292319D01*
X532070Y292138D01*
X532529Y292028D01*
X533000Y291991D01*
X533471Y292028D01*
X533930Y292138D01*
X534366Y292319D01*
X534769Y292565D01*
X535128Y292872D01*
X535435Y293231D01*
X535599Y293500D01*
G37*
G54D22*X500000Y150000D02*X517000D01*
X523000Y156000D01*
Y163000D01*
X533000Y295000D02*X596000D01*
X521000Y289000D02*X603000D01*
G54D23*X205000Y150000D03*
Y250000D03*
G54D24*X300000Y231500D03*
Y250000D03*
Y268500D03*
X250000Y231500D03*
Y250000D03*
Y268500D03*
G54D23*X645000Y250000D03*
Y150000D03*
G54D24*X600000Y131500D03*
Y150000D03*
Y168500D03*
X550000Y131500D03*
Y150000D03*
Y168500D03*
X500000Y131500D03*
Y150000D03*
Y168500D03*
X450000Y131500D03*
Y150000D03*
Y168500D03*
X400000Y131500D03*
X300000D03*
X250000D03*
X400000Y150000D03*
X300000D03*
X250000D03*
X400000Y168500D03*
X300000D03*
X250000D03*
X350000Y131500D03*
Y150000D03*
Y168500D03*
G54D21*G36*
X557000Y323000D02*Y317000D01*
X563000D01*
Y323000D01*
X557000D01*
G37*
G54D25*X560000Y330000D03*
X570000Y320000D03*
Y330000D03*
X580000Y320000D03*
Y330000D03*
X590000Y320000D03*
G54D24*X600000Y231500D03*
Y250000D03*
Y268500D03*
G54D25*X590000Y330000D03*
X600000D03*
X610000D03*
X620000D03*
X630000D03*
X600000Y320000D03*
X610000D03*
X620000D03*
X630000D03*
G54D24*X550000Y231500D03*
Y250000D03*
Y268500D03*
G54D26*X523000Y163000D03*
X533000Y295000D03*
X596000D03*
X521000Y289000D03*
X603000D03*
G54D27*G54D28*G54D29*G54D28*G54D29*G54D30*G54D29*G54D30*G54D29*M02*
