M48
INCH
T35C0.020
T34C0.038
T33C0.087
T32C0.120
%
T35
X052100Y028900
X052300Y016300
X053300Y029500
X059600Y029500
X060300Y028900
T34
X056000Y033000
X056000Y032000
X057000Y033000
X057000Y032000
X058000Y033000
X058000Y032000
X059000Y033000
X059000Y032000
X060000Y033000
X060000Y032000
X061000Y033000
X061000Y032000
X062000Y033000
X062000Y032000
X063000Y033000
X063000Y032000
T33
X025000Y026850
X025000Y025000
X025000Y023150
X025000Y016850
X025000Y015000
X025000Y013150
X030000Y026850
X030000Y025000
X030000Y023150
X030000Y016850
X030000Y015000
X030000Y013150
X035000Y016850
X035000Y015000
X035000Y013150
X040000Y016850
X040000Y015000
X040000Y013150
X045000Y016850
X045000Y015000
X045000Y013150
X050000Y016850
X050000Y015000
X050000Y013150
X055000Y026850
X055000Y025000
X055000Y023150
X055000Y016850
X055000Y015000
X055000Y013150
X060000Y026850
X060000Y025000
X060000Y023150
X060000Y016850
X060000Y015000
X060000Y013150
T32
X020500Y025000
X020500Y015000
X064500Y025000
X064500Y015000
M30
